<?xml version="1.0" encoding="utf-8"?>
<!-- Generator: Adobe Illustrator 26.1.0, SVG Export Plug-In . SVG Version: 6.00 Build 0)  -->
<svg version="1.1" id="Layer_1" xmlns="http://www.w3.org/2000/svg" xmlns:xlink="http://www.w3.org/1999/xlink" x="0px" y="0px"
	 viewBox="0 0 155 257" style="enable-background:new 0 0 155 257;" xml:space="preserve">
<style type="text/css">
	.st0{fill:#FBFCFC;}
	.st1{fill:#C7AF89;}
	.st2{fill:#BB9A5A;}
	.st3{fill:#CCA37A;}
	.st4{fill:#CC9966;}
	.st5{fill:#5C442E;}
</style>
<path class="st0" d="M154.9,128.5c0,41.6,0,83.2,0.1,124.8c0,2.7-0.2,3.7-3.5,3.7c-49.4-0.1-98.8-0.1-148.2,0
	c-2.9,0-3.2-0.8-3.2-3.4C0.1,170.2,0.1,86.8,0,3.4C0,0,1.2,0.1,3.8,0.1C53,0.1,102.3,0.1,151.5,0c3.2,0,3.5,0.9,3.5,3.7
	C154.9,45.3,154.9,86.9,154.9,128.5z M136.4,120.9c0-17.1-0.2-34.3,0.1-51.4c0.3-13.1-3.8-25.8-11.8-36.2
	c-13.6-18-42.2-28.3-63.2-21c-26,9.1-42.2,27.8-42.3,58.5c-0.2,35.3-0.1,70.6,0,105.9c0,10.6,4.8,15.4,15.4,15.6
	c8.6,0.1,17.3,0.2,26,0c4-0.1,5.5,0.9,5.4,5.2c-0.3,12.3-0.2,24.6-0.1,36.9c0,5.1,0.4,10.2,5.7,12.8c10.4,5.1,19.9-0.8,19.9-12.4
	c0.1-12.6,0.2-25.3-0.1-37.9c-0.1-3.9,1.1-4.8,4.8-4.7c8.3,0.3,16.6,0.1,25,0.1c9.5-0.1,16-6.5,15.7-15.5
	C136,158.2,136.5,139.6,136.4,120.9L136.4,120.9z"/>
<path class="st1" d="M89.3,201.4c0.1,12.2,0.3,24.4,0.3,36.6c0,6.2-4.1,9.3-11.5,9.3c-7.4,0-11.2-2.9-11.2-9.3
	c0-12.2,0.1-24.4,0.2-36.6L89.3,201.4z"/>
<path class="st2" d="M89.2,206.5H67.9c-0.7-16.6-0.7-16.1,13.8-16.8c6.9-0.3,8.6,2.4,7.7,9.3C89.2,201.5,89.2,204,89.2,206.5z"/>
<path class="st3" d="M85.3,120.7V73c0.1-11.6,5.6-16.1,19.6-16.1c10.7,0,15.6,5,15.6,15.8v96.6c0,8.4-2.7,10.9-11.9,10.9H95.6
	c-7.2,0-10.2-2.8-10.2-9.7V120.7z"/>
<path class="st3" d="M70.9,120.8c0,17-0.1,34,0.1,51c0.1,6.2-2.8,8.7-9.6,8.5c-5.7-0.2-11.5-0.1-17.2,0c-5.7,0.1-8.9-2.4-8.9-7.7
	c0-34.1-0.1-68.3,0-102.4c0.1-8.3,5.8-13.1,15-13.2h5.9c9.7,0,14.6,4.3,14.7,12.9C71,86.8,71,103.8,70.9,120.8z"/>
<path class="st4" d="M21.2,120c0-20-0.6-40,0.2-60C21.9,49.4,27,39.8,34,31.6c19.9-23.2,56.7-25.3,78.9-8
	c13.5,10.5,21.2,24.4,21.3,41.4c0.4,37.8,0.2,75.6,0.2,113.4c0,7.5-3.8,11.1-11.5,11.1c-30.3,0.1-60.5,0.1-90.8,0
	c-8.8,0-11.1-2.4-11.2-11.1c-0.1-19.5,0-39,0-58.5L21.2,120z M87.1,122.1v47.7c0,6.6,2.8,9.2,9.3,9.3h11.9c8.3,0,10.8-2.4,10.8-10.5
	V76.2c0.1-10.4-4.4-15.2-14.2-15.2c-12.7,0-17.7,4.3-17.7,15.3C87.2,91.6,87.1,106.9,87.1,122.1z M68.5,122.3V73.5
	c0-8.2-4.3-12.4-12.8-12.4h-5.2c-7.9,0.1-12.9,4.6-13,12.5c-0.1,32.7,0,65.4,0,98.1c0,5,2.7,7.4,7.8,7.4c5,0,10-0.2,15,0
	c5.9,0.3,8.4-2.2,8.4-8.1C68.5,154.8,68.6,138.5,68.5,122.3L68.5,122.3z"/>
<path class="st5" d="M136.4,120.9c0,18.6-0.4,37.3,0.2,55.9c0.3,9-6.2,15.4-15.7,15.5c-8.3,0.1-16.7,0.2-25-0.1
	c-3.6-0.1-4.8,0.8-4.8,4.7c0.3,12.6,0.2,25.3,0.1,37.9c-0.1,11.5-9.5,17.4-19.9,12.4c-5.3-2.6-5.7-7.7-5.7-12.8
	c0-12.3-0.2-24.6,0.1-36.9c0.1-4.3-1.3-5.3-5.4-5.2c-8.6,0.3-17.3,0.2-26,0c-10.6-0.2-15.4-5-15.4-15.6c0-35.3-0.1-70.6,0-105.9
	c0.1-30.7,16.3-49.5,42.3-58.5c21-7.3,49.7,2.9,63.2,21c8,10.3,12.1,23.1,11.8,36.2C136.2,86.6,136.4,103.8,136.4,120.9z M69.2,205
	c-0.1,10.8-0.1,21.6-0.1,32.5c0,5.6,3,8.2,9.4,8.2s9.6-2.8,9.7-8.2c0-10.8-0.2-21.6-0.3-32.5c0-2,0.1-4,0.2-6
	c0.8-5.3-0.7-7.5-6.8-7.3C68.6,192.4,68.6,192,69.2,205z M23.2,119.9h-0.1c0,19.1,0,38.3,0,57.4c0,8.6,2.2,10.9,10.8,10.9
	c29.3,0.1,58.6,0.1,87.9,0c7.4,0,11.1-3.6,11.1-10.9c0-37.1,0.2-74.3-0.2-111.4c-0.2-16.7-7.5-30.3-20.7-40.6
	c-21.6-17-57.2-15-76.4,7.8c-6.8,8-11.7,17.5-12.2,27.9C22.6,80.6,23.2,100.3,23.2,119.9L23.2,119.9z"/>
</svg>
