<svg id="Layer_1" data-name="Layer 1" xmlns="http://www.w3.org/2000/svg" viewBox="0 0 155 257"><defs><style>.cls-1{fill:#fbfcfc;}.cls-2{fill:#eb59ff;}.cls-3{fill:#e524ff;}.cls-4{fill:#d4d48f;}.cls-5{fill:#d4d47d;}.cls-6{fill:#917613;}</style></defs><path class="cls-1" d="M154.93,128.49q0,62.41.07,124.83c0,2.74-.25,3.69-3.48,3.68q-74.12-.22-148.23,0c-2.92,0-3.24-.77-3.24-3.4Q.17,128.52,0,3.43C0,0,1.25.05,3.77.06Q77.65.14,151.51,0c3.18,0,3.5.88,3.49,3.66Q154.85,66.08,154.93,128.49Zm-18.52-7.56c0-17.14-.2-34.29.07-51.43a56.73,56.73,0,0,0-11.8-36.18c-13.56-18-42.19-28.29-63.23-21-26,9.06-42.16,27.8-42.31,58.51-.17,35.29-.07,70.57,0,105.86,0,10.59,4.78,15.44,15.37,15.61,8.65.14,17.31.22,26,0,4-.13,5.48.88,5.38,5.19-.31,12.31-.15,24.63-.14,36.95,0,5.11.37,10.25,5.71,12.84,10.45,5.05,19.86-.83,19.93-12.37.07-12.65.18-25.31-.09-37.95-.08-3.86,1.11-4.77,4.75-4.66,8.31.26,16.64.13,25,.07,9.45-.07,16-6.5,15.66-15.52-.66-18.62-.25-37.28-.25-55.92Z"/><path class="cls-2" d="M87.9,201.52c.12,12.12.35,24.25.33,36.37,0,6.12-4.07,9.24-11.41,9.24s-11.11-2.93-11.12-9.25c0-12.13.1-24.26.16-36.38Z"/><path class="cls-3" d="M88.59,207H67.33c-.69-17.41-.68-16.93,13.8-17.68,7-.36,8.6,2.58,7.74,9.72Q88.56,203,88.59,207Z"/><path class="cls-4" d="M84.13,121.77V75c.08-11.35,6.07-15.76,21.2-15.76,11.58,0,16.93,4.9,16.93,15.51v94.63c0,8.26-3,10.69-12.87,10.71H95.21c-7.77,0-11.08-2.75-11.08-9.47Z"/><path class="cls-4" d="M73.16,121.83c0,16.67-.14,33.34.07,49.93.08,6-3,8.55-10.33,8.29-6.16-.22-12.34-.07-18.5,0s-9.58-2.4-9.59-7.55c0-33.46-.09-66.91,0-100.38C34.9,64,41.1,59.32,51,59.21h6.4q15.69,0,15.78,12.67Q73.18,96.87,73.16,121.83Z"/><path class="cls-5" d="M21.37,120c0-20-.63-40,.24-60,.46-10.56,5.56-20.18,12.52-28.37C53.87,8.43,90.41,6.38,112.54,23.67,126,34.17,133.55,48.1,133.73,65c.43,37.79.23,75.59.19,113.38,0,7.51-3.76,11.13-11.38,11.14q-45.09.11-90.2,0c-8.79,0-11.07-2.36-11.1-11.12-.06-19.49,0-39,0-58.47Zm65.5,2.13v47.72c0,6.57,2.75,9.22,9.24,9.25h11.78c8.27,0,10.72-2.39,10.72-10.46V76.2C118.7,65.82,114.2,61,104.55,61,91.93,61,86.94,65.3,86.92,76.34Q86.88,99.23,86.87,122.09Zm-18.48.13V73.44c0-8.24-4.24-12.35-12.66-12.38H50.59c-7.86,0-12.84,4.6-12.87,12.52-.11,32.7,0,65.39,0,98.08,0,5,2.7,7.4,7.7,7.37s9.91-.17,14.85,0c5.86.26,8.36-2.19,8.3-8.09-.18-16.21-.1-32.48-.1-48.75Z"/><path class="cls-6" d="M136.41,120.93c0,18.64-.42,37.3.19,55.92.29,9-6.21,15.45-15.66,15.52-8.32.06-16.65.19-25-.07-3.64-.11-4.83.8-4.75,4.66.27,12.64.16,25.3.09,37.95-.07,11.54-9.48,17.42-19.93,12.37-5.34-2.59-5.7-7.73-5.71-12.84,0-12.32-.17-24.64.14-36.95.1-4.31-1.35-5.32-5.38-5.19-8.64.27-17.3.19-25.95,0-10.59-.17-15.36-5-15.37-15.61,0-35.29-.15-70.57,0-105.86.15-30.71,16.32-49.45,42.31-58.51,21-7.34,49.67,2.92,63.23,21a56.73,56.73,0,0,1,11.8,36.18C136.21,86.64,136.41,103.79,136.41,120.93ZM69.18,205c-.05,10.82-.14,21.64-.14,32.47,0,5.64,3,8.24,9.4,8.25s9.64-2.78,9.65-8.24c0-10.82-.18-21.64-.28-32.46a54.62,54.62,0,0,1,.24-6c.76-5.34-.69-7.53-6.78-7.26C68.58,192.35,68.57,192,69.18,205Zm-46-85.08h-.1v57.44c0,8.6,2.25,10.9,10.81,10.92q43.94.09,87.87,0c7.42,0,11.07-3.57,11.08-10.94,0-37.13.23-74.26-.18-111.38C132.5,49.3,125.12,35.63,112,25.32c-21.58-17-57.18-15-76.41,7.81C28.81,41.13,23.85,50.62,23.4,61c-.82,19.61-.21,39.27-.21,58.91Z"/></svg>