<svg id="Layer_1" data-name="Layer 1" xmlns="http://www.w3.org/2000/svg" viewBox="0 0 155 257"><defs><style>.cls-1{fill:#fbfcfc;}.cls-2{fill:#084e68;}.cls-3{fill:#fd9daa;}.cls-4{fill:#40c0db;}.cls-5{fill:#36a3bb;}.cls-6{fill:#d98692;}</style></defs><path class="cls-1" d="M154.93,128.49q0,62.41.07,124.83c0,2.74-.25,3.69-3.48,3.68q-74.12-.22-148.23,0c-2.92,0-3.24-.77-3.24-3.4Q.17,128.51,0,3.43C0,0,1.25.05,3.77.06Q77.65.14,151.51,0c3.18,0,3.5.88,3.49,3.66Q154.85,66.08,154.93,128.49Zm-18.52-7.56c0-17.14-.2-34.29.07-51.43a56.71,56.71,0,0,0-11.8-36.18c-13.56-18-42.19-28.29-63.23-21-26,9.06-42.16,27.8-42.31,58.51-.17,35.29-.07,70.57,0,105.86,0,10.59,4.78,15.44,15.37,15.61,8.65.14,17.31.22,25.95,0,4-.13,5.48.88,5.38,5.19-.31,12.31-.15,24.63-.14,36.95,0,5.11.37,10.25,5.71,12.84,10.45,5.05,19.86-.83,19.93-12.37.07-12.65.18-25.31-.09-37.95-.08-3.86,1.11-4.77,4.75-4.66,8.31.26,16.64.13,25,.07,9.45-.07,15.95-6.5,15.66-15.52C136,158.23,136.41,139.57,136.41,120.93Z"/><path class="cls-2" d="M136.41,120.93c0,18.64-.42,37.3.19,55.92.29,9-6.21,15.45-15.66,15.52-8.32.06-16.65.19-25-.07-3.64-.11-4.83.8-4.75,4.66.27,12.64.16,25.3.09,37.95-.07,11.54-9.48,17.42-19.93,12.37-5.34-2.59-5.7-7.73-5.71-12.84,0-12.32-.17-24.64.14-36.95.1-4.31-1.35-5.32-5.38-5.19-8.64.27-17.3.19-25.95,0-10.59-.17-15.36-5-15.37-15.61-.05-35.29-.15-70.57,0-105.86.15-30.71,16.32-49.45,42.31-58.51,21-7.34,49.67,2.92,63.23,21a56.71,56.71,0,0,1,11.8,36.18C136.21,86.64,136.41,103.79,136.41,120.93ZM69.18,205c-.05,10.82-.14,21.64-.14,32.47,0,5.64,3,8.24,9.4,8.25s9.64-2.78,9.65-8.24c0-10.82-.18-21.64-.28-32.46a56.24,56.24,0,0,1,.24-6c.76-5.34-.69-7.53-6.78-7.26C68.58,192.35,68.57,192,69.18,205Zm-46-85.08h-.1c0,19.15-.05,38.29,0,57.44,0,8.6,2.25,10.9,10.81,10.92q43.94.09,87.87,0c7.42,0,11.07-3.57,11.08-10.94,0-37.13.23-74.26-.18-111.38C132.5,49.3,125.12,35.63,112,25.32c-21.58-17-57.18-15-76.41,7.81-6.78,8-11.74,17.49-12.19,27.87C22.58,80.61,23.19,100.27,23.19,119.91Z"/><path class="cls-3" d="M23.19,119.91c0-19.64-.61-39.3.24-58.91.45-10.38,5.41-19.83,12.19-27.87C54.85,10.35,90.45,8.33,112,25.32c13.09,10.31,20.47,24,20.65,40.62.41,37.12.22,74.25.18,111.38,0,7.37-3.66,10.93-11.08,10.94q-43.93.11-87.87,0c-8.56,0-10.78-2.32-10.81-10.92-.06-19.15,0-38.29,0-57.44ZM87,122c0,15.63,0,31.25,0,46.88,0,6.45,2.68,9.06,9,9.09h11.47c8.06,0,10.45-2.35,10.45-10.28q0-45.39,0-90.77C118,66.72,113.62,62,104.22,62c-12.29,0-17.15,4.21-17.17,15.06Q87,99.54,87,122Zm-18,.13q0-24,0-47.92c0-8.1-4.13-12.13-12.34-12.16-1.66,0-3.33,0-5,0C44,62.1,39.15,66.57,39.12,74.35c-.11,32.12,0,64.23,0,96.35,0,4.94,2.63,7.27,7.5,7.24s9.65-.17,14.47,0c5.71.25,8.14-2.16,8.08-7.95C69,154.06,69.07,138.08,69.07,122.1Z"/><path class="cls-4" d="M87.81,205c.1,10.82.29,21.64.28,32.46,0,5.46-3.44,8.24-9.65,8.24s-9.39-2.61-9.4-8.25c0-10.83.09-21.65.14-32.47Z"/><path class="cls-5" d="M87.81,205l-18.63,0c-.61-13-.6-12.64,12.09-13.2,6.09-.27,7.54,1.92,6.78,7.26A56.24,56.24,0,0,0,87.81,205Z"/><path class="cls-6" d="M87,122q0-22.44,0-44.89C87.07,66.23,91.93,62,104.22,62c9.4,0,13.74,4.7,13.74,14.87q0,45.38,0,90.77c0,7.93-2.39,10.26-10.45,10.28H96c-6.31,0-9-2.64-9-9.09C87,153.22,87,137.6,87,122Z"/><path class="cls-6" d="M69.07,122.1c0,16-.11,32,.06,47.93.06,5.79-2.37,8.2-8.08,7.95-4.82-.21-9.65-.06-14.47,0s-7.49-2.3-7.5-7.24c0-32.12-.07-64.23,0-96.35C39.15,66.57,44,62.1,51.73,62c1.66,0,3.33,0,5,0,8.21,0,12.33,4.06,12.34,12.16Q69.09,98.14,69.07,122.1Z"/></svg>