<svg id="Layer_1" data-name="Layer 1" xmlns="http://www.w3.org/2000/svg" viewBox="0 0 155 257"><defs><style>.cls-1{fill:#fbfcfc;}.cls-2{fill:#d6c003;}.cls-3{fill:#d09f24;}.cls-4{fill:#d09124;}.cls-5{fill:#d07d00;}.cls-6{fill:#91dc5a;}.cls-7{fill:#c2fb3b;}.cls-8{fill:#804c09;}.cls-9{fill:#ffe98f;}.cls-10{fill:#fff6d2;}</style></defs><path class="cls-1" d="M154.93,128.49q0,62.41.07,124.83c0,2.74-.25,3.69-3.48,3.68q-74.12-.22-148.23,0c-2.92,0-3.24-.77-3.24-3.4Q.17,128.52,0,3.43C0,0,1.25.05,3.77.06Q77.65.14,151.51,0c3.18,0,3.5.88,3.49,3.66Q154.85,66.08,154.93,128.49Zm-18.52-7.56c0-17.14-.2-34.29.07-51.43a56.73,56.73,0,0,0-11.8-36.18c-13.56-18-42.19-28.29-63.23-21-26,9.06-42.16,27.8-42.31,58.51-.17,35.29-.07,70.57,0,105.86,0,10.59,4.78,15.44,15.37,15.61,8.65.14,17.31.22,26,0,4-.13,5.48.88,5.38,5.19-.31,12.31-.15,24.63-.14,36.95,0,5.11.37,10.25,5.71,12.84,10.45,5.05,19.86-.83,19.93-12.37.07-12.65.18-25.31-.09-37.95-.08-3.86,1.11-4.77,4.75-4.66,8.31.26,16.64.13,25,.07,9.45-.07,15.95-6.5,15.66-15.52-.66-18.62-.25-37.28-.25-55.92Z"/><path class="cls-2" d="M82.05,121.91V75.76c.09-11.18,6.35-15.53,22.17-15.53,12.11,0,17.69,4.83,17.69,15.29v93.3c0,8.15-3.07,10.54-13.45,10.56H93.64c-8.13,0-11.59-2.71-11.59-9.34Z"/><path class="cls-2" d="M75.08,120c0,17-.14,34,.08,50.92.09,6.15-3.18,8.71-10.85,8.44-6.47-.22-13-.06-19.43,0s-10.06-2.44-10.07-7.69c0-34.12-.1-68.23,0-102.36.09-8.31,6.61-13.05,17-13.16h6.71q16.55,0,16.57,12.92Q75.11,94.54,75.08,120Z"/><path class="cls-2" d="M19.28,119.91c0-19.64-.65-39.3.26-58.91.48-10.38,5.77-19.83,13-27.87,20.52-22.78,58.51-24.8,81.51-7.81,14,10.31,21.84,24,22,40.62.44,37.12.23,74.25.19,111.38,0,7.37-3.9,10.93-11.82,10.94q-46.87.11-93.76,0c-9.14,0-11.51-2.32-11.54-10.92-.06-19.15,0-38.29,0-57.44ZM87.37,122v46.88c0,6.45,2.86,9.06,9.6,9.09h12.24c8.6,0,11.15-2.35,11.15-10.28V76.92c.09-10.2-4.59-14.92-14.62-14.92-13.11,0-18.3,4.21-18.32,15.06Q87.38,99.54,87.37,122Zm-19.21.13V74.21c0-8.1-4.41-12.13-13.17-12.16H49.66c-8.18.05-13.35,4.52-13.38,12.3-.12,32.12,0,64.23,0,96.35,0,4.94,2.8,7.27,8,7.24s10.3-.17,15.44,0c6.09.25,8.69-2.16,8.62-7.95-.18-15.93-.1-31.91-.1-47.89Z"/><path class="cls-3" d="M89.44,202.89c.12,11.76.34,23.52.33,35.28,0,5.94-4,9-11.31,9s-11-2.84-11-9c0-11.77.1-23.53.16-35.29Z"/><path class="cls-4" d="M89.28,205H67.68c-.71-16.39-.7-15.94,14-16.65,7.06-.34,8.75,2.42,7.86,9.16Q89.24,201.25,89.28,205Z"/><path class="cls-5" d="M136.41,120.93c0,18.64-.42,37.3.19,55.92.29,9-6.21,15.45-15.66,15.52-8.32.06-16.65.19-25-.07-3.64-.11-4.83.8-4.75,4.66.27,12.64.16,25.3.09,37.95-.07,11.54-9.48,17.42-19.93,12.37-5.34-2.59-5.7-7.73-5.71-12.84,0-12.32-.17-24.64.14-36.95.1-4.31-1.35-5.32-5.38-5.19-8.64.27-17.3.19-25.95,0-10.59-.17-15.36-5-15.37-15.61,0-35.29-.15-70.57,0-105.86.15-30.71,16.32-49.45,42.31-58.51,21-7.34,49.67,2.92,63.23,21a56.73,56.73,0,0,1,11.8,36.18C136.21,86.64,136.41,103.79,136.41,120.93ZM69.18,205c-.05,10.82-.14,21.64-.14,32.47,0,5.64,3,8.24,9.4,8.25s9.64-2.78,9.65-8.24c0-10.82-.18-21.64-.28-32.46a54.62,54.62,0,0,1,.24-6c.76-5.34-.69-7.53-6.78-7.26C68.58,192.35,68.57,192,69.18,205Zm-46-85.08h-.1c0,19.15,0,38.29,0,57.44,0,8.6,2.25,10.9,10.81,10.92q43.94.09,87.87,0c7.42,0,11.07-3.57,11.08-10.94,0-37.13.23-74.26-.18-111.38C132.5,49.3,125.12,35.63,112,25.32c-21.58-17-57.18-15-76.41,7.81C28.81,41.13,23.85,50.62,23.4,61c-.82,19.61-.21,39.27-.21,58.91Z"/><ellipse class="cls-6" cx="78.61" cy="113.26" rx="41.3" ry="41.61"/><path class="cls-7" d="M102.7,106.32H95.23l5.28-5.32a7,7,0,0,0,0-9.81,6.84,6.84,0,0,0-9.73,0l-5.29,5.33V89a6.89,6.89,0,1,0-13.77,0v7.53l-5.28-5.33a6.85,6.85,0,0,0-9.74,0,7,7,0,0,0,0,9.81L62,106.32H54.51a6.94,6.94,0,0,0,0,13.88H62l-5.29,5.32a7,7,0,0,0,0,9.81,6.85,6.85,0,0,0,9.74,0L71.72,130v7.53a6.89,6.89,0,1,0,13.77,0V130l5.29,5.33a6.84,6.84,0,0,0,9.73,0,7,7,0,0,0,0-9.81l-5.28-5.32h7.47a6.94,6.94,0,0,0,0-13.87Z"/><ellipse class="cls-8" cx="78.61" cy="92.45" rx="3.44" ry="3.47"/><ellipse cx="64" cy="98.55" rx="3.44" ry="3.47"/><ellipse cx="57.96" cy="113.26" rx="3.44" ry="3.47"/><ellipse cx="64" cy="127.97" rx="3.44" ry="3.47"/><ellipse class="cls-8" cx="78.61" cy="134.07" rx="3.44" ry="3.47"/><path d="M78.61,137.53a3.47,3.47,0,0,1,0-6.93"/><ellipse class="cls-8" cx="93.21" cy="127.97" rx="3.44" ry="3.47"/><ellipse class="cls-8" cx="99.26" cy="113.26" rx="3.44" ry="3.47"/><ellipse class="cls-8" cx="93.21" cy="98.55" rx="3.44" ry="3.47"/><path d="M78.61,95.92a3.47,3.47,0,0,1,0-6.93"/><path class="cls-9" d="M78.61,127.13a13.87,13.87,0,0,1,0-27.74"/><ellipse class="cls-10" cx="78.61" cy="113.26" rx="13.77" ry="13.87"/></svg>