<svg id="Layer_1" data-name="Layer 1" xmlns="http://www.w3.org/2000/svg" viewBox="0 0 155 257"><defs><style>.cls-1{fill:#fbfcfc;}.cls-2{fill:#3183b3;}.cls-3{fill:#316797;}.cls-4{fill:#a3562d;}.cls-5{fill:#804323;}.cls-6{fill:#050505;}.cls-7{fill:#060305;}.cls-8{fill:#040303;}.cls-9{fill:#040403;}.cls-10{fill:#030403;}.cls-11{fill:#040204;}.cls-12{fill:#060506;}.cls-13{fill:#060606;}.cls-14{fill:#0a0a0a;}.cls-15{fill:#090909;}.cls-16{fill:#f5dc04;}.cls-17{fill:#fcfcfc;}.cls-18{fill:#fbfbfb;}.cls-19{fill:#f0db0b;}.cls-20{fill:#efd80b;}.cls-21{fill:#ead90d;}.cls-22{fill:#ded31d;}.cls-23{fill:#f4e351;}.cls-24{fill:#cfc620;}.cls-25{fill:#d0c51e;}.cls-26{fill:#e9e6e6;}.cls-27{fill:#ececec;}.cls-28{fill:#d2c75c;}.cls-29{fill:#c0b540;}.cls-30{fill:#ee3125;}.cls-31{fill:#fcfcfb;}.cls-32{fill:#ed3225;}.cls-33{fill:#230503;}.cls-34{fill:#ed3126;}.cls-35{fill:#ec3223;}.cls-36{fill:#c13a35;}.cls-37{fill:#2a5fba;}.cls-38{fill:#2960b7;}.cls-39{fill:#051230;}.cls-40{fill:#091431;}.cls-41{fill:#2e5597;}.cls-42{fill:#29bd5a;}.cls-43{fill:#f58524;}.cls-44{fill:#060302;}.cls-45{fill:#130b04;}.cls-46{fill:#f3eb7b;}.cls-47{fill:#050404;}.cls-48{fill:#100201;}.cls-49{fill:#1a0301;}.cls-50{fill:#360906;}.cls-51{fill:#170802;}.cls-52{fill:#530b0a;}.cls-53{fill:#6f0a05;}.cls-54{fill:#e13329;}.cls-55{fill:#e3312a;}.cls-56{fill:#fcfdfd;}.cls-57{fill:#e33124;}.cls-58{fill:#eeefef;}.cls-59{fill:#fcfdfb;}.cls-60{fill:#05070e;}.cls-61{fill:#031028;}.cls-62{fill:#071022;}.cls-63{fill:#330f21;}.cls-64{fill:#0e1429;}.cls-65{fill:#2a5cb0;}.cls-66{fill:#031004;}.cls-67{fill:#040c04;}.cls-68{fill:#87b73e;}.cls-69{fill:#041f03;}.cls-70{fill:#12460c;}.cls-71{fill:#fcfdfa;}.cls-72{fill:#120806;}.cls-73{fill:#150a07;}.cls-74{fill:#0f0303;}.cls-75{fill:#0d0608;}.cls-76{fill:#0e0807;}.cls-77{fill:#150502;}.cls-78{fill:#2c1006;}.cls-79{fill:#3a180a;}.cls-80{fill:#491808;}.cls-81{fill:#a7632f;}.cls-82{fill:#d62624;}.cls-83{fill:#eeefee;}.cls-84{fill:#2960b8;}.cls-85{fill:#fbfbfa;}.cls-86{fill:#2c5cb1;}.cls-87{fill:#d5d4d5;}.cls-88{fill:#f5f5f5;}.cls-89{fill:#d62726;}.cls-90{fill:#28bc5c;}.cls-91{fill:#faf9fb;}.cls-92{fill:#eeedee;}.cls-93{fill:#28bb5a;}.cls-94{fill:#fafbfb;}.cls-95{fill:#f8f6f7;}.cls-96{fill:#3b945c;}.cls-97{fill:#0b0d07;}.cls-98{fill:#fdfdfd;}.cls-99{fill:#a76b30;}.cls-100{fill:#c37c3d;}.cls-101{fill:#0f0f0f;}.cls-102{fill:#161415;}.cls-103{fill:#e0e0e0;}.cls-104{fill:#eaeae8;}</style></defs><path class="cls-1" d="M154.93,128.49q0,62.41.07,124.83c0,2.74-.25,3.69-3.48,3.68q-74.12-.22-148.23,0c-2.92,0-3.24-.77-3.24-3.4Q.17,128.52,0,3.43C0,0,1.25.05,3.77.06Q77.65.14,151.51,0c3.18,0,3.5.88,3.49,3.66Q154.85,66.08,154.93,128.49Zm-18.52-7.56c0-17.14-.2-34.29.07-51.43a56.73,56.73,0,0,0-11.8-36.18c-13.56-18-42.19-28.29-63.23-21-26,9.06-42.16,27.8-42.31,58.51-.17,35.29-.07,70.57,0,105.86,0,10.59,4.78,15.44,15.37,15.61,8.65.14,17.31.22,26,0,4-.13,5.48.88,5.38,5.19-.31,12.31-.15,24.63-.14,36.95,0,5.11.37,10.25,5.71,12.84,10.45,5.05,19.86-.83,19.93-12.37.07-12.65.18-25.31-.09-37.95-.08-3.86,1.11-4.77,4.75-4.66,8.31.26,16.64.13,25,.07,9.45-.07,16-6.5,15.66-15.52-.66-18.62-.25-37.28-.25-55.92Z"/><path class="cls-2" d="M87.9,201.52c.12,12.12.35,24.25.33,36.37,0,6.12-4.07,9.24-11.41,9.24s-11.11-2.93-11.12-9.25c0-12.13.1-24.26.16-36.38Z"/><path class="cls-3" d="M88.59,207H67.33c-.69-17.41-.68-16.93,13.8-17.68,7-.36,8.6,2.58,7.74,9.72Q88.56,203,88.59,207Z"/><path class="cls-4" d="M84.13,121.77V75c.08-11.35,6.07-15.76,21.2-15.76,11.58,0,16.93,4.9,16.93,15.51v94.63c0,8.26-3,10.69-12.87,10.71H95.21c-7.77,0-11.08-2.75-11.08-9.47Z"/><path class="cls-4" d="M73.16,121.83c0,16.67-.14,33.34.07,49.93.08,6-3,8.55-10.33,8.29-6.16-.22-12.34-.07-18.5,0s-9.58-2.4-9.59-7.55c0-33.46-.09-66.91,0-100.38C34.9,64,41.1,59.32,51,59.21h6.4q15.69,0,15.78,12.67Q73.18,96.87,73.16,121.83Z"/><path class="cls-4" d="M21.37,120c0-20-.63-40,.24-60,.46-10.56,5.56-20.18,12.52-28.37C53.87,8.43,90.41,6.38,112.54,23.67,126,34.17,133.55,48.1,133.73,65c.43,37.79.23,75.59.19,113.38,0,7.51-3.76,11.13-11.38,11.14q-45.09.11-90.2,0c-8.79,0-11.07-2.36-11.1-11.12-.06-19.49,0-39,0-58.47Zm65.5,2.13v47.72c0,6.57,2.75,9.22,9.24,9.25h11.78c8.27,0,10.72-2.39,10.72-10.46V76.2C118.7,65.82,114.2,61,104.55,61,91.93,61,86.94,65.3,86.92,76.34Q86.88,99.23,86.87,122.09Zm-18.48.13V73.44c0-8.24-4.24-12.35-12.66-12.38H50.59c-7.86,0-12.84,4.6-12.87,12.52-.11,32.7,0,65.39,0,98.08,0,5,2.7,7.4,7.7,7.37s9.91-.17,14.85,0c5.86.26,8.36-2.19,8.3-8.09-.18-16.21-.1-32.48-.1-48.75Z"/><path class="cls-5" d="M136.41,120.93c0,18.64-.42,37.3.19,55.92.29,9-6.21,15.45-15.66,15.52-8.32.06-16.65.19-25-.07-3.64-.11-4.83.8-4.75,4.66.27,12.64.16,25.3.09,37.95-.07,11.54-9.48,17.42-19.93,12.37-5.34-2.59-5.7-7.73-5.71-12.84,0-12.32-.17-24.64.14-36.95.1-4.31-1.35-5.32-5.38-5.19-8.64.27-17.3.19-25.95,0-10.59-.17-15.36-5-15.37-15.61,0-35.29-.15-70.57,0-105.86.15-30.71,16.32-49.45,42.31-58.51,21-7.34,49.67,2.92,63.23,21a56.73,56.73,0,0,1,11.8,36.18C136.21,86.64,136.41,103.79,136.41,120.93ZM69.18,205c-.05,10.82-.14,21.64-.14,32.47,0,5.64,3,8.24,9.4,8.25s9.64-2.78,9.65-8.24c0-10.82-.18-21.64-.28-32.46a54.62,54.62,0,0,1,.24-6c.76-5.34-.69-7.53-6.78-7.26C68.58,192.35,68.57,192,69.18,205Zm-46-85.08h-.1v57.44c0,8.6,2.25,10.9,10.81,10.92q43.94.09,87.87,0c7.42,0,11.07-3.57,11.08-10.94,0-37.13.23-74.26-.18-111.38C132.5,49.3,125.12,35.63,112,25.32c-21.58-17-57.18-15-76.41,7.81C28.81,41.13,23.85,50.62,23.4,61c-.82,19.61-.21,39.27-.21,58.91Z"/><path class="cls-6" d="M57.75,20.05a6.94,6.94,0,0,1,4,5.9c-.36-.54-.69-1.11-1.09-1.62a5.75,5.75,0,0,0-4.11-2.66c-1.09-.09-1.26-.57-.81-1.62Z"/><path class="cls-7" d="M121.32,117.79a24.17,24.17,0,0,1-2.16,11.34c-2.54,5.92-7,9.39-13.59,9.87a17,17,0,0,1-12.39-3.52A16.68,16.68,0,0,1,87.29,125a35.82,35.82,0,0,1,3.09-21.8,32.28,32.28,0,0,1,7.37-10.44c5-4.66,11-4.56,15.67.42a28,28,0,0,1,6.39,12.42A42.68,42.68,0,0,1,121.32,117.79Z"/><path class="cls-8" d="M75.5,48.66A20.76,20.76,0,0,1,57.16,67.32,20.47,20.47,0,0,1,34.5,50c-1.26-9,2.11-16.63,10.63-21.45a2.53,2.53,0,0,0,1.36-1.75,6.85,6.85,0,0,1,2.67-4,3.71,3.71,0,0,1,2.19-.81c.44,0,.91.05,1,.54a.91.91,0,0,1-.6,1.12l-.08,0-.76.19c-1.84.45-2.91,1.72-3.86,3.6,6.65-2.27,12.87-2,18.66,1.65a20.32,20.32,0,0,1,9.77,15.62A8.3,8.3,0,0,1,75.5,48.66Z"/><path class="cls-9" d="M94.82,165c0,4.79-.48,8.34-2,11.69a15.19,15.19,0,0,1-11.26,8.87c-5.25,1.09-10.14.34-14.4-3.09a17.62,17.62,0,0,1-6.28-11.2c-1.68-10-.29-19.6,5-28.42a15.35,15.35,0,0,1,4.84-5c4.11-2.63,8.64-2.1,12.75,1.48,4.73,4.11,7.57,9.41,9.48,15.26A34,34,0,0,1,94.82,165Z"/><path class="cls-10" d="M54.57,124.05c-8.46-.65-17-6.48-18.71-16.21-1.59-9.25,2.17-20.77,12-26.16,5.34-2.93,10.55-2.12,15.54.89,6.9,4.15,10.6,10.33,11.5,18.33a40.56,40.56,0,0,1,.33,4.67c-.31.35-.08.86-.39,1.2-.92,8.65-6.42,14.73-15.18,16.75a19.91,19.91,0,0,1-3.68.53A1.36,1.36,0,0,1,54.57,124.05Z"/><path class="cls-11" d="M119.66,55.65c-.1,5.3-.8,10.16-3.48,14.51A17.48,17.48,0,0,1,91,75.29a17.93,17.93,0,0,1-7.54-11.06c-1.75-7.55-1.13-14.91,2.91-21.64C89.86,36.8,95,33.3,102,33.77c8.72.58,14.75,6,16.82,14.55A37.23,37.23,0,0,1,119.66,55.65Z"/><path class="cls-12" d="M98.07,90.39a4.71,4.71,0,0,1,4.56-4.73c.45,0,.87.18.93.65a1.56,1.56,0,0,1-.67,1.66,1,1,0,0,1-.53.15A3.91,3.91,0,0,0,98.07,90.39Z"/><path class="cls-6" d="M65.5,82.24a19.75,19.75,0,0,0-2.62-1.88A4.93,4.93,0,0,0,59,79.72c-.61.19-1.4.18-1.5-.7s.59-1,1.21-1.06C61.25,77.53,64.33,79.36,65.5,82.24Z"/><path class="cls-13" d="M111.84,90.41c-.33,0-.43-.26-.55-.47a3.18,3.18,0,0,0-3.09-1.68,2.87,2.87,0,0,1-1-.09,1.42,1.42,0,0,1-.86-1.66c.08-.74.71-.65,1.24-.61a5.15,5.15,0,0,1,4.27,3.36C112,89.69,112,89.69,111.84,90.41Z"/><path class="cls-6" d="M45.76,79.42a6.84,6.84,0,0,1,7.12-3.26c.59.13,1.27.44,1.13,1.14s-.9.83-1.47.61c-2.26-.89-4.09.06-5.91,1.19C46.37,79.26,46.17,79.65,45.76,79.42Z"/><path class="cls-14" d="M70.09,137.58a5.37,5.37,0,0,1,1.53-3.6,7.24,7.24,0,0,1,1.84-1.65.67.67,0,0,1,.64-.12c.32.14.25.44.21.68-.09.47-.06,1-.51,1.32A12.44,12.44,0,0,0,70.09,137.58Z"/><path class="cls-15" d="M82.64,137.12A17,17,0,0,0,79,133.91c-.64-.4-.64-1.13-.58-1.82,0-.47.39-.41.66-.22A7.35,7.35,0,0,1,82.64,137.12Z"/><path class="cls-16" d="M112.92,94.5a24.1,24.1,0,0,1,5.22,9.68,40,40,0,0,1,1.56,18.59c-.73,4.44-2.34,8.51-5.76,11.66-.23.2-.4.46-.73.51-.58.06-.53-.4-.58-.73s-.09-.74-.45-1a2,2,0,0,1-.73-1.82c0-1.85,0-3.7,0-5.55,0-2.07-.85-2.87-2.92-2.9a6.12,6.12,0,0,0-2.12.26,3.35,3.35,0,0,1-2.23,0,4,4,0,0,0-3,.1,2.33,2.33,0,0,1-1.76.07,5.16,5.16,0,0,0-2-.17c-1.06,0-1.4.59-1,1.58,1.22,2.73.84,5.53.26,8.31-.25,1.22-.22,1.42,1,1.45.57,0,1.14,0,1.71,0s.94-.4.76-1.05c-.63-2.27-.26-4.59-.28-6.88,0-1.16.63-1.73,1.56-1.68s1.32.48,1.33,1.71c0,2.08,0,4.16,0,6.24,0,1.67,0,1.68,1.73,1.68a8.83,8.83,0,0,0,1.36,0c.6-.1.83-.54.46-1-1-1.09-.81-2.39-.81-3.66,0-1,0-2,0-3,.06-.73.18-1.45,1-1.8a2.44,2.44,0,0,1,1.66.11,1.89,1.89,0,0,1,.51,1.66c0,2,0,4.06,0,6.09a2.75,2.75,0,0,0,.3,1.64c.55.68,1.32.27,2,.4.45.09,1.1-.2,1.27.56-2.87,2-6.15,2.45-9.51,2.17-4.88-.41-9.07-2.27-11.84-6.54A20.1,20.1,0,0,1,88,120.69,38.09,38.09,0,0,1,94.81,98a3.23,3.23,0,0,0,.18-.28,1.75,1.75,0,0,1,.78,1.81,3.64,3.64,0,0,0,2.35,4.07,4.52,4.52,0,0,0,5.23-1.93,11.89,11.89,0,0,0,1.2-3.13,12.4,12.4,0,0,0,1.37,3.36,4.41,4.41,0,0,0,5.9,1.26c1.32-.82,1.52-2.15,1.55-3.56,0-.53-.41-1.16.41-1.55.27-.13.06-.65-.11-.94-.39-.68-.82-1.35-1.23-2C112.28,94.6,112.32,94.3,112.92,94.5Z"/><path class="cls-17" d="M107.17,102.32a3.11,3.11,0,0,0,1.12-3.73c-.21-.54-.48-1.08-1.14-1.12s-1,.55-1.26,1.11c-.12.27-.18.56-.33,1a11.46,11.46,0,0,1-.6-3.48c0-.58.32-.69.73-.83A6.3,6.3,0,0,1,112,97.12a4.67,4.67,0,0,1,0,5.1C111,103.36,108.85,103.45,107.17,102.32Z"/><path class="cls-18" d="M103.48,99.59c-.09-.31-.15-.6-.26-.88-.22-.61-.49-1.25-1.28-1.23s-1,.71-1.22,1.31a2.94,2.94,0,0,0,1.25,3.48,3.81,3.81,0,0,1-4,.57c-1.24-.48-1.5-1.63-1.63-2.85-.35-3.12,3.11-5,5.54-4.9,2.27.11,2.51.38,2.12,2.64A5.08,5.08,0,0,1,103.48,99.59Z"/><path class="cls-19" d="M107.47,93.14c2.37-.07,3.7,1.34,4.9,2.93.09.12.16.28,0,.4s-.35,0-.48-.13A5.78,5.78,0,0,0,110,95a6.72,6.72,0,0,0-4.2-.34c-.24,0-.61.35-.78-.06a.72.72,0,0,1,.37-.87A3.35,3.35,0,0,1,107.47,93.14Z"/><path class="cls-20" d="M97.46,95.2a5,5,0,0,1,5.6-1.84,2,2,0,0,1,1,.58c.17.22.31.47.15.71s-.42.1-.63,0a6.61,6.61,0,0,0-5.85,1.19C97.21,95.79,97.31,95.5,97.46,95.2Z"/><path class="cls-21" d="M106.64,91.14a3.81,3.81,0,0,0-2,2.34c-.65-.83-1-1.77-1.87-2.27a1.41,1.41,0,0,1,1.09-.38,15.48,15.48,0,0,1,2.26-.07C106.34,90.76,106.62,90.75,106.64,91.14Z"/><path class="cls-22" d="M112.92,94.5c-.35,0-.48.23-.48.56L109,91.71l.19-.23A10.5,10.5,0,0,1,112.92,94.5Z"/><path class="cls-23" d="M112.42,133.12c.6,0,.47.46.5.81s-.14.77.28,1a2.11,2.11,0,0,1-.93.68c-.77-.52-1.64-.15-2.46-.27-.36,0-.84.19-1-.39.48-.53,1.12-.34,1.69-.35C112.1,134.56,112.1,134.58,112.42,133.12Z"/><path class="cls-24" d="M109.12,92.68a13.33,13.33,0,0,0-3.34.09C106.54,91.41,107.68,91.32,109.12,92.68Z"/><path class="cls-25" d="M100,92.72c1.32-1.36,2.43-1.34,3.31,0A16,16,0,0,0,100,92.72Z"/><path class="cls-26" d="M101.29,99.31c0-.43,0-.94.59-.93s.55.44.55.83,0,.93-.53,1S101.34,99.7,101.29,99.31Z"/><path class="cls-27" d="M107.74,99.25c0,.39.07.93-.53.93s-.55-.54-.56-.92.06-.91.62-.88S107.69,98.9,107.74,99.25Z"/><path class="cls-28" d="M106.64,91.14c-.89-.59-1.9-.11-2.82-.31a6.22,6.22,0,0,1,3.79.07C107.28,91.19,106.94,91.09,106.64,91.14Z"/><path class="cls-29" d="M97.46,95.2c0,.25,0,.51.22.69a4,4,0,0,1-1.34,1A3.91,3.91,0,0,1,97.46,95.2Z"/><path class="cls-30" d="M64.56,29.79a21.62,21.62,0,0,1,6.18,5.64,19.45,19.45,0,0,1-3.18,26.11.9.9,0,0,1-.21.08c-.68.32-1.27.47-1.18-.64,0-.2,0-.35-.24-.37-.63,0-.58-.35-.41-.84.28-.78,0-1.06-.87-1-.64,0-1.33.41-1.86-.29-.32-1.82,0-3.69-.53-5.47,0-.15,0,0,0-.11C62,51.25,62,51.21,63.8,51.52a2.77,2.77,0,0,0-1.56-.1c-.73.14-.91-.14-.71-.79a2.87,2.87,0,0,1,1.36-.73A8,8,0,0,0,64,49.41c-3.71,1.52-7.68,1-11.65-.07a3.79,3.79,0,0,1-.38-.32,4.62,4.62,0,0,0-2.84-.28.66.66,0,0,0-.6.6c-.05.24,0,.47.29.5s.33-.12.32-.35c-.05-.61.28-.91.82-.73A1.77,1.77,0,0,1,51.24,50c0,.3-.32.36-.56.45-.75.34-1.75.25-2.14,1.22-1.41-.05-1.78.81-1.78,2a.45.45,0,0,1-.5.37c-.34,0-.49-.32-.62-.6s.09-.72-.08-1.11a2.51,2.51,0,0,0-.84,1.34c0,.48-.09,1.13.75.64.43-.25.78-.25,1,.26a.73.73,0,0,1,0,.36,5.24,5.24,0,0,0-.24,4.42c.34,1.23.05,2.63.58,4,.26.64-.51.74-1.09.51a17.49,17.49,0,0,1-8-8,19,19,0,0,1-.06-18.14,17.68,17.68,0,0,1,8.77-8.43c.31-.14.49-.51.89-.43.38-.11.35.17.38.4a25.75,25.75,0,0,1-2.77,3.85c-.18.19-.47.44-.38.66.61,1.42.12,3.06,1.06,4.45a4.83,4.83,0,0,0,7,.94,4.71,4.71,0,0,0,1.7-3.1c.12-.51.24-1.22.77-1.24s.51.78.68,1.23.24.86.43,1.26a5.17,5.17,0,0,0,2.73,2.71c2.38,1,6-.62,6.34-3.5A20.25,20.25,0,0,1,65.57,34a.74.74,0,0,0-.2-.73c-1.15-1.09-1.77-2.62-3.05-3.61-.28-.23-.7-.6-.44-.91s.74-.05,1.06.21h0A3.3,3.3,0,0,1,64.56,29.79Z"/><path class="cls-31" d="M62.52,52.79c.57,1.43.32,2.93.38,4.4L63,58.64c.49.56.31,1.24.34,1.88a4.69,4.69,0,0,0,.07.92c.49.77,1.22,1.49.5,2.5l-.1.14a12.37,12.37,0,0,1-3.49.07c-.93,0-1-.74-1-1.46,0-2.08,0-4.16,0-6.24a4,4,0,0,0-.11-1.24.81.81,0,0,0-.91-.68.71.71,0,0,0-.72.73c.1,2.31-.6,4.67.49,6.91a1.27,1.27,0,0,1-1.15,2c-3.91.12-3.47.15-3.49-3.11V56.28a3.25,3.25,0,0,0-.13-1.12.8.8,0,0,0-.86-.6.72.72,0,0,0-.75.71c0,2.28-.51,4.59.4,6.83.56,1.38-.08,2.27-1.55,2.17-.75,0-1.51,0-2.27-.09-1.3-.07-1.91-1.07-1.22-2.18a3.53,3.53,0,0,0,.48-2.15c0-.84,0-1.67,0-2.5,0-1.11.2-2.24-.5-3.29a2.41,2.41,0,0,1-.16-1.55c.07-.53.28-.83.88-.81,1.19,0,2.38-.48,3.57,0,.28.12.6,0,.88-.16a4.09,4.09,0,0,1,1.66-.32c1-.09,1.86.42,2.83.41a12.34,12.34,0,0,1,3.58-.39A2.56,2.56,0,0,1,62.52,52.79Z"/><path class="cls-32" d="M53.9,51.56a.91.91,0,0,1-.23,0c-1-.11-1.94,1-2.68.57-1-.58-1.8-.18-2.68-.31-.41-.07-1.11-.34-1.27.3s-.36,1.53.21,2a1.72,1.72,0,0,1,.56,1.49V60.1a2.41,2.41,0,0,1-.65,2.07,1.35,1.35,0,0,0-.11,1.5c.18.46.65.25,1,.27.86,0,1.73.05,2.6,0,.39,0,1,.19,1.09-.32s.29-1.13-.12-1.51a2,2,0,0,1-.5-1.65c0-1.55,0-3.1,0-4.65,0-.91.08-1.71,1.24-1.75.9,0,1.29.51,1.3,1.81,0,2.35,0,4.69,0,7,0,.78.17,1.11,1,1s1.44,0,2.16,0c.34,0,.87.21,1-.27s.37-1.19-.2-1.57A1.4,1.4,0,0,1,57,60.74v-5.1c0-.93.33-1.59,1.34-1.6s1.2.8,1.2,1.65c0,2.46,0,4.91,0,7.37,0,.68.17.94.88.92a15.35,15.35,0,0,1,3.39.11c-5.85,3-11.72,2.83-17.61.13a2.19,2.19,0,0,1-.46-.34c.32-.06.74.14.88-.31a.93.93,0,0,0-.27-1A1.41,1.41,0,0,1,46,60.44a.92.92,0,0,0,0-1,3.9,3.9,0,0,1,.34-4.68,1.15,1.15,0,0,0,.31.11c-.1,0-.21-.06-.31-.11-.36-.68-.72-.38-1,0-.44.62-.64.25-.86-.17-.47-.92,0-1.57.62-2.18.21-.21.07-.85.55-.67s.45.65.19,1.07,0,.65.16.93c.08.13.23.23.38.1a.88.88,0,0,0,.19-.85c-.15-1.08.16-1.68,1.38-1.45.32,0,.64,0,.39-.47-.13-.26.17-.43.39-.41.83.1,1.4-.7,2.34-.49-.21-.58-.67-.75-.94-1.07a.53.53,0,0,0-.7-.2c-.44.24,0,.42.06.63s0,.63-.42.64-.89.14-1-.42A1.15,1.15,0,0,1,49,48.46l.17,0c.76,0,1.51,0,2.27,0,.33,0,.62,0,.67.44a.67.67,0,0,1-.15.14c-.15.1-.34,0-.48.09a2.39,2.39,0,0,1,.48.19,18.22,18.22,0,0,0,8.52,1.21c.41,0,.83-.15,1.16.21,0,.35,0,.68.55.54a8.08,8.08,0,0,1,1.56-.09c.27,0,.55,0,.68.27,0,.07,0,.21-.1.3-.19.27-.43.24-.68.09a2.13,2.13,0,0,0-1.39-.17c.08.4.4.74.28,1.15-1.25-1.54-2.92-1.29-4.57-1.07-.44.06-.87.19-1.31.29,0-.27.08-.57-.41-.63A3.91,3.91,0,0,0,53.9,51.56Z"/><path class="cls-33" d="M54.59,36.17a5,5,0,0,1-5,4.48,4.84,4.84,0,0,1-5-4.73,2.51,2.51,0,0,0-.31-1.63.64.64,0,0,1,0-.84c1.29-1.21,1.92-2.94,3.26-4.1.22-.2.34-.47.59-.66s-.19-.11-.15-.25c.59-1.06,1.12-.22,1.67,0-.2.81-1,1.08-1.48,1.63s-1,1.2-1.63,1.82c2.23-.85,4.49-.63,6.72-.57.85,0,1-.22.76-.95a3.53,3.53,0,0,0-.93-1.51c-.27-.25-.64-.44-.6-.89.1-.64.36-1,1.13-1,.93.08,1.86,0,2.8,0,.61,0,1.21.13,1.33.91a13,13,0,0,1-2.08,2.43.71.71,0,0,1-.46-.14c-.17-1.16.56-1.87,1.35-2.65-1-.06-2.07-.06-3.11,0,1.25.83,1.4,2,2,3a6,6,0,0,1-.53,2,1.32,1.32,0,0,1-1.19.08c-2.78-.62-5.42.13-8.06.82.68.13,1.32-.37,2-.15.39.33,0,.47-.17.63s-.5.13-.6.41c-.42.44-1.36.3-1.39,1.15a4,4,0,0,0,.83,2.74,4.23,4.23,0,0,0,7.16-1.15c.22-.49.2-1.13.79-1.43C54.54,35.71,54.4,36.05,54.59,36.17Z"/><path class="cls-34" d="M52.5,28a4.23,4.23,0,0,1,2,3.11c0,.33.16.76-.43.64a21.78,21.78,0,0,0-4-.17c-1.32,0-2.5.5-3.92.56a12.64,12.64,0,0,1,3.46-3.66C50.59,28.23,51.45,27.56,52.5,28Z"/><path class="cls-35" d="M55.74,30.28a5.54,5.54,0,0,1,2-2.27,5.3,5.3,0,0,1,2.72.45,6.38,6.38,0,0,1,3,2.45c.25.33.47.75.18,1.15a.88.88,0,0,1-1,.23,20.36,20.36,0,0,0-6.08-.3c-.78,0-1.17-.17-1.06-1A.9.9,0,0,1,55.74,30.28Z"/><path class="cls-33" d="M55.67,31c0,.57,0,.82.8.75a17.22,17.22,0,0,1,6.15.28c.3.09.74.27.93,0s-.13-.61-.31-.9a15.12,15.12,0,0,0-2.77-2.59h1.78c.35,0,.7,0,.7.49l-1.17-.18c1.71,1.22,2.48,2.92,3.76,4.2.29.29.54.63.39,1a17,17,0,0,0-.43,3c-.46,2-2.18,3.39-4.73,3.69-1.87.23-3.75-1-4.77-3.12a.53.53,0,0,1,.57-.27c.5.31.7.87,1.11,1.27a4.26,4.26,0,0,0,4.93.73,3.81,3.81,0,0,0,2.11-3.81.71.71,0,0,0-.24-.6c-.29-.23-.66-.19-1-.28a.65.65,0,0,1-.34-.27c0-.41-1-.33-.49-1,.66-.18,1.25.22,1.89.15-2.38-.64-4.77-1.36-7.3-1a3.35,3.35,0,0,1-1.66.15C54.91,31.69,54.91,31.69,55.67,31Z"/><path class="cls-32" d="M63.88,63.93c-.1-.85,0-1.78-.85-2.34.38-.39.8-.1,1.28,0-.38-.54-1-.53-1.35-.93a7.74,7.74,0,0,1,0-2c.45,0,.9,0,1.35-.11s1.16-.33,1.63.33,0,1-.39,1.39c.49.48.75-.34,1.16-.11-.53,1.49-.53,1.49.65,1.48A6.31,6.31,0,0,1,65.5,63c-.4-.09-.92-.42-.86.44A1,1,0,0,1,63.88,63.93Z"/><path class="cls-30" d="M64.63,63.44c-.21,0-.49-.08-.42-.38a.58.58,0,0,1,.48-.54c.39-.05.75,0,.8.48A.94.94,0,0,1,64.63,63.44Z"/><path class="cls-36" d="M48,28.44l.88-.16a3.12,3.12,0,0,1-1.32,1.07.48.48,0,0,0-.26-.45Z"/><path class="cls-33" d="M64.56,29.79a4.63,4.63,0,0,1-1.62-.87A1.32,1.32,0,0,1,64.56,29.79Z"/><path class="cls-37" d="M87.44,145.82a41.35,41.35,0,0,1,3.13,5.83,36.38,36.38,0,0,1,2.81,18.59c-.58,4.6-2.16,8.8-6.17,11.5-5.4,3.63-11.21,4.22-17.14,1.32-3.39-1.65-5.4-4.63-6.78-8a30.42,30.42,0,0,1-1.82-14.14,38,38,0,0,1,4.4-15.79,17.82,17.82,0,0,1,4.35-5.45c3.14-2.51,6.55-3.09,10.2-1.08.32.13.45.49.09.51-1.89.16-2.67,1.57-3.54,2.92,0,0-.07,0-.1,0-.64-.1-.7-.68-1-1.12a2.76,2.76,0,0,0-4.06-.89,10.24,10.24,0,0,0-3.41,4,12.48,12.48,0,0,0-.91,1.92,1,1,0,0,1-.12.32c-.85,1-.58,2.07-.13,3.15a4.23,4.23,0,0,0,2.58,2.4,4.77,4.77,0,0,0,6.27-2.86c.12-.36.22-.72.35-1.08s.14-.74.56-.76.48.4.58.72a10,10,0,0,0,.69,1.66,2.91,2.91,0,0,0,1.41,1.42,5.18,5.18,0,0,0,5.55-.06c1.57-1,1.94-2.36,1.43-4.36C86.83,146.13,86.78,145.57,87.44,145.82Z"/><path class="cls-38" d="M81.59,139.86a11.69,11.69,0,0,1,2.92,2.78A7.88,7.88,0,0,1,86.15,145c.16.45.39.91-.07,1.33a11.1,11.1,0,0,1-2.47-.65,11.9,11.9,0,0,0-5-.49,2.31,2.31,0,0,1-1.22-.11.55.55,0,0,1-.31-.44,1.16,1.16,0,0,1,0-.37,13.88,13.88,0,0,1,.38-2.76C78.26,139.49,79.68,138.89,81.59,139.86Z"/><path class="cls-39" d="M81.59,139.86c-2.43-.63-3.93.51-4.11,3.07,0,.51.13,1-.18,1.54-.64-.73-.07-1.7-.48-2.47.45-.68.57-1.54,1.23-2.1a2.93,2.93,0,0,1,2-.94c.22,0,.59.08.38-.38C81.32,138.53,80.93,139.68,81.59,139.86Z"/><path class="cls-40" d="M86.13,146.27a4.8,4.8,0,0,0-1-2.56l-.6-1.06c.7.58,1.83.66,2.09,1.77-.1.5.52.85.29,1.39-.42.29-.19.85-.5,1.18a.37.37,0,0,1-.52-.11l0,0A.63.63,0,0,1,86.13,146.27Z"/><path class="cls-41" d="M86.75,145.82c.19-.5-.69-.87-.16-1.4l.85,1.4c-.47,0-.33.5-.57.68A.46.46,0,0,1,86.75,145.82Z"/><path class="cls-42" d="M73.72,103.62c.07,4.63-.94,8.92-3.91,12.61a18.55,18.55,0,0,1-9.58,5.92c-8.67,2.57-17.81-2.51-21.29-9.09a19.81,19.81,0,0,1-2.15-10.72,24.61,24.61,0,0,1,3.68-12c2.9-4.57,6.74-7.92,12.19-9.09a12.65,12.65,0,0,1,7.72,1.19C68.93,86.14,73.7,93.72,73.72,103.62Z"/><path class="cls-43" d="M118.44,55.84a26.26,26.26,0,0,1-2.58,12.69,16.35,16.35,0,0,1-22.93,6.63,17.05,17.05,0,0,1-8.61-12.29c-1.28-7-.64-13.73,3.12-19.9,2.63-4.33,6.38-7.36,11.53-8a16.66,16.66,0,0,1,18,11.2A27.86,27.86,0,0,1,118.44,55.84Z"/><path class="cls-31" d="M112.42,133.12c.47,1.57.31,1.78-1.26,1.79-.78,0-1.57,0-2.35,0s-.39-.65-.39-1q0-3.62,0-7.25a2,2,0,0,0-.29-1.29,1.35,1.35,0,0,0-1.59-.05A1.73,1.73,0,0,0,106,127q0,2.1,0,4.2c0,.77-.15,1.55.77,2.07.41.23.29.91.14,1.38s-.56.31-.87.32c-3.43.15-3.43.15-3.43-3.24,0-1.74,0-3.48,0-5.22,0-1-.53-1.26-1.31-1.28s-1.07.56-1.07,1.3c0,1.89,0,3.78,0,5.67,0,.72.66,1.16.6,1.91,0,.59-.14.91-.82.88-.91,0-1.82,0-2.72,0-1.15,0-1.65-.56-1.07-1.49.8-1.28.6-2.61.64-3.94,0-.87,0-1.74,0-2.61a2.11,2.11,0,0,0-.55-1.65,1.93,1.93,0,0,1-.19-2c.24-.66.93-.36,1.43-.33.84,0,1.72-.23,2.49.4.26.2.64,0,1-.19a3.65,3.65,0,0,1,3.44-.11,2.72,2.72,0,0,0,2.09-.12,6.2,6.2,0,0,1,3.36-.14,2.33,2.33,0,0,1,2,2.45c.08,2.15.06,4.32.06,6.47C111.82,132.23,111.81,132.8,112.42,133.12Z"/><path class="cls-44" d="M95.52,109.52a35.81,35.81,0,0,0,5.63,2A9.68,9.68,0,0,0,111,108.4a4.86,4.86,0,0,0,.62-.93c.24-.42.52-.7-.15-1a.55.55,0,0,1-.27-.46c0-.3.34-.21.54-.22a2.31,2.31,0,0,1,2.26,1.37c.07.22.23.8-.25.55-.93-.48-.74.25-.78.63a19.19,19.19,0,0,1-1.15,5.28c-2.11,5.55-7.2,6.68-11.55,2.6a18.26,18.26,0,0,1-4-5.54A12.55,12.55,0,0,0,95.52,109.52Z"/><path class="cls-45" d="M112.27,115.89c-.49,4.56-6,6.6-10.16,3.71C106.38,120.76,110.11,120.47,112.27,115.89Z"/><path class="cls-46" d="M106.53,125.35c.55-.75,1.08-.61,1.59.05Z"/><path class="cls-47" d="M63.42,34.35c.39,0,.82-.15,1.15.21a2.15,2.15,0,0,1-1,2.75,2.39,2.39,0,0,1-2.91-.81,4.05,4.05,0,0,1-.75-1.63.86.86,0,0,0-1.07-.73,15.81,15.81,0,0,1-1.68.06c-.84,0-1.17.36-1,1.21a3.16,3.16,0,0,1,.23,1.87.42.42,0,0,1-.4.23c-.4-.32-.31-.83-.47-1.23A10.61,10.61,0,0,1,55.14,35a2.73,2.73,0,0,0-.55,1.21c-.2-.1-.23-.29-.26-.48-.37-.33-.06-.79-.28-1.24a6.22,6.22,0,0,0-.49,1.36A2.72,2.72,0,0,1,51,37.48a2.36,2.36,0,0,1-1.93-2.29c-.05-.91-.38-1.12-1.19-.89a.92.92,0,0,1-.95-.17c0-.55.7-.27.86-.66A8.74,8.74,0,0,1,52.63,33c.75.08,1.51.25,2.12-.39-.13-.79.42-1.42.48-2.17-.06-.09,0-.15.06-.19l.45,0c0,.23-.05.45-.07.68-.51.49-.34,1.06-.17,1.62a1.81,1.81,0,0,0,1.87.44,13.76,13.76,0,0,1,4.48.14.8.8,0,0,1,.68.34c.14.3.71.15.66.64a.8.8,0,0,1-.37.23c-.29.08-.62.12-.57.55a.36.36,0,0,0,.29.3c.39.08.51-.23.63-.5A1.24,1.24,0,0,1,63.42,34.35Z"/><path class="cls-48" d="M65.92,45.23c-3,2.5-6.5,2.56-10.05,2.17a28,28,0,0,1-7-1.74c-.19-.54.08-.56.48-.43,4.34,1,8.67,2.1,13.17,1a9.59,9.59,0,0,0,3.15-1.4c.15-.14.34-.15.43,0S66.09,45.14,65.92,45.23Z"/><path class="cls-49" d="M61.61,50.7a18.6,18.6,0,0,1-9.18-.89,3,3,0,0,1-.84-.46c0-.55.41-.33.7-.27,4.29,1.08,8.57,1.69,13-.6A3.43,3.43,0,0,1,63.5,50,18.89,18.89,0,0,1,61.61,50.7Z"/><path class="cls-50" d="M49.4,45.23c-.26,0-.48.12-.49.43a10.62,10.62,0,0,1-3-1.26A8,8,0,0,1,49.4,45.23Z"/><path class="cls-51" d="M67.46,42.81c-.45-.15-.61-.37-.14-.69a1.15,1.15,0,0,1,.55-.07c.59,0,1.25.22,1.2.75-.07.7-.73,0-1.11.18S67.64,42.84,67.46,42.81Z"/><path class="cls-52" d="M67.46,42.81,68,43a5.26,5.26,0,0,1-2,2.24c.14-.25.15-.43-.22-.42C66.22,44.07,67.27,43.81,67.46,42.81Z"/><path class="cls-53" d="M52.3,49.09c-.23.07-.54,0-.7.27a.73.73,0,0,1-.73-.64l1.21.15Z"/><path class="cls-30" d="M53.9,51.56c.32-.67,1-.58,1.52-.59a9.57,9.57,0,0,1,1.74.29c.07.43-.45.43-.53.75C55.63,52.37,54.86,51.38,53.9,51.56Z"/><path class="cls-30" d="M63,60.68a2.66,2.66,0,0,1,1.57.58.47.47,0,0,1,.2.64s0,0,0,0c-.23.37-.46.13-.63-.07a1.27,1.27,0,0,0-1-.29A1.13,1.13,0,0,1,63,60.68Z"/><path class="cls-30" d="M47.53,60.7a.78.78,0,0,1-.57.77c-.32.09-.33-.22-.31-.44a.76.76,0,0,1,.61-.7C47.5,60.29,47.51,60.55,47.53,60.7Z"/><path class="cls-30" d="M46.41,54.78c.43-.26.77-.21,1,.36A.7.7,0,0,1,46.41,54.78Z"/><path class="cls-1" d="M46.92,34.15l2.31-.25c.24.27.06.53,0,.76a2.26,2.26,0,0,0,1.67,2.59,2.63,2.63,0,0,0,2.49-1.73c.23-.51-.37-1.68.75-1.45.83.18-.06,1.07.15,1.62a20.55,20.55,0,0,1-1.11,2.44,4.42,4.42,0,0,1-5.41,1.55,4.23,4.23,0,0,1-2.66-4.51.64.64,0,0,1,.59-.66C46.14,34.42,46.53,34.27,46.92,34.15Z"/><path class="cls-54" d="M54.75,32.62c.14.77-.31.9-.92.81a22.29,22.29,0,0,0-6,.06,16.58,16.58,0,0,0-2.43.48c-.18,0-.38.11-.48-.13s0-.35.23-.46a2.46,2.46,0,0,1,.56-.34C48.67,32.34,51.67,31.57,54.75,32.62Z"/><path class="cls-55" d="M55.29,30.26a.22.22,0,0,0-.06.19c-.48-.13-.4-.6-.54-.92a5.56,5.56,0,0,0-1.65-2,11.51,11.51,0,0,1,4.26,0A4,4,0,0,0,55.29,30.26Z"/><path class="cls-56" d="M56.4,37.28c-1-3.28-1-3.28,2.35-3.5.86-.05,1.47,0,1.44,1.16a2.34,2.34,0,0,0,1.21,1.92,1.88,1.88,0,0,0,3.05-1.19,8.34,8.34,0,0,0,.11-1.11A.43.43,0,0,1,65,35a4.29,4.29,0,0,1-2.34,4.59,4.45,4.45,0,0,1-5.58-1.26C56.84,38,56.63,37.62,56.4,37.28Z"/><path class="cls-57" d="M62.52,33.49a21.21,21.21,0,0,0-6.06-.06c-.62.11-1.16,0-1-.86,3.06-.95,6-.24,9,.46a1.34,1.34,0,0,1,.47.28c.17.13.44.25.33.52s-.38.14-.59.1C64,33.79,63.25,33.65,62.52,33.49Z"/><path class="cls-58" d="M63.42,34.35a3.53,3.53,0,0,1-.05.56c-.12.45-.26.94-.87.8s-.67-.65-.67-1.15c0-.74.54-.42.9-.44h.45Z"/><path class="cls-59" d="M76.14,177.25c0-1.29,0-2.58,0-3.86,0-.88-.37-1.4-1.24-1.42s-1.3.49-1.3,1.36v5.57a1.19,1.19,0,0,0,.41,1c.56.48.35,1.15.22,1.69s-.7.25-1.08.26q-1.31,0-2.61,0c-.35,0-.86.23-1-.25s-.34-1.23.14-1.61.57-1.09.57-1.73c0-1.36,0-2.72,0-4.08,0-.79.2-1.57-.64-2.25-.45-.36-.27-1.33-.07-2s.89-.34,1.3-.27c.88.14,2-.59,2.66.55.11.17.39-.12.59-.21a4.47,4.47,0,0,1,4-.16,1.33,1.33,0,0,0,1.07.05,8.64,8.64,0,0,1,3.23-.5c2,.16,2.91,1.11,2.92,3.13s0,4,0,6a1.47,1.47,0,0,0,.55,1.4c.53.37.4,1,.26,1.56s-.7.3-1.07.3c-1,0-2.23.42-2.85-.15s-.21-1.93-.23-2.94c0-1.73,0-3.47,0-5.22,0-.81-.11-1.55-1.13-1.62s-1.36.47-1.38,1.62q0,2.33,0,4.65c0,.69-.14,1.39.68,1.88.47.27.26,1,.17,1.48s-.62.28-1,.3c-.83,0-1.66,0-2.49,0-.59,0-.81-.15-.79-.76.05-1.29,0-2.57,0-3.86Z"/><path class="cls-60" d="M86.75,145.82l.12.68a3.6,3.6,0,0,1-1.71,4.76,5.36,5.36,0,0,1-5.64-.19c-.08-.21,0-.31.21-.38a12.32,12.32,0,0,0,3.58.26,3,3,0,0,0,2.42-1.27c.13-.19.33-.42.26-.61-.34-.91-1.31-.72-2-1-.36-.17-.84-.34-1,.25-.33,1-.83,1.78-2,1.71a2.75,2.75,0,0,1-2.23-1.85.79.79,0,0,0-.55-.53c-.21.63.28,1.14.32,1.68,0,.23-.07.48-.42.39A9.11,9.11,0,0,1,77,147.21c-.61,2-1.26,4-3.46,4.81a5.6,5.6,0,0,1-4,0,4.89,4.89,0,0,1-2.69-2.72,3.32,3.32,0,0,1,.4-3.51c.18-.34.43-.3.71-.15,1.36-.09,2.62-.68,4-.89a5.93,5.93,0,0,1,3.34.08c.44.69-.14.72-.55.78a13,13,0,0,0-2.07.16c-1.63.56-3.43.61-4.89,1.68.68-.11,1.31-.37,2-.54a17.22,17.22,0,0,1,5.16-.51c.73,0,1.08-.23.85-1,.32-.76.88-.85,1.57-.56a18.63,18.63,0,0,1,6.13.47c.89.28,1.76.61,2.64.94a.47.47,0,0,1-.24.45c-.42.29-.8,0-1.18-.1a16.85,16.85,0,0,0-5.67-1c-.35,0-.76-.09-1.09.36a13.9,13.9,0,0,0,2.91.27,26,26,0,0,1,4.54.95c.36.11.75.29.93-.25C86.58,146.64,85.88,145.94,86.75,145.82Z"/><path class="cls-10" d="M69.57,161a9.52,9.52,0,0,1-2-2.73,7.53,7.53,0,0,0-.75-1.25,1.12,1.12,0,0,1,.38-1.62c.19-.06.4-.07.42.2.11,1.48,1.4,1.64,2.38,2a10.44,10.44,0,0,0,7.48-.66c1.86-.78,3.59-1.91,5.66-2.16A2.19,2.19,0,0,1,85,155c-1.9,1.57-2.74,4-4.73,5.42-.42.12-.76-.23-1.16-.21-1.26-.39-2.5,0-3.74.07a8.78,8.78,0,0,1-3.63.41,2.8,2.8,0,0,0-1.32.15l-.3.19A.75.75,0,0,1,69.57,161Z"/><path class="cls-61" d="M67.77,145.84c-.14-.28-.32-.06-.47,0a12.41,12.41,0,0,1,4.38-6,3,3,0,0,1,4.46,1c-.13.16,0,.45-.32.51-.63-.25-.94-1-1.68-1.09a3.21,3.21,0,0,0-3,1.08,15.72,15.72,0,0,0-2.52,3.47C68.45,145.19,68.38,145.76,67.77,145.84Z"/><path class="cls-62" d="M80.29,163.38c-2.17,2.88-6.71,4-8.6,1.93C75,166.52,77.41,164.59,80.29,163.38Z"/><path class="cls-63" d="M79.29,159.93c.44-.12.63.29.94.44-2.42,2.9-7.87,4-10.66.65l.46-.23a1.85,1.85,0,0,1,.86.51c2.27,1.72,5.66,1.2,7.88-.52A2.13,2.13,0,0,0,79.29,159.93Z"/><path class="cls-60" d="M75.9,141.29a.56.56,0,0,1,.24-.47l.68,1.19c.78.7.3,1.65.48,2.47h0c-1.26.38-.84-.75-1.12-1.26C76.16,142.56,75.6,142,75.9,141.29Z"/><path class="cls-64" d="M78.13,149.7a.46.46,0,0,0,.27-.42c.84.15,1.19.77,1.45,1.48l-.33.3A2.42,2.42,0,0,1,78.13,149.7Z"/><path class="cls-39" d="M76.41,143.07c.45.37-.23,1.46.89,1.39l0,.39c-.53.15-1.18,0-1.43.71a3.64,3.64,0,0,1-3.41,0c.71-.45,1.5-.13,2.24-.22.24,0,.7.16.47-.41C76.08,144.6,75.94,143.64,76.41,143.07Z"/><path class="cls-65" d="M86.32,147c.14.25.59.4.38.73s-.52.1-.8,0a20.71,20.71,0,0,0-7.52-1.21c-.39,0-1,.09-1-.49s.56-.62,1-.66a15.82,15.82,0,0,1,6.83,1.17c.2.08.43.13.64.19Z"/><path class="cls-1" d="M59.75,115.68c0-1.29,0-2.57,0-3.86,0-.78-.19-1.43-1.19-1.43s-1.33.57-1.34,1.45c0,1.73,0,3.47,0,5.22a1.42,1.42,0,0,0,.53,1.31c.64.44.49,1.08.34,1.64s-.76.3-1.17.33c-.71,0-1.44,0-2.15,0s-.89-.27-.88-.93c0-2.53,0-5.07,0-7.6,0-1.11-.72-1.63-1.69-1.33a1,1,0,0,0-.77,1.11c0,2,0,3.93,0,5.9,0,.72.75,1,.71,1.72s-.13,1.22-1,1.15-1.81,0-2.72,0c-.38,0-.91.21-1.06-.36s-.27-1.1.18-1.5a1.86,1.86,0,0,0,.56-1.64v-4.31a2.41,2.41,0,0,0-.63-2.16c-.45-.41-.28-1.33-.07-1.95s.83-.31,1.21-.24c.93.17,2-.56,2.83.49.06.08.61-.19.92-.32a4.25,4.25,0,0,1,3.62,0,1.69,1.69,0,0,0,1.41,0,7.6,7.6,0,0,1,3.57-.31A2.39,2.39,0,0,1,63,110.62c0,2,0,4.08,0,6.13a1.92,1.92,0,0,0,.63,1.72c.52.42.33,1.07.2,1.59s-.71.29-1.08.29c-3,0-3,0-3-3v-1.71Z"/><path class="cls-66" d="M55.92,91.6c-.32-.51-.08-1.12-.34-1.71a6.42,6.42,0,0,1-1.41,3.81A5,5,0,0,1,45.85,92c-.33-.94-.23-2.13-1.79-2.34,1.27.25,1.33-.34,1.57-1.25a7.32,7.32,0,0,1,4.13-5A3,3,0,0,1,53,84,7,7,0,0,1,55.5,88.3c.07.35-.08.79.42.94A2,2,0,0,1,55.92,91.6Z"/><path class="cls-67" d="M55.92,91.6V89.24A6,6,0,0,1,58.37,85a3,3,0,0,1,3.6-.12A7,7,0,0,1,65.48,90c.09.66.1.66,1.07.6-1.24.45-1.07,1.59-1.39,2.5a4.87,4.87,0,0,1-5.18,3A4.68,4.68,0,0,1,55.92,91.6Z"/><path class="cls-68" d="M52.3,102c-.23-.36,0-.58.23-.81.54-.86,1.27-1.58,1.86-2.4.09-.12,0,0,.08-.08.56-.5,3.18-.46,3.69.06a1.62,1.62,0,0,1,.39,1.78,11.34,11.34,0,0,0-.62,3.41c0,1.57-1.24,2.2-2.79,1.64A3.42,3.42,0,0,1,54,104.38,10.84,10.84,0,0,0,52.3,102Z"/><path class="cls-69" d="M55.05,105.38c1.61.6,2.58.1,2.65-1.56a13,13,0,0,1,.57-3.28c.4-1.36-.23-1.36-1.38-1.76-2.32-.8-2.8,1.07-3.94,2l-.42.38a8.1,8.1,0,0,1,2.12-3c.46-.43,3.21-.24,3.67.19a2.11,2.11,0,0,1,.39,2.49,8.43,8.43,0,0,0-.5,2.85c-.07,2.1-1.61,2.92-3.46,1.88C54.71,105.44,54.82,105.34,55.05,105.38Z"/><path class="cls-70" d="M55.05,105.38l-.29.3c-1.14-1-1.61-2.47-2.47-3.67C53.62,102.8,54,104.37,55.05,105.38Z"/><path class="cls-71" d="M105.39,69.88c0-1.21,0-2.42,0-3.64,0-.64-.16-1.24-1-1.25a1.17,1.17,0,0,0-1.34,1.21c-.14,1.82,0,3.64,0,5.45a1.14,1.14,0,0,0,.5.85,1.33,1.33,0,0,1,.2,1.48c-.13.48-.63.28-1,.29-2.84,0-2.84,0-2.84-2.77v-5c0-.83-.27-1.44-1.2-1.44s-1.17.64-1.16,1.46c0,1.63,0,3.25,0,4.88A2.47,2.47,0,0,0,98,72.65c.56,1,.15,1.62-1,1.63H94.77c-1,0-1.59-.79-.91-1.59a3.52,3.52,0,0,0,.63-2.54c0-1,0-1.89,0-2.84A2.66,2.66,0,0,0,93.88,65a1.75,1.75,0,0,1-.1-1.84c.21-.5.81-.23,1.24-.25a4.76,4.76,0,0,1,2.33.28c.45.21.84-.09,1.24-.23a3.76,3.76,0,0,1,3.08.05,1.54,1.54,0,0,0,1.31,0,7,7,0,0,1,2.79-.38,2.55,2.55,0,0,1,2.79,2.83c0,1.84,0,3.71,0,5.56,0,.52,0,1,.47,1.42s.34,1,.19,1.48-.65.25-1,.26c-2.84,0-2.84,0-2.84-2.8V69.88Z"/><path class="cls-72" d="M101.31,43.87a5,5,0,0,1,1-2.59.63.63,0,0,0,.18-.61c-.16-.66.34-.92.82-1a6.25,6.25,0,0,1,5.83,1.66c.28.3.59.59.25,1.08s.17.76.34,1.1c1,2,1.36,4,.21,6.05a4.4,4.4,0,0,1-8.16-1.09,19.13,19.13,0,0,1-.48-2.09A2.43,2.43,0,0,1,101.31,43.87Z"/><path class="cls-73" d="M94.32,41a6.44,6.44,0,0,1,4.06-.92c.62,0,1,.3,1.13,1.09s1.14,1.54,1.35,2.51a3.88,3.88,0,0,1,.25,2.74,10.43,10.43,0,0,1-.61,3.32,4.11,4.11,0,0,1-3.7,2.73,4.17,4.17,0,0,1-4-1.91,5.89,5.89,0,0,1-.6-5.42c.23-.74.86-1.42.35-2.3,0-.09.21-.37.32-.55.34-.1.75.1,1-.26a7.92,7.92,0,0,1,4.41-1.22,12.3,12.3,0,0,0-3.51.59C94.56,41.33,94.3,41.31,94.32,41Z"/><path class="cls-74" d="M108.36,54.76c-1.7,1.65-3.68,1.66-5.79,1A12,12,0,0,0,95,56a7.36,7.36,0,0,0-.89.44c-.26,0-.37-.08-.33-.33,2.87-2,6-1.93,9.15-1a5.75,5.75,0,0,0,4.94-.54C108.13,54.43,108.35,54.37,108.36,54.76Z"/><path class="cls-75" d="M97.5,36.83c.36.07.74-.1.88.27s-.2.6-.48.77c-1.11.65-2.21,1.3-3.33,1.93-.24.13-.55.35-.83.08s0-.58.11-.81A4.76,4.76,0,0,1,97.5,36.83Z"/><path class="cls-76" d="M106,39.08a3.56,3.56,0,0,1-3-1.73.62.62,0,0,1-.08-.74c.18-.23.47-.12.72,0,1,.41,2,.8,3,1.22.33.14.83.19.77.69s-.53.45-.89.54A3.27,3.27,0,0,1,106,39.08Z"/><path class="cls-77" d="M97,57.88c2-1.47,6.6-1,8.55,1A18.29,18.29,0,0,0,97,57.88Z"/><path class="cls-78" d="M108.36,54.76l-.48-.22a5.38,5.38,0,0,1,2-.84c.29-.08.8.09.68-.58-.05-.3.35-.23.52-.16a3.4,3.4,0,0,1,.93.61c.27.27.81.6.46,1s-.7-.12-.93-.36c-.55-.54-1.06-.15-1.58,0S109,54.74,108.36,54.76Z"/><path class="cls-79" d="M94.32,41l.49.23c0,.65-.88.55-1,1.14-.38.68-.66.14-1-.09A2.7,2.7,0,0,1,94.32,41Z"/><path class="cls-80" d="M93.79,56.08l.33.33-1.94,1.26A3.2,3.2,0,0,1,93.79,56.08Z"/><path class="cls-81" d="M101.12,46.39c-.09-.91-.17-1.82-.25-2.74l.45.22c0,.84,0,1.67.05,2.51Z"/><path class="cls-82" d="M105.75,118.05c-.52-.12-1.25-.26-2-.45-.49-.14-.51-.47-.23-.87,1-1.41,2.15-2.55,4-2.48a1.19,1.19,0,0,0,1.18-.68,4.53,4.53,0,0,1,2.09-1.65c.32-.16.67-.2.7.36C111.68,114.76,108.5,118.06,105.75,118.05Z"/><path class="cls-83" d="M52.48,34.77c-.13.45-.18,1-.85.95s-.69-.69-.69-1.23.19-.75.75-.71S52.51,34.18,52.48,34.77Z"/><path class="cls-84" d="M76.41,143.07a4,4,0,0,0,0,.69c.18,1-.28,1.29-1.18,1.17a16.22,16.22,0,0,0-6.85,1.14c-.29.1-.57.34-.61-.23a19.77,19.77,0,0,1,3.46-5,2.85,2.85,0,0,1,4.68.4C76.07,141.88,76.24,142.48,76.41,143.07Z"/><path class="cls-18" d="M71.52,151.74c-2,0-3.46-.88-4-2.37-.17-.48-.18-.84.46-1s1-.34,1.5-.49c.87-.25,1.78-.73,1.91.87a1.31,1.31,0,0,0,1.51,1.1c1-.1,1.5-.89,1.84-1.77.11-.29-.14-.76.31-.87a1.53,1.53,0,0,1,1,0c.34.16.1.55,0,.81A4.27,4.27,0,0,1,71.52,151.74Z"/><path class="cls-85" d="M79.85,150.76l-1.44-1.48c-.4-.33-.39-.85-.57-1.27-.1-.25-.35-.77.26-.87.43-.08.77-.06.83.56a2.4,2.4,0,0,0,.91,1.52,1.77,1.77,0,0,0,1.76.48,1.44,1.44,0,0,0,1.05-1.46c0-.82.31-.83.91-.62.81.27,1.63.54,2.47.75.54.14.52.4.33.81a3.43,3.43,0,0,1-1,1.34A5.66,5.66,0,0,1,79.85,150.76Z"/><path class="cls-86" d="M72.51,145.57h3.4c.27.2.63.38.42.8s-.57.33-.91.31a17.2,17.2,0,0,0-7.7,1.29c-.23.09-.47.15-.6-.08s.06-.5.28-.66a12.58,12.58,0,0,1,4-1.42C71.77,145.7,72.15,145.65,72.51,145.57Z"/><path class="cls-87" d="M80,148.5c-.49-.1-.64-.47-.68-.91s.18-.64.59-.57.81-.06.76.55A.92.92,0,0,1,80,148.5Z"/><path class="cls-88" d="M73,147.92c-.06.45-.17.87-.71.84s-.53-.48-.57-.85c-.08-.69.5-.51.85-.58C73.07,147.25,73,147.65,73,147.92Z"/><path class="cls-89" d="M79.29,159.93c.18.28.45.52,0,.85-2.26,1.76-5.32,2.61-8,1.19A3.1,3.1,0,0,1,70,160.8h0c1.12-.65,2.33-.29,3.5-.33a2.6,2.6,0,0,0,1.74-.56C76.59,159.83,78,159.37,79.29,159.93Z"/><path class="cls-63" d="M75.25,159.91a1,1,0,0,1-1.23.67,12.27,12.27,0,0,0-4,.22c.26-.6.8-.43,1.27-.46C72.62,160.25,74,160.54,75.25,159.91Z"/><path class="cls-90" d="M47.43,87.67c-.23.64.1.93.22,1.28a.93.93,0,0,1-1.23-.23c-.35-.35,0-.72.08-1a7,7,0,0,1,2.6-3.2c1.57-1,2.91-1,4.14.44a6.55,6.55,0,0,1,1.55,6.21C53.13,90,51.5,89,49.56,88.91A2,2,0,0,1,47.43,87.67Z"/><path class="cls-91" d="M50.75,94.73c-2.54,0-4.31-1.48-4.56-3.74,0-.35-.31-.91.33-1s.4.51.47.79c.36,1.43,1.28,2.35,2.4,2.34a2.54,2.54,0,0,0,2.32-2.25c.16-.83.47-.77,1-.41l.19.12c2,1.17,2,2.37-.09,3.58A3.58,3.58,0,0,1,50.75,94.73Z"/><path class="cls-92" d="M49.8,90.76c-.1.58-.16,1.25-.88,1.25s-.91-.68-.91-1.3.17-1.17.91-1.16S49.66,90.25,49.8,90.76Z"/><path class="cls-93" d="M64.36,89.06a2.46,2.46,0,0,1-.38.41c-.46.35-1,.71-1.55.36s.29-.78,0-1.34c-.54,1.19-1.55,1.25-2.65,1.27a6.1,6.1,0,0,0-2.78.88c-.42.23-.63.16-.62-.35a6.14,6.14,0,0,1,2.47-5,2.39,2.39,0,0,1,2.5-.14,5.91,5.91,0,0,1,3.27,3.68A.54.54,0,0,1,64.36,89.06Z"/><path class="cls-94" d="M60,95.5A4,4,0,0,1,56.51,92c0-.37,0-.6.36-.68s.36.26.45.48c.51,1.27,1.41,2,2.37,1.94A2.62,2.62,0,0,0,62,91.31c.09-1,.4-1,1.18-.71,2,.66,2.27,1.26,1.08,3.1C63.35,95,62,95.46,60,95.5Z"/><path class="cls-95" d="M58.39,91.25c-.08-.52.41-.77,1-.79.82,0,.7.71.71,1.13s-.13,1.22-.91,1.16S58.43,92.08,58.39,91.25Z"/><path class="cls-96" d="M64.36,89.06l.22-.23a1.86,1.86,0,0,1,.38,1c0,.22.19.58-.13.68a.93.93,0,0,1-.7-.23c-.37-.26,0-.43.14-.61S64.67,89.33,64.36,89.06Z"/><path class="cls-97" d="M56.14,100.4c.12,0,.31.07.32.11a10.08,10.08,0,0,1,0,2.45c-.07.36-.72.27-1-.07s-.46-.6-.74-.85-.4-.6.08-.85S55.61,100.53,56.14,100.4Z"/><path class="cls-98" d="M104.67,41.11a5.61,5.61,0,0,1,5.11,7.69,3.71,3.71,0,0,1-3.55,2.5A3.45,3.45,0,0,1,102.61,49a9.21,9.21,0,0,1-.54-6C102.49,41.45,103.07,41.09,104.67,41.11Z"/><path class="cls-99" d="M103.22,40.51a4.79,4.79,0,0,1,5.49,1.17A10.47,10.47,0,0,0,103.22,40.51Z"/><path class="cls-98" d="M100.56,46a11.89,11.89,0,0,1-.36,2.91,3.63,3.63,0,0,1-3.86,3,3.78,3.78,0,0,1-3.76-3c-.7-3.51.7-7.42,5.61-7.34a1.67,1.67,0,0,1,1.4.81A5.56,5.56,0,0,1,100.56,46Z"/><path class="cls-100" d="M93.85,42.34c.07-.48.07-.48,1-1.14a6.23,6.23,0,0,1,3.88-.45A10.92,10.92,0,0,0,93.85,42.34Z"/><path class="cls-101" d="M102.24,45.35c0-.82.09-1.65.86-1.62s1,.91,1,1.64-.06,1.48-.87,1.45S102.33,45.91,102.24,45.35Z"/><path class="cls-102" d="M98.22,45.75c.09-.74.08-1.61,1-1.64s1,.85,1,1.51-.14,1.55-.93,1.59S98.33,46.36,98.22,45.75Z"/><path class="cls-103" d="M103.19,44.83a.54.54,0,0,1,.4.58c0,.29,0,.56-.41.54s-.31-.31-.34-.51A.47.47,0,0,1,103.19,44.83Z"/><path class="cls-104" d="M99.54,45.72c0,.28-.06.58-.35.6s-.38-.31-.37-.57.07-.55.41-.53S99.53,45.5,99.54,45.72Z"/></svg>