<?xml version="1.0" encoding="utf-8"?>
<!-- Generator: Adobe Illustrator 26.1.0, SVG Export Plug-In . SVG Version: 6.00 Build 0)  -->
<svg version="1.1" id="Layer_1" xmlns="http://www.w3.org/2000/svg" xmlns:xlink="http://www.w3.org/1999/xlink" x="0px" y="0px"
	 viewBox="0 0 155 257" style="enable-background:new 0 0 155 257;" xml:space="preserve">
<style type="text/css">
	.st0{fill:#FBFCFC;}
	.st1{fill:#31B36F;}
	.st2{fill:#319761;}
	.st3{fill:#B23B4A;}
	.st4{fill:#C24D5C;}
	.st5{fill:#912D2E;}
</style>
<path class="st0" d="M154.9,128.5c0,41.6,0,83.2,0.1,124.8c0,2.7-0.2,3.7-3.5,3.7c-49.4-0.1-98.8-0.1-148.2,0
	c-2.9,0-3.2-0.8-3.2-3.4C0.1,170.2,0.1,86.8,0,3.4C0,0,1.2,0.1,3.8,0.1C53,0.1,102.3,0.1,151.5,0c3.2,0,3.5,0.9,3.5,3.7
	C154.9,45.3,154.9,86.9,154.9,128.5z M136.4,120.9c0-17.1-0.2-34.3,0.1-51.4c0.3-13.1-3.8-25.8-11.8-36.2
	c-13.6-18-42.2-28.3-63.2-21c-26,9.1-42.2,27.8-42.3,58.5c-0.2,35.3-0.1,70.6,0,105.9c0,10.6,4.8,15.4,15.4,15.6
	c8.6,0.1,17.3,0.2,26,0c4-0.1,5.5,0.9,5.4,5.2c-0.3,12.3-0.2,24.6-0.1,36.9c0,5.1,0.4,10.2,5.7,12.8c10.4,5.1,19.9-0.8,19.9-12.4
	c0.1-12.6,0.2-25.3-0.1-37.9c-0.1-3.9,1.1-4.8,4.8-4.7c8.3,0.3,16.6,0.1,25,0.1c9.5-0.1,16-6.5,15.7-15.5
	C136,158.2,136.5,139.6,136.4,120.9L136.4,120.9z"/>
<path class="st1" d="M87.9,201.5c0.1,12.1,0.3,24.2,0.3,36.4c0,6.1-4.1,9.2-11.4,9.2s-11.1-2.9-11.1-9.2c0-12.1,0.1-24.3,0.2-36.4
	L87.9,201.5z"/>
<path class="st2" d="M88.6,207H67.3c-0.7-17.4-0.7-16.9,13.8-17.7c6.9-0.4,8.6,2.6,7.7,9.7C88.7,201.6,88.6,204.3,88.6,207z"/>
<path class="st3" d="M84.1,121.8V75c0.1-11.3,6.1-15.8,21.2-15.8c11.6,0,16.9,4.9,16.9,15.5v94.6c0,8.3-2.9,10.7-12.9,10.7H95.2
	c-7.8,0-11.1-2.8-11.1-9.5V121.8z"/>
<path class="st3" d="M73.2,121.8c0,16.7-0.1,33.3,0.1,49.9c0.1,6-3,8.5-10.3,8.3c-6.2-0.2-12.3-0.1-18.5,0s-9.6-2.4-9.6-7.5
	c0-33.5-0.1-66.9,0-100.4C34.9,64,41.1,59.3,51,59.2h6.4c10.5,0,15.7,4.2,15.8,12.7C73.2,88.5,73.2,105.2,73.2,121.8z"/>
<path class="st4" d="M21.4,120c0-20-0.6-40,0.2-60c0.5-10.6,5.6-20.2,12.5-28.4c19.7-23.2,56.3-25.2,78.4-8
	c13.4,10.5,21,24.4,21.2,41.3c0.4,37.8,0.2,75.6,0.2,113.4c0,7.5-3.8,11.1-11.4,11.1c-30.1,0.1-60.1,0.1-90.2,0
	c-8.8,0-11.1-2.4-11.1-11.1c-0.1-19.5,0-39,0-58.5L21.4,120z M86.9,122.1v47.7c0,6.6,2.8,9.2,9.2,9.3h11.8c8.3,0,10.7-2.4,10.7-10.5
	V76.2c0.1-10.4-4.4-15.2-14.1-15.2c-12.6,0-17.6,4.3-17.6,15.3C86.9,91.6,86.9,106.8,86.9,122.1z M68.4,122.2V73.4
	c0-8.2-4.2-12.3-12.7-12.4h-5.1c-7.9,0.1-12.8,4.6-12.9,12.5c-0.1,32.7,0,65.4,0,98.1c0,5,2.7,7.4,7.7,7.4s9.9-0.2,14.9,0
	c5.9,0.3,8.4-2.2,8.3-8.1C68.4,154.7,68.5,138.5,68.4,122.2L68.4,122.2z"/>
<path class="st5" d="M136.4,120.9c0,18.6-0.4,37.3,0.2,55.9c0.3,9-6.2,15.4-15.7,15.5c-8.3,0.1-16.7,0.2-25-0.1
	c-3.6-0.1-4.8,0.8-4.8,4.7c0.3,12.6,0.2,25.3,0.1,37.9c-0.1,11.5-9.5,17.4-19.9,12.4c-5.3-2.6-5.7-7.7-5.7-12.8
	c0-12.3-0.2-24.6,0.1-36.9c0.1-4.3-1.3-5.3-5.4-5.2c-8.6,0.3-17.3,0.2-26,0c-10.6-0.2-15.4-5-15.4-15.6c0-35.3-0.1-70.6,0-105.9
	c0.1-30.7,16.3-49.5,42.3-58.5c21-7.3,49.7,2.9,63.2,21c8,10.3,12.1,23.1,11.8,36.2C136.2,86.6,136.4,103.8,136.4,120.9z M69.2,205
	c-0.1,10.8-0.1,21.6-0.1,32.5c0,5.6,3,8.2,9.4,8.2s9.6-2.8,9.7-8.2c0-10.8-0.2-21.6-0.3-32.5c0-2,0.1-4,0.2-6
	c0.8-5.3-0.7-7.5-6.8-7.3C68.6,192.4,68.6,192,69.2,205z M23.2,119.9h-0.1c0,19.1,0,38.3,0,57.4c0,8.6,2.2,10.9,10.8,10.9
	c29.3,0.1,58.6,0.1,87.9,0c7.4,0,11.1-3.6,11.1-10.9c0-37.1,0.2-74.3-0.2-111.4c-0.2-16.7-7.5-30.3-20.7-40.6
	c-21.6-17-57.2-15-76.4,7.8c-6.8,8-11.7,17.5-12.2,27.9C22.6,80.6,23.2,100.3,23.2,119.9L23.2,119.9z"/>
</svg>
