<svg id="Layer_1" data-name="Layer 1" xmlns="http://www.w3.org/2000/svg" viewBox="0 0 155 257"><defs><style>.cls-1{fill:#fbfcfc;}.cls-2{fill:#dd5f51;}.cls-3{fill:#b95551;}.cls-4{fill:#cc812d;}.cls-5{fill:#cc9d2d;}.cls-6{fill:#8c591f;}</style></defs><path class="cls-1" d="M154.93,128.49q0,62.41.07,124.83c0,2.74-.25,3.69-3.48,3.68q-74.12-.22-148.23,0c-2.92,0-3.24-.77-3.24-3.4Q.17,128.52,0,3.43C0,0,1.25.05,3.77.06Q77.65.14,151.51,0c3.18,0,3.5.88,3.49,3.66Q154.85,66.08,154.93,128.49Zm-18.52-7.56c0-17.14-.2-34.29.07-51.43a56.73,56.73,0,0,0-11.8-36.18c-13.56-18-42.19-28.29-63.23-21-26,9.06-42.16,27.8-42.31,58.51-.17,35.29-.07,70.57,0,105.86,0,10.59,4.78,15.44,15.37,15.61,8.65.14,17.31.22,26,0,4-.13,5.48.88,5.38,5.19-.31,12.31-.15,24.63-.14,36.95,0,5.11.37,10.25,5.71,12.84,10.45,5.05,19.86-.83,19.93-12.37.07-12.65.18-25.31-.09-37.95-.08-3.86,1.11-4.77,4.75-4.66,8.31.26,16.64.13,25,.07,9.45-.07,16-6.5,15.66-15.52-.66-18.62-.25-37.28-.25-55.92Z"/><path class="cls-2" d="M89.08,203c.11,11.87.34,23.74.32,35.62,0,6-4,9-11.25,9s-11-2.87-11-9c0-11.89.11-23.76.16-35.63Z"/><path class="cls-3" d="M88.91,205H67.42c-.7-14.31-.69-13.91,14-14.53,7-.3,8.7,2.11,7.82,8A62.2,62.2,0,0,0,88.91,205Z"/><path class="cls-4" d="M85.57,121.36V74.1c.08-11.46,5.62-15.91,19.6-15.91,10.7,0,15.64,5,15.64,15.66v95.56c0,8.35-2.72,10.8-11.89,10.82H95.82c-7.18,0-10.25-2.78-10.25-9.57Z"/><path class="cls-4" d="M71,121.42c0,16.84-.13,33.67.07,50.43.07,6.09-2.86,8.63-9.74,8.37-5.81-.23-11.63-.07-17.44,0s-9-2.42-9-7.62c0-33.8-.08-67.58,0-101.37.09-8.23,5.93-12.93,15.25-13h6Q70.86,58.19,71,71,71,96.22,71,121.42Z"/><path class="cls-5" d="M22.22,120c0-19.85-.63-39.73.24-59.56.46-10.5,5.52-20,12.43-28.18,19.61-23,55.9-25.08,77.88-7.9,13.34,10.43,20.87,24.27,21,41.07.42,37.54.23,75.08.18,112.62,0,7.45-3.73,11-11.29,11.06q-44.79.12-89.59,0c-8.73,0-11-2.34-11-11-.06-19.36,0-38.71,0-58.08Zm65.06,2.12v47.4c0,6.52,2.73,9.16,9.17,9.19h11.7c8.22,0,10.65-2.38,10.65-10.39V76.54c.08-10.32-4.38-15.09-14-15.09-12.53,0-17.48,4.26-17.5,15.23Q87.27,99.41,87.28,122.12Zm-18.36.13V73.8c0-8.19-4.21-12.27-12.58-12.3h-5.1c-7.81,0-12.75,4.57-12.78,12.44-.11,32.47,0,64.94,0,97.42,0,5,2.68,7.35,7.65,7.32s9.83-.17,14.75,0c5.82.25,8.3-2.18,8.24-8-.18-16.11-.1-32.26-.1-48.42Z"/><path class="cls-6" d="M136.41,120.93c0,18.64-.42,37.3.19,55.92.29,9-6.21,15.45-15.66,15.52-8.32.06-16.65.19-25-.07-3.64-.11-4.83.8-4.75,4.66.27,12.64.16,25.3.09,37.95-.07,11.54-9.48,17.42-19.93,12.37-5.34-2.59-5.7-7.73-5.71-12.84,0-12.32-.17-24.64.14-36.95.1-4.31-1.35-5.32-5.38-5.19-8.64.27-17.3.19-25.95,0-10.59-.17-15.36-5-15.37-15.61,0-35.29-.15-70.57,0-105.86.15-30.71,16.32-49.45,42.31-58.51,21-7.34,49.67,2.92,63.23,21a56.73,56.73,0,0,1,11.8,36.18C136.21,86.64,136.41,103.79,136.41,120.93ZM69.18,205c-.05,10.82-.14,21.64-.14,32.47,0,5.64,3,8.24,9.4,8.25s9.64-2.78,9.65-8.24c0-10.82-.18-21.64-.28-32.46a54.62,54.62,0,0,1,.24-6c.76-5.34-.69-7.53-6.78-7.26C68.58,192.35,68.57,192,69.18,205Zm-46-85.08h-.1v57.44c0,8.6,2.25,10.9,10.81,10.92q43.94.09,87.87,0c7.42,0,11.07-3.57,11.08-10.94,0-37.13.23-74.26-.18-111.38C132.5,49.3,125.12,35.63,112,25.32c-21.58-17-57.18-15-76.41,7.81C28.81,41.13,23.85,50.62,23.4,61c-.82,19.61-.21,39.27-.21,58.91Z"/></svg>