<svg xmlns="http://www.w3.org/2000/svg" viewBox="0 0 155 257"><defs><style>.cls-1{fill:#fbfcfc;}.cls-2{fill:#e3d8d6;}.cls-3{fill:#fff2a3;}.cls-4{fill:#fff275;}.cls-5{fill:#b0a7a5;}.cls-6{fill:#4c4d47;}.cls-7{fill:#454545;}.cls-8{fill:#333;}</style></defs><g id="Layer_1" data-name="Layer 1"><path class="cls-1" d="M154.93,128.49q0,62.41.07,124.83c0,2.74-.25,3.69-3.48,3.68q-74.12-.22-148.23,0c-2.92,0-3.24-.77-3.24-3.4Q.17,128.52,0,3.43C0,0,1.25.05,3.77.06Q77.65.14,151.51,0c3.18,0,3.5.88,3.49,3.66Q154.85,66.08,154.93,128.49Zm-18.52-7.56c0-17.14-.2-34.29.07-51.43a56.73,56.73,0,0,0-11.8-36.18c-13.56-18-42.19-28.29-63.23-21-26,9.06-42.16,27.8-42.31,58.51-.17,35.29-.07,70.57,0,105.86,0,10.59,4.78,15.44,15.37,15.61,8.65.14,17.31.22,26,0,4-.13,5.48.88,5.38,5.19-.31,12.31-.15,24.63-.14,36.95,0,5.11.37,10.25,5.71,12.84,10.45,5.05,19.86-.83,19.93-12.37.07-12.65.18-25.31-.09-37.95-.08-3.86,1.11-4.77,4.75-4.66,8.31.26,16.64.13,25,.07,9.45-.07,15.95-6.5,15.66-15.52-.66-18.62-.25-37.28-.25-55.92Z"/><path class="cls-2" d="M23.19,119.91c0-19.64-.61-39.3.24-58.91.45-10.38,5.41-19.83,12.19-27.87C54.85,10.35,90.45,8.33,112,25.32c13.09,10.31,20.47,24,20.65,40.62.41,37.12.22,74.25.18,111.38,0,7.37-3.66,10.93-11.08,10.94q-43.93.11-87.87,0c-8.56,0-10.78-2.32-10.81-10.92-.06-19.15,0-38.29,0-57.44ZM87,122v46.88c0,6.45,2.68,9.06,9,9.09h11.47c8.06,0,10.45-2.35,10.45-10.28V76.92C118,66.72,113.62,62,104.22,62c-12.29,0-17.15,4.21-17.17,15.06Q87,99.54,87,122Zm-18,.13V74.21c0-8.1-4.13-12.13-12.34-12.16h-5c-7.66.05-12.51,4.52-12.54,12.3-.11,32.12,0,64.23,0,96.35,0,4.94,2.63,7.27,7.5,7.24s9.65-.17,14.47,0c5.71.25,8.14-2.16,8.08-7.95-.17-15.93-.1-31.91-.1-47.89Z"/><path class="cls-3" d="M87.81,205c.1,10.82.29,21.64.28,32.46,0,5.46-3.44,8.24-9.65,8.24s-9.39-2.61-9.4-8.25c0-10.83.09-21.65.14-32.47Z"/><path class="cls-4" d="M87.81,205H69.18c-.61-13-.6-12.64,12.09-13.2,6.09-.27,7.54,1.92,6.78,7.26A58.87,58.87,0,0,0,87.81,205Z"/><path class="cls-5" d="M87,122V77.11C87.07,66.23,91.93,62,104.22,62c9.4,0,13.74,4.7,13.74,14.87v90.77c0,7.93-2.39,10.26-10.45,10.28H96c-6.31,0-9-2.64-9-9.09Z"/><path class="cls-5" d="M69.07,122.1c0,16-.11,32,.06,47.93.06,5.79-2.37,8.2-8.08,7.95-4.82-.21-9.65-.06-14.47,0s-7.49-2.3-7.5-7.24c0-32.12-.07-64.23,0-96.35C39.15,66.57,44,62.1,51.73,62h5Q69,62,69.07,74.16,69.09,98.15,69.07,122.1Z"/><path class="cls-6" d="M136.41,120.93c0,18.64-.42,37.3.19,55.92.29,9-6.21,15.45-15.66,15.52-8.32.06-16.65.19-25-.07-3.64-.11-4.83.8-4.75,4.66.27,12.64.16,25.3.09,37.95-.07,11.54-9.48,17.42-19.93,12.37-5.34-2.59-5.7-7.73-5.71-12.84,0-12.32-.17-24.64.14-36.95.1-4.31-1.35-5.32-5.38-5.19-8.64.27-17.3.19-25.95,0-10.59-.17-15.36-5-15.37-15.61,0-35.29-.15-70.57,0-105.86.15-30.71,16.32-49.45,42.31-58.51,21-7.34,49.67,2.92,63.23,21a56.73,56.73,0,0,1,11.8,36.18C136.21,86.64,136.41,103.79,136.41,120.93ZM69.18,205c-.05,10.82-.14,21.64-.14,32.47,0,5.64,3,8.24,9.4,8.25s9.64-2.78,9.65-8.24c0-10.82-.18-21.64-.28-32.46a54.62,54.62,0,0,1,.24-6c.76-5.34-.69-7.53-6.78-7.26C68.58,192.35,68.57,192,69.18,205Zm-46-85.08h-.1c0,19.15,0,38.29,0,57.44,0,8.6,2.25,10.9,10.81,10.92q43.94.09,87.87,0c7.42,0,11.07-3.57,11.08-10.94,0-37.13.23-74.26-.18-111.38C132.5,49.3,125.12,35.63,112,25.32c-21.58-17-57.18-15-76.41,7.81C28.81,41.13,23.85,50.62,23.4,61c-.82,19.61-.21,39.27-.21,58.91Z"/></g><g id="Layer_2" data-name="Layer 2"><circle class="cls-7" cx="77.19" cy="56.55" r="35.95"/><g id="iWN41j.tif"><path class="cls-8" d="M46,56.2a.87.87,0,0,1,1-.65h2a.82.82,0,0,1,.82.49.77.77,0,0,1-.42,1,.94.94,0,0,1-.29.06H46.72a.78.78,0,0,1-.73-.54.12.12,0,0,0,0-.08Z"/><path class="cls-8" d="M77.6,25.3a.91.91,0,0,1,.62,1c0,.69,0,1.38,0,2.06a.79.79,0,0,1-.75.83.78.78,0,0,1-.8-.76v0c0-.76,0-1.53,0-2.29a.85.85,0,0,1,.62-.8Z"/><path class="cls-8" d="M46,54a.84.84,0,0,1,1-.59l.59,0,1.44.09a.85.85,0,0,1,.7.37.72.72,0,0,1,.05.76.76.76,0,0,1-.7.42c-.36,0-.73,0-1.09-.06s-.73-.07-1.09-.08A.88.88,0,0,1,46,54.3Z"/><path class="cls-8" d="M76.24,47.89V46.57h-6.4V45.4h6.38V44h-4.6V42.79H76.2V40.88h1.18v1.9h4.84V44H77.41v1.43h6.52v1.18H77.42V47.9h.22a18.55,18.55,0,0,1,5.81,1A12.75,12.75,0,0,1,87.34,51a7.53,7.53,0,0,1,2.35,3,5.44,5.44,0,0,1-.44,5.13A8.65,8.65,0,0,1,86.33,62a15,15,0,0,1-5,2,19.82,19.82,0,0,1-4.92.44A17.85,17.85,0,0,1,69,62.62a10,10,0,0,1-3.65-2.92,5.73,5.73,0,0,1,0-7.07A9.8,9.8,0,0,1,68.43,50a15.5,15.5,0,0,1,5-1.75c.83-.14,1.68-.2,2.52-.3ZM77,63.23a20.13,20.13,0,0,0,3.1-.24,15.06,15.06,0,0,0,5.22-1.79A8.43,8.43,0,0,0,87.94,59a4.74,4.74,0,0,0,1-2.68,4.65,4.65,0,0,0-1.06-3.09A8.8,8.8,0,0,0,85,50.86a16.43,16.43,0,0,0-6.91-1.78,19.4,19.4,0,0,0-4.37.28,14.57,14.57,0,0,0-5,1.79,8,8,0,0,0-2.59,2.32,4.39,4.39,0,0,0-.62,4.15,6.13,6.13,0,0,0,1.89,2.58,11.74,11.74,0,0,0,3.5,2A17.81,17.81,0,0,0,77,63.23Z"/><path class="cls-8" d="M75.87,67.18c.23-.26.43-.52.65-.76a3.33,3.33,0,0,1,.39-.36.35.35,0,0,1,.53,0,2.65,2.65,0,0,1,.42.4c.22.24.41.48.61.72.15-.25.29-.51.45-.76a2.05,2.05,0,0,1,.34-.38.62.62,0,0,1,.49-.12l.81.07a.23.23,0,0,1,.19.09s0,.14,0,.21a.57.57,0,0,1-.15.16,6.64,6.64,0,0,0-1.81,1.85c-.39.55-.73,1.12-1.1,1.68a2.33,2.33,0,0,1-.27.35.27.27,0,0,1-.39,0,.18.18,0,0,1,0-.07.61.61,0,0,1-.12-.16,14.84,14.84,0,0,0-1.93-2.78,4.93,4.93,0,0,0-1-.9.13.13,0,0,1-.07-.06c-.06-.11-.18-.24-.16-.32s.2-.09.32-.1.42,0,.62-.06a.69.69,0,0,1,.72.28c.21.29.37.61.56.91A.24.24,0,0,1,75.87,67.18Zm1,.15c.05.27.09.53.16.79,0,.07.1.12.15.18s.13-.11.15-.18a2.38,2.38,0,0,0,0-1.58c0-.07-.1-.12-.16-.17s-.12.1-.14.17c-.07.26-.11.52-.17.79Z"/><path class="cls-8" d="M92.88,75.26a.61.61,0,0,1,.52.39.52.52,0,0,1-.17.62c-.42.33-.84.64-1.27.93A25.83,25.83,0,0,1,87,80a.66.66,0,0,1-.39,0,.5.5,0,0,1-.41-.47.56.56,0,0,1,.33-.57c.6-.28,1.22-.53,1.81-.83a24,24,0,0,0,2.71-1.62c.48-.35,1-.73,1.45-1.07A2.53,2.53,0,0,1,92.88,75.26Z"/><path class="cls-8" d="M96,59.85a1,1,0,0,1-.83-.39c-.47-.72-.93-1.44-1.39-2.17a.53.53,0,0,1,.11-.7.6.6,0,0,1,.79.07c.12.11.24.24.37.34a3.08,3.08,0,0,0,2.22.58,7.67,7.67,0,0,0,.81-.15.55.55,0,0,1,.73.57.57.57,0,0,1-.2.32c-.73.47-1.47.93-2.21,1.38A1.38,1.38,0,0,1,96,59.85Z"/><path class="cls-8" d="M52.73,52.91c0,.69-.09,1.33-.16,2a18.66,18.66,0,0,0,0,2.59A17.62,17.62,0,0,0,52.81,60a.56.56,0,0,1-.46.63.54.54,0,0,1-.62-.42c-.07-.42-.11-.85-.15-1.27a26.58,26.58,0,0,1-.13-3.68c0-.79.12-1.58.19-2.37a.55.55,0,0,1,1.09,0Z"/><path class="cls-8" d="M71.27,74.33a1,1,0,0,1-.47.81l-2,1.29a.56.56,0,0,1-.79-.07.59.59,0,0,1,.11-.8,2.84,2.84,0,0,0,.75-1.17,3.73,3.73,0,0,0,0-2.12,1.08,1.08,0,0,1,0-.4.49.49,0,0,1,.89-.18c.45.72.91,1.43,1.35,2.15A2.92,2.92,0,0,1,71.27,74.33Z"/><path class="cls-8" d="M100.38,47.18a.54.54,0,0,1-.47-.36c-.14-.33-.29-.67-.44-1a26.31,26.31,0,0,0-2.82-4.62,2.41,2.41,0,0,0-.21-.24.56.56,0,0,1,.74-.85.79.79,0,0,1,.12.15c.3.42.61.83.9,1.24a27.19,27.19,0,0,1,2.61,4.61c0,.11.1.23.14.34a.56.56,0,0,1-.35.71A.53.53,0,0,1,100.38,47.18Z"/><path class="cls-8" d="M94.45,51.61a1.9,1.9,0,0,1-.14.4c-.38.7-.76,1.4-1.15,2.09a.56.56,0,0,1-.71.32.59.59,0,0,1-.31-.73,3.2,3.2,0,0,0-.93-3.32.58.58,0,0,1,0-.88.49.49,0,0,1,.52,0L94,50.73A.93.93,0,0,1,94.45,51.61Z"/><path class="cls-8" d="M73.06,75.23a1,1,0,0,1,.4-.84L75.62,73a.53.53,0,0,1,.71.13.59.59,0,0,1-.1.79,2.85,2.85,0,0,0-.79,1.27,3.82,3.82,0,0,0,0,2,1,1,0,0,1,0,.42.46.46,0,0,1-.39.37.48.48,0,0,1-.51-.22c-.45-.73-.91-1.44-1.36-2.17A1.9,1.9,0,0,1,73.06,75.23Z"/><path class="cls-8" d="M65.63,42.36H64.42a1,1,0,0,1-1-.87v-.1c0-.81-.05-1.62-.07-2.42a.53.53,0,0,1,.49-.58H64a.59.59,0,0,1,.47.47,3.21,3.21,0,0,0,2.45,2.37,1.07,1.07,0,0,1,.36.2.44.44,0,0,1,.12.54.47.47,0,0,1-.45.32h-1.3Z"/><path class="cls-8" d="M94.75,50.12a3.12,3.12,0,0,1-.39-.15q-1-.55-2.1-1.14a.55.55,0,0,1-.32-.7.59.59,0,0,1,.73-.31,2.9,2.9,0,0,0,1.84,0A3.83,3.83,0,0,0,96,46.91a.61.61,0,0,1,.62-.2.48.48,0,0,1,.35.59.36.36,0,0,1,0,.11c-.42.76-.84,1.51-1.27,2.26A.94.94,0,0,1,94.75,50.12Z"/><path class="cls-8" d="M62.68,67.3v1.2a.91.91,0,0,1-.85,1h0l-2.53.07a.52.52,0,0,1-.32-1,.77.77,0,0,1,.25-.14,3.2,3.2,0,0,0,2.37-2.4,1.1,1.1,0,0,1,.21-.4.48.48,0,0,1,.68-.06.46.46,0,0,1,.17.36v1.35Z"/><path class="cls-8" d="M82.41,38.5a.93.93,0,0,1,.4-.84c.73-.45,1.49-.9,2.23-1.34a.54.54,0,0,1,.63.08.49.49,0,0,1,.12.57,1.27,1.27,0,0,1-.2.31A3,3,0,0,0,84.65,40c0,.21.08.42.11.63a.54.54,0,0,1-.36.68l-.16,0a.44.44,0,0,1-.39-.22c-.44-.75-.89-1.49-1.32-2.25A1.18,1.18,0,0,1,82.41,38.5Z"/><path class="cls-8" d="M61,64.59l-.29-.07a3,3,0,0,0-2.72.56,6.12,6.12,0,0,0-.49.4.68.68,0,0,1-.52.2.48.48,0,0,1-.45-.52.39.39,0,0,1,.06-.21c.41-.75.83-1.5,1.26-2.24a.91.91,0,0,1,1.24-.37l0,0,2.15,1.18a.54.54,0,0,1,.3.63A.57.57,0,0,1,61,64.59Z"/><path class="cls-8" d="M74,78.51a.57.57,0,0,1-.58.57.55.55,0,0,1-.43-.22,3.11,3.11,0,0,0-1.19-.76,3.82,3.82,0,0,0-2.12,0,1.09,1.09,0,0,1-.44,0,.49.49,0,0,1-.37-.59.54.54,0,0,1,.21-.3c.73-.46,1.46-.93,2.21-1.38a.9.9,0,0,1,1.24.29c.46.7.91,1.4,1.36,2.11C73.89,78.32,73.93,78.42,74,78.51Z"/><path class="cls-8" d="M81.21,74.93a4.68,4.68,0,0,1-.18.48c-.37.7-.76,1.4-1.14,2.1a.56.56,0,0,1-.71.31.57.57,0,0,1-.31-.73A3.23,3.23,0,0,0,78,73.8a1.14,1.14,0,0,1-.23-.38.49.49,0,0,1,.7-.56c.75.41,1.51.83,2.26,1.26A1,1,0,0,1,81.21,74.93Z"/><path class="cls-8" d="M63.54,45.29V44.08a.91.91,0,0,1,.84-1h.06c.82,0,1.63,0,2.44-.09a.57.57,0,0,1,.62.49.6.6,0,0,1-.48.62,2.91,2.91,0,0,0-1.79,1.21,4.41,4.41,0,0,0-.58,1.22,1,1,0,0,1-.23.4.49.49,0,0,1-.82-.35V45.3Z"/><path class="cls-8" d="M87.74,43.05h1.19a.94.94,0,0,1,1,.85A.49.49,0,0,1,90,44c0,.78,0,1.56.08,2.35a.58.58,0,0,1-.44.64.6.6,0,0,1-.65-.45c0-.12-.06-.24-.1-.36A3.09,3.09,0,0,0,87,44.36a5.84,5.84,0,0,0-.59-.2.59.59,0,0,1-.49-.64.49.49,0,0,1,.49-.41h1.3Z"/><path class="cls-8" d="M65.75,70.11h1.19a.54.54,0,0,1,.61.46.58.58,0,0,1-.46.63,3.2,3.2,0,0,0-2.39,2.48.57.57,0,0,1-.67.48h0a.47.47,0,0,1-.38-.5c0-.67,0-1.34,0-2,0-.2,0-.41,0-.62a.9.9,0,0,1,.86-.82l1.29,0Z"/><path class="cls-8" d="M72.66,73.9a1,1,0,0,1-.88-.45l-1.3-2a.56.56,0,0,1,.07-.79.59.59,0,0,1,.8.1,2.84,2.84,0,0,0,1.51.84,4,4,0,0,0,1.79-.07,1,1,0,0,1,.43,0,.46.46,0,0,1,.37.4.44.44,0,0,1-.21.48c-.73.46-1.46.93-2.19,1.38A2.62,2.62,0,0,1,72.66,73.9Z"/><path class="cls-8" d="M88.22,69.67h1.2a.93.93,0,0,1,1,.87v.08c0,.79.06,1.58.08,2.38a.69.69,0,0,1-.08.37.48.48,0,0,1-.52.26.63.63,0,0,1-.49-.44c0-.09-.05-.19-.08-.28A3,3,0,0,0,87.49,71a5.89,5.89,0,0,0-.59-.21.58.58,0,0,1-.47-.65.48.48,0,0,1,.47-.4h1.31Z"/><path class="cls-8" d="M60.48,43.21h1.17a1,1,0,0,1,1,.86v.11c0,.78,0,1.56.07,2.34a.57.57,0,0,1-.44.65.61.61,0,0,1-.65-.47c0-.11,0-.22-.09-.33a3.08,3.08,0,0,0-1.8-1.85,4.56,4.56,0,0,0-.59-.2.59.59,0,0,1-.49-.65.48.48,0,0,1,.49-.4h1.31Z"/><path class="cls-8" d="M96.37,61.19a1,1,0,0,1,.46-.89c.68-.43,1.36-.85,2-1.3a.56.56,0,1,1,.76.81l-.06,0a3,3,0,0,0-.67,1,3.57,3.57,0,0,0-.12,2.37.82.82,0,0,1,0,.44.43.43,0,0,1-.4.35.47.47,0,0,1-.49-.21c-.45-.72-.91-1.44-1.35-2.16A1.56,1.56,0,0,1,96.37,61.19Z"/><path class="cls-8" d="M65.68,69.45H64.49a1,1,0,0,1-1-.86v-.12c0-.78-.06-1.57-.07-2.35a.83.83,0,0,1,.12-.44.48.48,0,0,1,.52-.2.63.63,0,0,1,.46.51A2.94,2.94,0,0,0,65,67.11,3.73,3.73,0,0,0,67,68.32a1.11,1.11,0,0,1,.34.18.48.48,0,0,1,.11.68.5.5,0,0,1-.42.2h-1.3Z"/><path class="cls-8" d="M94.58,60.31a1.08,1.08,0,0,1-.49.8c-.67.43-1.35.85-2,1.29a.58.58,0,0,1-.8-.08.6.6,0,0,1,.11-.8,2.78,2.78,0,0,0,.81-1.38,3.86,3.86,0,0,0,0-1.91,1.35,1.35,0,0,1,0-.4.5.5,0,0,1,.56-.42.54.54,0,0,1,.35.24c.45.72.91,1.43,1.35,2.15A2.82,2.82,0,0,1,94.58,60.31Z"/><path class="cls-8" d="M95.93,51.85a4.5,4.5,0,0,1,.48.16c.7.37,1.39.76,2.09,1.14a.57.57,0,0,1,.33.73.61.61,0,0,1-.77.29,3,3,0,0,0-2.13.14,4.55,4.55,0,0,0-1.12.77,1.11,1.11,0,0,1-.38.22.45.45,0,0,1-.51-.18.47.47,0,0,1,0-.54l1.23-2.21A1,1,0,0,1,95.93,51.85Z"/><path class="cls-8" d="M92.9,42.2H91.72a.94.94,0,0,1-1-.85v-.12c0-.81,0-1.62-.07-2.43a.53.53,0,0,1,.49-.57h.12a.57.57,0,0,1,.48.47,3.23,3.23,0,0,0,2.47,2.38,1,1,0,0,1,.37.22.49.49,0,0,1-.34.83H92.91Z"/><path class="cls-8" d="M55.52,48.13a.48.48,0,0,1,.41.22c.46.73.92,1.46,1.37,2.19A.9.9,0,0,1,57,51.79l0,0-2,1.31a.56.56,0,0,1-.78-.07h0a.61.61,0,0,1,.1-.8,3,3,0,0,0,.71-1A3.5,3.5,0,0,0,55.05,49a.73.73,0,0,1,0-.56A.48.48,0,0,1,55.52,48.13Z"/><path class="cls-8" d="M68.45,40.75c0-.13.08-.32.12-.5a3.09,3.09,0,0,0-.64-2.47,5.72,5.72,0,0,0-.4-.46.65.65,0,0,1-.19-.56.5.5,0,0,1,.57-.4.47.47,0,0,1,.15.06l2.24,1.25a.9.9,0,0,1,.37,1.23v0c-.39.73-.79,1.44-1.18,2.16a.58.58,0,0,1-.65.3A.59.59,0,0,1,68.45,40.75Z"/><path class="cls-8" d="M85.75,33.19a.55.55,0,0,1,.51-.59.64.64,0,0,1,.28.06c.95.44,1.9.86,2.82,1.34a21.64,21.64,0,0,1,3.44,2.17.55.55,0,0,1,.24.54.54.54,0,0,1-.61.48.57.57,0,0,1-.28-.11c-.27-.19-.51-.41-.79-.59a25.48,25.48,0,0,0-5-2.71l-.3-.11A.51.51,0,0,1,85.75,33.19Z"/><path class="cls-8" d="M81.55,73.53a2.85,2.85,0,0,1-.46-.17L79,72.22a.56.56,0,0,1-.3-.7.59.59,0,0,1,.7-.33,5.61,5.61,0,0,0,.59.13,3.07,3.07,0,0,0,2.3-.67,4.63,4.63,0,0,0,.48-.4.56.56,0,0,1,.79,0l.06.06a.45.45,0,0,1,0,.51c-.43.76-.85,1.52-1.27,2.28A1,1,0,0,1,81.55,73.53Z"/><path class="cls-8" d="M93.38,68.82H92.21a.94.94,0,0,1-1-.84.62.62,0,0,1,0-.13c0-.81,0-1.63-.07-2.44a.52.52,0,0,1,.5-.55.28.28,0,0,1,.13,0,.59.59,0,0,1,.46.46,3.23,3.23,0,0,0,2.45,2.38,1,1,0,0,1,.35.18.45.45,0,0,1,.14.53.47.47,0,0,1-.46.34H93.38Z"/><path class="cls-8" d="M90.38,66.66v1.17a1,1,0,0,1-.85,1H89.4L87,68.92a.55.55,0,0,1-.62-.44.61.61,0,0,1,.47-.65,3.19,3.19,0,0,0,2.38-2.43,1,1,0,0,1,.24-.4.41.41,0,0,1,.52-.08.46.46,0,0,1,.3.44v1.31Z"/><path class="cls-8" d="M89.91,40.05v1.17a.93.93,0,0,1-.86,1H89l-2.38.07a.55.55,0,0,1-.63-.44.58.58,0,0,1,.47-.64,3.23,3.23,0,0,0,2.38-2.46.92.92,0,0,1,.19-.35.45.45,0,0,1,.55-.13.47.47,0,0,1,.31.46v1.31Z"/><path class="cls-8" d="M95,61.63a1,1,0,0,1,.77.43l1.37,2.14a.51.51,0,0,1,0,.65.5.5,0,0,1-.62.12.8.8,0,0,1-.27-.18,3,3,0,0,0-2.7-.85,4.7,4.7,0,0,0-.63.13.58.58,0,0,1-.73-.36h0a.47.47,0,0,1,.2-.53c.73-.46,1.46-.92,2.19-1.36A2.07,2.07,0,0,1,95,61.63Z"/><path class="cls-8" d="M57.27,61.93a2.86,2.86,0,0,1-.15.41c-.37.69-.75,1.37-1.12,2a.58.58,0,0,1-.75.34A.62.62,0,0,1,55,64a2.81,2.81,0,0,0,0-1.79,4,4,0,0,0-.91-1.46,1.07,1.07,0,0,1-.2-.36.44.44,0,0,1,.17-.51.45.45,0,0,1,.53,0c.76.42,1.52.84,2.27,1.27A.94.94,0,0,1,57.27,61.93Z"/><path class="cls-8" d="M58.79,50.59A1,1,0,0,1,58,50.1l-1.29-2a.57.57,0,0,1,.06-.79h0a.6.6,0,0,1,.81.11,3,3,0,0,0,.89.64,3.66,3.66,0,0,0,2.44.12.86.86,0,0,1,.45,0,.44.44,0,0,1,.33.4.47.47,0,0,1-.22.47l-2.19,1.37A2.41,2.41,0,0,1,58.79,50.59Z"/><path class="cls-8" d="M98.55,48.21a.51.51,0,0,1,0,.17,3,3,0,0,0,.54,2.81c.13.17.26.33.4.49a.63.63,0,0,1,.2.53.49.49,0,0,1-.54.43l-.16,0c-.77-.42-1.54-.84-2.3-1.29a.89.89,0,0,1-.34-1.18c.41-.76.82-1.5,1.22-2.25a.53.53,0,0,1,.62-.25A.55.55,0,0,1,98.55,48.21Z"/><path class="cls-8" d="M73.46,41A3.49,3.49,0,0,0,71.11,42a.64.64,0,0,1-.46.23.49.49,0,0,1-.53-.44.5.5,0,0,1,.07-.29l1.25-2.23a.9.9,0,0,1,1.23-.37l0,0,2.13,1.15a.56.56,0,0,1,.31.72h0a.61.61,0,0,1-.74.3L73.79,41Z"/><path class="cls-8" d="M82.92,73.88a2.18,2.18,0,0,1,.16-.45c.38-.71.77-1.42,1.16-2.13a.55.55,0,0,1,.7-.3.58.58,0,0,1,.32.69c0,.2-.1.39-.13.59a3.34,3.34,0,0,0,1,2.73,1.14,1.14,0,0,1,.24.41.44.44,0,0,1-.2.5.45.45,0,0,1-.53,0l-2.19-1.21A1,1,0,0,1,82.92,73.88Z"/><path class="cls-8" d="M80.61,37.45a1,1,0,0,1-.41.83L78,39.62a.54.54,0,0,1-.7-.15.6.6,0,0,1,.11-.78,2.85,2.85,0,0,0,.71-.94,3.55,3.55,0,0,0,.17-2.34,1.13,1.13,0,0,1,0-.41.49.49,0,0,1,.56-.4.48.48,0,0,1,.35.25c.43.73.87,1.46,1.3,2.21A1.64,1.64,0,0,1,80.61,37.45Z"/><path class="cls-8" d="M62.63,40.18v1.19a.94.94,0,0,1-.85,1h-.12l-2.41.07a.56.56,0,0,1-.44-.15.55.55,0,0,1,.32-.94,3.21,3.21,0,0,0,2.37-2.43,1,1,0,0,1,.21-.38.44.44,0,0,1,.53-.11.47.47,0,0,1,.32.45v1.3Z"/><path class="cls-8" d="M61.36,58.5c0,.15-.09.36-.13.57a3,3,0,0,0,.52,2.21c.15.23.34.42.51.64a1.2,1.2,0,0,1,.18.31.49.49,0,0,1-.72.59c-.72-.41-1.47-.81-2.2-1.23a.92.92,0,0,1-.39-1.24l0,0c.39-.71.78-1.43,1.18-2.14a.55.55,0,0,1,.64-.31C61.21,57.92,61.36,58.15,61.36,58.5Z"/><path class="cls-8" d="M56.91,54.57l-1.1.2a1.62,1.62,0,0,1-.44,0,.44.44,0,0,1-.33-.4.47.47,0,0,1,.21-.49l2.17-1.36a.92.92,0,0,1,1.27.26.08.08,0,0,1,0,0c.44.67.87,1.35,1.3,2a.57.57,0,0,1-.06.79.61.61,0,0,1-.81-.1,3,3,0,0,0-.94-.67A4.39,4.39,0,0,0,56.91,54.57Z"/><path class="cls-8" d="M62.64,50.19a1.09,1.09,0,0,1-.19.37,3.24,3.24,0,0,0-.79,3.33,1.09,1.09,0,0,1,0,.44.45.45,0,0,1-.41.36.44.44,0,0,1-.48-.23l-1.36-2.15a.9.9,0,0,1,.25-1.26l0,0,2.09-1.34a.54.54,0,0,1,.76.13.49.49,0,0,1,.09.37Z"/><path class="cls-8" d="M73.32,34.14a1.57,1.57,0,0,1-.09.23c-.41.73-.82,1.48-1.24,2.22a.91.91,0,0,1-1.24.38l0,0-2.14-1.17a.55.55,0,0,1-.3-.7.6.6,0,0,1,.71-.32,3.87,3.87,0,0,0,.59.13,3.31,3.31,0,0,0,2.73-1,.66.66,0,0,1,.53-.22A.52.52,0,0,1,73.32,34.14Z"/><path class="cls-8" d="M55.38,58.15l.13,0a3.13,3.13,0,0,0,3-.68l.3-.27a.57.57,0,0,1,.81,0h0a.45.45,0,0,1,.07.56q-.61,1.13-1.26,2.25a.92.92,0,0,1-1.24.36h0c-.72-.39-1.44-.78-2.15-1.18a.53.53,0,0,1-.31-.64C54.82,58.28,55,58.15,55.38,58.15Z"/><path class="cls-8" d="M74.88,35.19c0,.12-.08.3-.12.48a3.13,3.13,0,0,0,.64,2.5c.12.16.27.3.4.46a.67.67,0,0,1,.19.54.49.49,0,0,1-.55.41l-.16,0c-.76-.42-1.51-.83-2.25-1.26A.91.91,0,0,1,72.65,37l0,0,1.17-2.15a.56.56,0,0,1,.66-.29C74.74,34.62,74.88,34.84,74.88,35.19Z"/><path class="cls-8" d="M60.51,70.3h1.2a.94.94,0,0,1,1,.86v.1c0,.8.05,1.59.07,2.39a.56.56,0,0,1-.44.62.59.59,0,0,1-.64-.46,3.21,3.21,0,0,0-2.49-2.39.57.57,0,0,1-.46-.73.45.45,0,0,1,.46-.33h1.29Z"/><path class="cls-8" d="M91.28,71.74V70.53a.91.91,0,0,1,.84-1h0c.84,0,1.7-.06,2.54-.08a.52.52,0,0,1,.51.36.48.48,0,0,1-.17.58.76.76,0,0,1-.26.15,3.18,3.18,0,0,0-2.37,2.37,1.34,1.34,0,0,1-.16.37.47.47,0,0,1-.64.23.49.49,0,0,1-.28-.52c0-.21,0-.42,0-.64s0-.42,0-.64Z"/><path class="cls-8" d="M57.14,72.58a.58.58,0,0,1-.49-.27c-.61-.89-1.25-1.77-1.84-2.69A20.28,20.28,0,0,1,53,66.16a.55.55,0,1,1,1-.53,1.17,1.17,0,0,1,.05.11,24.76,24.76,0,0,0,3.34,5.71l.22.27a.54.54,0,0,1,0,.56A.55.55,0,0,1,57.14,72.58Z"/><path class="cls-8" d="M90.81,45.13V43.91a.91.91,0,0,1,.84-1h.06l2.45-.09a.55.55,0,0,1,.62.47.58.58,0,0,1-.46.62,3.21,3.21,0,0,0-2.39,2.46,1,1,0,0,1-.22.37.44.44,0,0,1-.53.11.45.45,0,0,1-.3-.45V45.12Z"/><path class="cls-8" d="M82.05,37.14a1,1,0,0,1-.88-.49l-1.25-2.07a.55.55,0,0,1,.11-.75.6.6,0,0,1,.78.09,5.11,5.11,0,0,0,.48.45,3,3,0,0,0,2.16.54c.25,0,.49-.07.73-.12a.55.55,0,0,1,.69.36.58.58,0,0,1,0,.19.44.44,0,0,1-.22.35c-.74.45-1.49.89-2.24,1.32A1.71,1.71,0,0,1,82.05,37.14Z"/><path class="cls-8" d="M82.68,75.23a3.8,3.8,0,0,1,.47.18l2.08,1.13a.56.56,0,0,1,.32.71.59.59,0,0,1-.73.32,3.18,3.18,0,0,0-3.31.92.62.62,0,0,1-.66.18.49.49,0,0,1-.28-.63.14.14,0,0,1,0-.06c.42-.76.84-1.52,1.27-2.27A1,1,0,0,1,82.68,75.23Z"/><path class="cls-8" d="M81,38.89a1,1,0,0,1,.81.49l1.23,2a.57.57,0,0,1-.09.81.62.62,0,0,1-.81-.15,2.83,2.83,0,0,0-1.31-.83,3.94,3.94,0,0,0-2,0,.82.82,0,0,1-.44,0,.44.44,0,0,1-.34-.4.47.47,0,0,1,.23-.49L80.56,39A2.59,2.59,0,0,1,81,38.89Z"/><path class="cls-8" d="M96.93,71.69a1.66,1.66,0,0,1,.15-.33,22.08,22.08,0,0,0,2.32-3.65c.4-.76.72-1.56,1.06-2.34a.58.58,0,0,1,.6-.41.54.54,0,0,1,.48.49.59.59,0,0,1,0,.29A28.45,28.45,0,0,1,98,72a.56.56,0,0,1-.64.2A.61.61,0,0,1,96.93,71.69Z"/><path class="cls-8" d="M57.83,41a2.53,2.53,0,0,1-.18.37A25,25,0,0,0,54.41,47c0,.11-.08.22-.12.32a.55.55,0,0,1-.7.37h0a.54.54,0,0,1-.33-.69.14.14,0,0,0,0-.06c.29-.67.59-1.33.91-2a26.1,26.1,0,0,1,2.33-3.9c.11-.15.22-.31.34-.45a.52.52,0,0,1,.62-.14A.61.61,0,0,1,57.83,41Z"/><path class="cls-8" d="M68.07,33.36a.55.55,0,0,1-.37.47c-.78.36-1.58.71-2.33,1.11a22.1,22.1,0,0,0-3.58,2.39.56.56,0,0,1-.79,0,.55.55,0,0,1,0-.78.27.27,0,0,1,.08-.07,28.65,28.65,0,0,1,6.17-3.65.57.57,0,0,1,.76.26A.52.52,0,0,1,68.07,33.36Z"/><path class="cls-8" d="M77.14,81.77A27.8,27.8,0,0,1,74,81.55a.55.55,0,0,1-.52-.58.06.06,0,0,1,0,0,.55.55,0,0,1,.62-.49h0a27.66,27.66,0,0,0,3.86.21A24,24,0,0,0,81,80.37a.54.54,0,0,1,.63.43h0a.51.51,0,0,1-.4.62h0c-.41.07-.83.12-1.24.15C79.05,81.67,78.1,81.72,77.14,81.77Z"/><path class="cls-8" d="M61.57,76a1.77,1.77,0,0,1,.34.16,24.35,24.35,0,0,0,5.71,3.27l.34.13a.55.55,0,0,1-.38,1h0c-.41-.16-.81-.34-1.21-.53a27,27,0,0,1-4.67-2.67L61.19,77a.52.52,0,0,1-.16-.61A.64.64,0,0,1,61.57,76Z"/><path class="cls-8" d="M81,31.77a.53.53,0,0,1-.53.55h-.08a22.86,22.86,0,0,0-4.82-.16c-.7.05-1.4.15-2.1.25a.58.58,0,0,1-.68-.46h0a.57.57,0,0,1,.47-.63h0a30.3,30.3,0,0,1,6-.21l1.21.13A.54.54,0,0,1,81,31.77Z"/><path class="cls-8" d="M103,56.41a25,25,0,0,1-.2,3.35.56.56,0,0,1-.58.54h0a.56.56,0,0,1-.5-.6s0-.05,0-.07a22.64,22.64,0,0,0,.21-3.49,21.32,21.32,0,0,0-.29-3.38.56.56,0,0,1,.43-.66h0a.54.54,0,0,1,.62.45v0c.09.69.16,1.38.21,2.08S103,55.82,103,56.41Z"/><path class="cls-8" d="M68,66.27a1.05,1.05,0,0,1-.91-.53l-1-1.64a.33.33,0,0,1,0-.4.34.34,0,0,1,.42-.12.84.84,0,0,1,.33.16,5.37,5.37,0,0,0,1.75,1c.44.16.89.26,1.33.38a.72.72,0,0,1,.45.26.28.28,0,0,1,0,.39.34.34,0,0,1-.15.07l-2,.45Z"/><path class="cls-8" d="M88.41,49.45c-.08,0-.24-.11-.39-.2-.31-.19-.59-.42-.91-.59A7.68,7.68,0,0,0,85,47.93a.9.9,0,0,1-.43-.23.27.27,0,0,1,0-.39.28.28,0,0,1,.19-.09c.66-.15,1.32-.31,2-.45a1,1,0,0,1,1.08.46l1,1.73C88.94,49.2,88.79,49.45,88.41,49.45Z"/><path class="cls-8" d="M65.19,49.55c-.3,0-.43-.24-.3-.48l1-1.75A1.06,1.06,0,0,1,67,46.8l1.93.39a.32.32,0,0,1,.28.23.34.34,0,0,1-.14.37,1,1,0,0,1-.39.17,4.56,4.56,0,0,0-1.61.53c-.49.24-1,.57-1.42.85Z"/><path class="cls-8" d="M86.27,66.17,85.54,66c-.44-.11-.88-.24-1.33-.34a.33.33,0,0,1-.28-.26A.35.35,0,0,1,84.1,65a1,1,0,0,1,.38-.15,5.43,5.43,0,0,0,1.63-.41,7.63,7.63,0,0,0,1.49-.8.59.59,0,0,1,.54-.13.27.27,0,0,1,.23.31.37.37,0,0,1-.05.11c-.37.59-.73,1.19-1.12,1.77A1.09,1.09,0,0,1,86.27,66.17Z"/><path class="cls-8" d="M72.65,67a1.09,1.09,0,0,1,1,.61l.81,1.79a.32.32,0,0,1,0,.37.33.33,0,0,1-.37.1.94.94,0,0,1-.37-.22,5.33,5.33,0,0,0-1.29-1A9.32,9.32,0,0,0,70.79,68a1,1,0,0,1-.42-.26.28.28,0,0,1-.05-.39.25.25,0,0,1,.23-.1C71.26,67.19,72,67.12,72.65,67Z"/><path class="cls-8" d="M83.2,67.08h1a.33.33,0,0,1,.34.18.34.34,0,0,1-.09.4,1,1,0,0,1-.36.23,4.69,4.69,0,0,0-1.3.66,7.28,7.28,0,0,0-1.44,1.21.67.67,0,0,1-.49.25.27.27,0,0,1-.29-.25.17.17,0,0,1,0-.12c.23-.67.46-1.34.7-2a1,1,0,0,1,1-.63l.46,0c.16,0,.31,0,.47,0Z"/><path class="cls-8" d="M106.5,57.61h-1.11a.78.78,0,0,1-.82-.73.76.76,0,0,1,.71-.81h0c.78,0,1.57,0,2.35,0a.76.76,0,0,1,.76.76v0a.79.79,0,0,1-.83.73Z"/><path class="cls-8" d="M76,85.77V84.63a.78.78,0,0,1,.46-.73.74.74,0,0,1,.77.08.79.79,0,0,1,.32.67v2.24a.79.79,0,0,1-.76.81h0a.79.79,0,0,1-.76-.82h0V85.76Z"/><path class="cls-8" d="M70.48,26.78a.8.8,0,0,1,.65-.85.76.76,0,0,1,.87.59c.16.78.32,1.56.47,2.34a.77.77,0,0,1-1.52.26c-.14-.66-.27-1.33-.4-2A2.57,2.57,0,0,1,70.48,26.78Z"/><path class="cls-8" d="M90.38,80.82a.81.81,0,0,1,.46-.71.73.73,0,0,1,.84.14.91.91,0,0,1,.2.24c.36.63.73,1.26,1.08,1.88a.84.84,0,0,1,.09.71.71.71,0,0,1-.64.51.75.75,0,0,1-.76-.39c-.29-.48-.57-1-.86-1.48a3.8,3.8,0,0,1-.26-.49A2.86,2.86,0,0,1,90.38,80.82Z"/><path class="cls-8" d="M105.85,67.49l-.27-.07-2.09-.73a.81.81,0,0,1-.57-.89.79.79,0,0,1,.93-.62l.13,0,1.69.6c.16.06.33.11.49.18a.79.79,0,0,1,.48.9A.8.8,0,0,1,105.85,67.49Z"/><path class="cls-8" d="M58.38,81.44a.68.68,0,0,1-.62-.4.75.75,0,0,1,.08-.85c.47-.61.94-1.22,1.43-1.8a1,1,0,0,1,.44-.28.72.72,0,0,1,.8.29.78.78,0,0,1,0,.9c-.12.17-.25.33-.38.49l-1,1.32A.82.82,0,0,1,58.38,81.44Z"/><path class="cls-8" d="M53,75.9a.73.73,0,0,1-.67-.44.75.75,0,0,1,.12-.84.5.5,0,0,1,.15-.14l1.78-1.35a.8.8,0,0,1,.76-.13.76.76,0,0,1,.47,1,.74.74,0,0,1-.16.27l-.16.15-1.74,1.3A.91.91,0,0,1,53,75.9Z"/><path class="cls-8" d="M53.82,41.47a2.76,2.76,0,0,1-.47-.2c-.62-.41-1.23-.84-1.84-1.26a.79.79,0,0,1-.23-1.07.78.78,0,0,1,1.07-.23l0,0c.62.43,1.24.85,1.86,1.29a.75.75,0,0,1,.34.8.7.7,0,0,1-.56.58.64.64,0,0,1-.2,0Z"/><path class="cls-8" d="M87.67,85.27a.77.77,0,0,1-1.43.41.94.94,0,0,1-.1-.23c-.25-.69-.49-1.38-.71-2.08a.79.79,0,0,1,.4-1,.77.77,0,0,1,1,.38l0,.06c.27.74.51,1.49.76,2.24A1.43,1.43,0,0,1,87.67,85.27Z"/><path class="cls-8" d="M76.27,28.31a2.2,2.2,0,0,1,0,.36.77.77,0,0,1-.8.57.78.78,0,0,1-.7-.69c-.06-.78-.12-1.57-.16-2.35a.77.77,0,0,1,1.54-.12c0,.56.08,1.11.12,1.67l0,.55Z"/><path class="cls-8" d="M66.56,27.75a.77.77,0,0,1,.76-.79.79.79,0,0,1,.75.53c.14.38.27.78.4,1.17l.34,1a.78.78,0,0,1-.45,1,.67.67,0,0,1-.31.05.74.74,0,0,1-.69-.51c-.27-.73-.51-1.48-.76-2.23A1.55,1.55,0,0,1,66.56,27.75Z"/><path class="cls-8" d="M62.58,83.82a2.65,2.65,0,0,1,.12-.37c.34-.67.68-1.34,1-2a.76.76,0,0,1,.76-.44.7.7,0,0,1,.66.51.75.75,0,0,1,0,.62c-.34.68-.69,1.36-1,2a.79.79,0,0,1-.91.4A.8.8,0,0,1,62.58,83.82Z"/><path class="cls-8" d="M74.07,86.84l.15-2.19A.8.8,0,0,1,75,83.9a.78.78,0,0,1,.73.82v0c0,.78-.1,1.55-.16,2.33a.77.77,0,0,1-1.54,0S74.07,86.91,74.07,86.84Z"/><path class="cls-8" d="M102.28,74.46a2.77,2.77,0,0,1-.43-.18c-.63-.42-1.24-.84-1.86-1.27a.78.78,0,0,1-.25-1.07.77.77,0,0,1,1.06-.25l.06,0,1.87,1.3a.77.77,0,0,1,.34.8.69.69,0,0,1-.53.57l-.24,0Z"/><path class="cls-8" d="M108.07,60.9a.79.79,0,0,1-.79.77h-.09c-.76-.09-1.51-.2-2.26-.31a.79.79,0,0,1-.71-.83.76.76,0,0,1,.76-.71,5.31,5.31,0,0,1,.79.09l1.53.21A.82.82,0,0,1,108.07,60.9Z"/><path class="cls-8" d="M89.55,84.56a.79.79,0,0,1-.77.79.77.77,0,0,1-.73-.5c-.2-.45-.38-.91-.57-1.36-.1-.25-.21-.49-.3-.73a.77.77,0,1,1,1.42-.61h0c.3.71.59,1.41.88,2.12C89.51,84.37,89.53,84.47,89.55,84.56Z"/><path class="cls-8" d="M50.58,64.9a.82.82,0,0,1,.77.62.78.78,0,0,1-.5.89c-.49.18-1,.34-1.48.51-.24.08-.47.17-.71.24a.77.77,0,0,1-1-.49.78.78,0,0,1,.49-1h0l1-.33L50.25,65Z"/><path class="cls-8" d="M105.5,55.68a3.82,3.82,0,0,1-.57-.11.73.73,0,0,1-.42-.81.81.81,0,0,1,.73-.65l2.27-.15a.78.78,0,1,1,.12,1.55h0l-2.07.13Z"/><path class="cls-8" d="M103.29,39.64a.8.8,0,0,1-.34.65c-.64.43-1.29.86-2,1.28a.77.77,0,0,1-.84-1.29c.63-.43,1.27-.86,1.92-1.27a.76.76,0,0,1,.83,0A.71.71,0,0,1,103.29,39.64Z"/><path class="cls-8" d="M100.67,76.83a.69.69,0,0,1-.43.58.75.75,0,0,1-.84-.12c-.36-.3-.7-.62-1.05-.93s-.46-.4-.69-.62a.79.79,0,0,1-.06-1.1.08.08,0,0,0,0,0,.77.77,0,0,1,1,0c.6.52,1.18,1,1.76,1.58A.8.8,0,0,1,100.67,76.83Z"/><path class="cls-8" d="M101.62,44a.71.71,0,0,1,.43-.62l2.08-1a.8.8,0,0,1,1,.34.76.76,0,0,1-.32,1c-.71.37-1.42.73-2.15,1.06a.77.77,0,0,1-1-.39A.72.72,0,0,1,101.62,44Z"/><path class="cls-8" d="M72.51,26.44A.77.77,0,1,1,74,26.25c.11.77.21,1.53.3,2.29a.79.79,0,0,1-.66.89.78.78,0,0,1-.86-.66c-.11-.68-.19-1.36-.28-2A1.89,1.89,0,0,1,72.51,26.44Z"/><path class="cls-8" d="M83.76,86.24a.82.82,0,0,1-.69.86.78.78,0,0,1-.83-.61c-.16-.78-.32-1.56-.47-2.34a.77.77,0,0,1,1.52-.25c.14.66.27,1.33.4,2C83.72,86,83.74,86.16,83.76,86.24Z"/><path class="cls-8" d="M107.43,59.64l-2.3-.16a.79.79,0,0,1-.73-.84.81.81,0,0,1,.86-.71l2.19.15a.84.84,0,0,1,.79.55.8.8,0,0,1-.52,1A.7.7,0,0,1,107.43,59.64Z"/><path class="cls-8" d="M91.81,29.36a2.78,2.78,0,0,1-.12.38c-.34.66-.67,1.32-1,2a.77.77,0,0,1-1,.39.85.85,0,0,1-.25-.17.74.74,0,0,1-.13-.87c.35-.71.71-1.4,1.08-2.1a.76.76,0,0,1,.89-.37A.82.82,0,0,1,91.81,29.36Z"/><path class="cls-8" d="M47.12,61.27a.81.81,0,0,1-.89-.69.79.79,0,0,1,.7-.84l2.25-.3a.8.8,0,0,1,.89.62.76.76,0,0,1-.62.89c-.44.08-.89.13-1.34.19Z"/><path class="cls-8" d="M52.77,69.13a.73.73,0,0,1-.42.64l-2.11,1a.78.78,0,0,1-1-.35.76.76,0,0,1,.33-1c.71-.37,1.42-.73,2.14-1a.77.77,0,0,1,1,.39A.7.7,0,0,1,52.77,69.13Z"/><path class="cls-8" d="M63.7,28.48a.76.76,0,0,1,.65.43q.53,1,1,2.07a.77.77,0,0,1-1.39.68c-.35-.69-.69-1.37-1-2.06a.77.77,0,0,1,.35-1A.73.73,0,0,1,63.7,28.48Z"/><path class="cls-8" d="M59.22,81.82a2.23,2.23,0,0,1,.16-.43c.44-.64.88-1.29,1.33-1.92a.77.77,0,0,1,.91-.27.71.71,0,0,1,.48.76.89.89,0,0,1-.12.39c-.43.65-.87,1.29-1.33,1.92a.77.77,0,0,1-1,.21A.87.87,0,0,1,59.22,81.82Z"/><path class="cls-8" d="M50.39,62.07a.77.77,0,0,1-.62.76c-.67.14-1.35.28-2,.4a1.65,1.65,0,0,1-.54.05.73.73,0,0,1-.64-.73.79.79,0,0,1,.64-.78l1-.21,1.26-.24a.77.77,0,0,1,.89.63A.49.49,0,0,1,50.39,62.07Z"/><path class="cls-8" d="M86.62,30.74a.74.74,0,0,1-.76-.75.69.69,0,0,1,0-.25c.25-.75.52-1.49.8-2.23a.77.77,0,1,1,1.44.52h0c-.24.73-.51,1.47-.78,2.2A.77.77,0,0,1,86.62,30.74Z"/><path class="cls-8" d="M47.91,65.27a.81.81,0,0,1-.87-.61.78.78,0,0,1,.55-.89c.76-.22,1.53-.42,2.3-.62a.76.76,0,0,1,.91.59.79.79,0,0,1-.6.93l-1.79.49Z"/><path class="cls-8" d="M52,44.53l-.34-.1c-.69-.35-1.38-.69-2.06-1a.8.8,0,0,1-.43-.81.78.78,0,0,1,.88-.64.72.72,0,0,1,.22.08c.71.34,1.4.71,2.1,1.07a.52.52,0,0,1,.17.13.76.76,0,0,1,.18.84A.81.81,0,0,1,52,44.53Z"/><path class="cls-8" d="M70.64,29.33a.78.78,0,0,1-1.53.23c-.15-.55-.3-1.09-.44-1.64,0-.18-.1-.35-.14-.53a.79.79,0,0,1,.52-1A.78.78,0,0,1,70,27v0c.21.73.4,1.48.6,2.22C70.63,29.24,70.63,29.28,70.64,29.33Z"/><path class="cls-8" d="M73.89,84.62c0,.38-.12.82-.18,1.26s-.09.67-.14,1a.78.78,0,0,1-.87.68.76.76,0,0,1-.66-.83c0-.52.13-1,.2-1.55,0-.25.07-.51.11-.77a.79.79,0,0,1,.84-.69A.82.82,0,0,1,73.89,84.62Z"/><path class="cls-8" d="M54.91,34.89a.74.74,0,0,1,.46-.71.75.75,0,0,1,.86.18c.26.24.49.5.75.75s.56.57.84.86a.82.82,0,0,1,.25.73.77.77,0,0,1-.9.6.79.79,0,0,1-.39-.21c-.57-.55-1.12-1.12-1.66-1.7a1.74,1.74,0,0,1-.25-.49Z"/><path class="cls-8" d="M99.53,40.25a.82.82,0,0,1-.72-.53.75.75,0,0,1,.24-.88c.42-.33.85-.65,1.28-1,.19-.15.38-.3.59-.44a.77.77,0,0,1,.84,0,.71.71,0,0,1,.38.68.76.76,0,0,1-.29.6c-.62.48-1.24,1-1.87,1.4A1.79,1.79,0,0,1,99.53,40.25Z"/><path class="cls-8" d="M101.38,70a2.83,2.83,0,0,1,.41.14c.66.39,1.32.78,2,1.18a.78.78,0,0,1,.35.9.75.75,0,0,1-.77.53,1.23,1.23,0,0,1-.41-.13c-.64-.37-1.28-.76-1.92-1.14a.8.8,0,0,1-.4-.79.74.74,0,0,1,.56-.64l.2,0Z"/><path class="cls-8" d="M90.75,32.27a2.86,2.86,0,0,1,.15-.41c.38-.65.76-1.3,1.15-1.93a.76.76,0,0,1,.79-.4.7.7,0,0,1,.61.48.69.69,0,0,1,0,.61c-.41.71-.83,1.42-1.28,2.12a.74.74,0,0,1-.87.27A.82.82,0,0,1,90.75,32.27Z"/><path class="cls-8" d="M56.2,79.52a.82.82,0,0,1,.2-.63c.5-.57,1-1.13,1.52-1.7A.78.78,0,0,1,59,77.11a.76.76,0,0,1,0,1.09c-.51.59-1,1.16-1.55,1.73a.75.75,0,0,1-.88.19A.7.7,0,0,1,56.2,79.52Z"/><path class="cls-8" d="M103.15,46.53a.78.78,0,0,1-.78-.76.77.77,0,0,1,.46-.71c.16-.08.33-.14.49-.21l1.64-.68a.79.79,0,0,1,1,.38.5.5,0,0,1,0,.13.76.76,0,0,1-.43.89c-.73.32-1.46.61-2.19.91A1.28,1.28,0,0,1,103.15,46.53Z"/><path class="cls-8" d="M70.27,83.78a1.7,1.7,0,0,1,0,.22c-.2.73-.4,1.44-.6,2.16a.81.81,0,0,1-.88.6.77.77,0,0,1-.64-.88s0,0,0-.06c.2-.77.42-1.53.65-2.3a.77.77,0,0,1,.86-.53A.79.79,0,0,1,70.27,83.78Z"/><path class="cls-8" d="M96.86,75.7a.81.81,0,0,1,.64.24c.53.54,1.07,1.08,1.59,1.63A.77.77,0,1,1,98,78.65c-.54-.54-1.07-1.08-1.6-1.64a.74.74,0,0,1-.16-.88A.7.7,0,0,1,96.86,75.7Z"/><path class="cls-8" d="M91.36,83.74a.8.8,0,0,1-.48.73.77.77,0,0,1-.86-.2.83.83,0,0,1-.12-.16c-.35-.71-.7-1.41-1-2.12a.77.77,0,0,1,.33-1,.8.8,0,0,1,1.07.33l0,.06c.3.6.59,1.21.88,1.81a1,1,0,0,1,.1.21C91.31,83.51,91.33,83.63,91.36,83.74Z"/><path class="cls-8" d="M104.83,51.86a.78.78,0,0,1-.81-.64.77.77,0,0,1,.57-.86c.43-.11.87-.18,1.31-.27s.66-.14,1-.19a.77.77,0,1,1,.32,1.5h0c-.75.17-1.51.31-2.26.46Z"/><path class="cls-8" d="M70.8,87.23a.77.77,0,0,1-.76-.77.45.45,0,0,1,0-.12c.15-.77.31-1.53.49-2.29a.77.77,0,0,1,.9-.61.78.78,0,0,1,.61.91c-.15.76-.31,1.53-.49,2.28A.76.76,0,0,1,70.8,87.23Z"/><path class="cls-8" d="M59.4,35.35A.74.74,0,0,1,59,36a.76.76,0,0,1-.81,0,1.12,1.12,0,0,1-.2-.18l-1.42-1.65a.78.78,0,0,1,0-1.11,1,1,0,0,1,.2-.15.8.8,0,0,1,.91.19c.52.59,1,1.18,1.53,1.79a2.09,2.09,0,0,1,.22.48Z"/><path class="cls-8" d="M105.2,53.74a.82.82,0,0,1-.89-.69.8.8,0,0,1,.7-.85l2.26-.3a.81.81,0,0,1,.89.64.78.78,0,0,1-.64.88c-.6.1-1.21.17-1.82.25Z"/><path class="cls-8" d="M84.35,26.8c-.06.27-.12.6-.19.93s-.19.9-.28,1.34a.78.78,0,0,1-1.54-.21s0-.05,0-.08c.15-.74.31-1.48.47-2.22a.78.78,0,0,1,.84-.62A.81.81,0,0,1,84.35,26.8Z"/><path class="cls-8" d="M52,67.47a.73.73,0,0,1-.48.66c-.71.3-1.43.6-2.15.88a.77.77,0,0,1-.57-1.43c.7-.3,1.41-.59,2.12-.87a.78.78,0,0,1,1,.4A.76.76,0,0,1,52,67.47Z"/><path class="cls-8" d="M104.3,71.1A2,2,0,0,1,104,71c-.7-.36-1.4-.7-2.08-1.07a.75.75,0,0,1-.33-1,.69.69,0,0,1,.3-.31.73.73,0,0,1,.73,0c.7.35,1.41.7,2.11,1.08a.76.76,0,0,1,.37.89A.8.8,0,0,1,104.3,71.1Z"/><path class="cls-8" d="M102.25,67.68a.79.79,0,0,1,1.12-.75l1.68.73.4.18a.77.77,0,0,1-.54,1.45l-.06,0c-.72-.3-1.43-.6-2.14-.92A.74.74,0,0,1,102.25,67.68Z"/><path class="cls-8" d="M104.4,50a.78.78,0,0,1-.85-.69.77.77,0,0,1,.6-.83l1.19-.32c.4-.11.73-.21,1.1-.29a.78.78,0,0,1,.92.58.79.79,0,0,1-.58.93h0l-2.21.59Z"/><path class="cls-8" d="M50,49.59a1.37,1.37,0,0,1-.28-.05L47.61,49a.81.81,0,0,1-.63-.71.78.78,0,0,1,.72-.81.5.5,0,0,1,.21,0c.78.19,1.56.41,2.33.64a.77.77,0,0,1,.52.88A.79.79,0,0,1,50,49.59Z"/><path class="cls-8" d="M46.93,59.21a.84.84,0,0,1-.56-.14.76.76,0,0,1-.32-.82.79.79,0,0,1,.66-.58l2.34-.15a.77.77,0,1,1,.1,1.53C48.41,59.12,47.67,59.16,46.93,59.21Z"/><path class="cls-8" d="M81.73,86.57a.79.79,0,0,1-.71.86h0a.79.79,0,0,1-.82-.68l-.3-2.27a.79.79,0,0,1,.67-.89.77.77,0,0,1,.86.66c.1.68.19,1.36.28,2C81.71,86.4,81.73,86.51,81.73,86.57Z"/><path class="cls-8" d="M66.83,82.61c0,.1,0,.2-.08.3-.29.67-.57,1.34-.87,2a.8.8,0,0,1-.86.52.77.77,0,0,1-.63-.89.19.19,0,0,1,0-.08,2.9,2.9,0,0,1,.16-.41c.24-.59.5-1.18.76-1.78a.78.78,0,0,1,1.5.33Z"/><path class="cls-8" d="M47.06,51.35l1.51.21.73.11a.79.79,0,0,1,.71.86v0a.81.81,0,0,1-.94.65L48,53l-1.14-.16a.79.79,0,0,1-.69-.87A.81.81,0,0,1,47.06,51.35Z"/><path class="cls-8" d="M51.2,46.17l-.33-.09-2.08-.89a.81.81,0,0,1-.48-.8.77.77,0,0,1,.84-.69l.21,0c.73.3,1.46.62,2.19.94a.78.78,0,0,1,.43.89A.8.8,0,0,1,51.2,46.17Z"/><path class="cls-8" d="M78,84.7a1.49,1.49,0,0,1,.05-.36.76.76,0,0,1,.76-.57.78.78,0,0,1,.73.7c.07.78.12,1.56.16,2.34a.77.77,0,0,1-1.53.12c-.06-.56-.08-1.11-.12-1.66,0-.19,0-.38,0-.56Z"/><path class="cls-8" d="M50.33,50.62a.78.78,0,0,1-.81.75l-.16,0c-.73-.15-1.48-.3-2.22-.47a.77.77,0,1,1,.1-1.53.85.85,0,0,1,.22,0l2.21.46A.78.78,0,0,1,50.33,50.62Z"/><path class="cls-8" d="M59.47,31.3a.78.78,0,0,1,.43-.78.75.75,0,0,1,.82.11.85.85,0,0,1,.2.22l1.21,1.82a.83.83,0,0,1,.13.73.76.76,0,0,1-1,.49.72.72,0,0,1-.28-.16,1.12,1.12,0,0,1-.18-.2c-.4-.61-.81-1.22-1.2-1.83A2,2,0,0,1,59.47,31.3Z"/><path class="cls-8" d="M98.56,73.76a.72.72,0,0,1,.41-.65.79.79,0,0,1,.87.09l1.16.92c.22.17.44.33.65.52a.75.75,0,0,1,.11,1.07.76.76,0,0,1-1.05.14c-.64-.48-1.26-1-1.88-1.47A.79.79,0,0,1,98.56,73.76Z"/><path class="cls-8" d="M54.58,72.19a.79.79,0,0,1-.36.71c-.63.42-1.27.85-1.91,1.26a.76.76,0,0,1-1.07-.22.78.78,0,0,1,.22-1.07c.63-.43,1.27-.85,1.91-1.26a.78.78,0,0,1,.83,0A.69.69,0,0,1,54.58,72.19Z"/><path class="cls-8" d="M63.64,80.9a2,2,0,0,1-.14.41c-.38.64-.77,1.29-1.17,1.94a.79.79,0,0,1-.85.38.7.7,0,0,1-.57-.65.94.94,0,0,1,.1-.52c.38-.66.77-1.31,1.17-2a.79.79,0,0,1,1.46.41Z"/><path class="cls-8" d="M53.09,37a2.09,2.09,0,0,1,.48.22c.6.45,1.2.92,1.78,1.4a.78.78,0,1,1-1,1.21h0c-.59-.46-1.18-.92-1.76-1.39a.75.75,0,0,1-.29-.83.7.7,0,0,1,.58-.55l.16,0Z"/><path class="cls-8" d="M50.85,72.65a.82.82,0,0,1-.73-.49.77.77,0,0,1,.18-.85,1.16,1.16,0,0,1,.21-.16l1.89-1.09a.84.84,0,0,1,.67-.1.72.72,0,0,1,.54.57.77.77,0,0,1-.27.77l-.18.12L51.3,72.48A4.13,4.13,0,0,1,50.85,72.65Z"/><path class="cls-8" d="M98.38,38.81a.73.73,0,0,1-.7-.49.79.79,0,0,1,.22-.88l1.24-1.07.53-.44a.75.75,0,0,1,.82-.11.7.7,0,0,1,.43.64.74.74,0,0,1-.27.65L98.9,38.62A.72.72,0,0,1,98.38,38.81Z"/><path class="cls-8" d="M65.53,27.67a.75.75,0,0,1,.64.46c.31.72.61,1.45.9,2.18a.77.77,0,0,1-.45,1,.78.78,0,0,1-1-.39c-.32-.73-.63-1.46-.91-2.2a.76.76,0,0,1,.46-1A.86.86,0,0,1,65.53,27.67Z"/><path class="cls-8" d="M98.86,34.33a.76.76,0,0,1,.75.75.88.88,0,0,1-.07.32.92.92,0,0,1-.19.28l-1.59,1.55a.8.8,0,0,1-.73.25.76.76,0,0,1-.63-.87.73.73,0,0,1,.15-.35.53.53,0,0,1,.12-.14l1.57-1.54A.84.84,0,0,1,98.86,34.33Z"/><path class="cls-8" d="M63.85,32.21a.81.81,0,0,1-.54.73.76.76,0,0,1-.89-.32c-.41-.69-.81-1.38-1.2-2.09a.77.77,0,0,1,1.34-.75c.41.68.8,1.37,1.19,2.06A1.56,1.56,0,0,1,63.85,32.21Z"/><path class="cls-8" d="M84.12,29.4a1.09,1.09,0,0,1,0-.26L84.76,27a.78.78,0,0,1,.92-.59.82.82,0,0,1,.33.15.75.75,0,0,1,.26.79c-.2.76-.41,1.51-.64,2.26a.77.77,0,0,1-.89.55A.8.8,0,0,1,84.12,29.4Z"/><path class="cls-8" d="M104.32,41.39a.73.73,0,0,1-.38.59c-.67.4-1.35.79-2,1.17a.77.77,0,0,1-.76-1.34q1-.6,2-1.17a.77.77,0,0,1,1,.33A.76.76,0,0,1,104.32,41.39Z"/><path class="cls-8" d="M50.09,41a.78.78,0,0,1,.77-.77.77.77,0,0,1,.39.11c.17.09.34.2.51.3.49.28,1,.57,1.44.86a.78.78,0,0,1,.42.8.79.79,0,0,1-1,.63l-.25-.11-1.83-1.1A.84.84,0,0,1,50.09,41Z"/><path class="cls-8" d="M60,35a.8.8,0,0,1-.63-.32c-.46-.6-.93-1.21-1.38-1.83a.77.77,0,1,1,1.17-1s0,.05.06.07c.47.6.93,1.21,1.38,1.82a.76.76,0,0,1,.08.85A.72.72,0,0,1,60,35Z"/><path class="cls-8" d="M94.6,35.08a.77.77,0,0,1-.82-1,.73.73,0,0,1,.15-.29l1.37-1.74a.8.8,0,0,1,.82-.31.7.7,0,0,1,.56.5.78.78,0,0,1-.12.71c-.48.62-1,1.23-1.46,1.84A.73.73,0,0,1,94.6,35.08Z"/><path class="cls-8" d="M106.89,63.66l-.83-.17-1.49-.32a.77.77,0,1,1,.25-1.52h.07l2.17.45a.79.79,0,0,1,.67.76.76.76,0,0,1-.59.75Z"/><path class="cls-8" d="M56.83,37.9a.72.72,0,0,1-.42.63.74.74,0,0,1-.86-.11c-.36-.3-.71-.62-1.06-.94s-.46-.4-.68-.62a.76.76,0,0,1-.07-1.08.77.77,0,0,1,1.09-.07c.59.52,1.18,1,1.76,1.59A.74.74,0,0,1,56.83,37.9Z"/><path class="cls-8" d="M94.8,81.79a.84.84,0,0,1-.49.72.77.77,0,0,1-.84-.16,1.07,1.07,0,0,1-.14-.16l-1.24-1.88a.82.82,0,0,1-.14-.55.77.77,0,0,1,.57-.65.8.8,0,0,1,.85.34l.92,1.39c.11.16.23.32.33.48A3.8,3.8,0,0,1,94.8,81.79Z"/><path class="cls-8" d="M106.46,65.59l-.24,0-2.13-.6a.78.78,0,0,1-.62-.72.76.76,0,0,1,.72-.8.74.74,0,0,1,.21,0c.56.14,1.12.31,1.68.46.21.06.42.11.63.19a.77.77,0,0,1-.25,1.5Z"/><path class="cls-8" d="M80.33,26.33c-.06.73-.1,1.46-.16,2.19a.78.78,0,0,1-.82.72.77.77,0,0,1-.72-.81c0-.79.1-1.58.16-2.36a.77.77,0,0,1,1.54.07Z"/><path class="cls-8" d="M93.4,78.82a.84.84,0,0,1,.53-.73.78.78,0,0,1,.89.26l1.09,1.43.3.4a.77.77,0,1,1-1.22.95h0c-.48-.61-.95-1.24-1.41-1.87A1.85,1.85,0,0,1,93.4,78.82Z"/><path class="cls-8" d="M58,76.41a.79.79,0,0,1-.24.6l-1.63,1.6a.77.77,0,1,1-1.14-1L55,77.5c.54-.53,1.07-1.06,1.62-1.58a.76.76,0,0,1,.88-.17A.71.71,0,0,1,58,76.41Z"/><path class="cls-8" d="M84.36,82.85a.74.74,0,0,1,.73.53c.22.76.44,1.53.62,2.3a.76.76,0,0,1-.55.93h0a.77.77,0,0,1-.93-.55q-.31-1.12-.6-2.25a.77.77,0,0,1,.54-.94Z"/><path class="cls-8" d="M68.53,83.21a2.74,2.74,0,0,1,0,.28c-.25.71-.49,1.42-.76,2.13a.79.79,0,0,1-.85.53.77.77,0,0,1-.65-.87.5.5,0,0,1,0-.13c.24-.75.51-1.49.79-2.22a.76.76,0,0,1,.88-.49A.77.77,0,0,1,68.53,83.21Z"/><path class="cls-8" d="M95.86,36.24a.74.74,0,0,1-.75-.76.78.78,0,0,1,.09-.37,1.33,1.33,0,0,1,.14-.19l1.46-1.63a.78.78,0,0,1,1.37.67.85.85,0,0,1-.2.34l-.92,1-.58.65A.82.82,0,0,1,95.86,36.24Z"/><path class="cls-8" d="M56.76,75.08a.81.81,0,0,1-.27.64l-1.74,1.5a.78.78,0,0,1-1-1.18l1.74-1.49a.74.74,0,0,1,.86-.11A.69.69,0,0,1,56.76,75.08Z"/><path class="cls-8" d="M90,28.53a3.37,3.37,0,0,1-.1.34c-.28.67-.57,1.34-.86,2a.8.8,0,0,1-.65.52.76.76,0,0,1-.86-.65.74.74,0,0,1,0-.39c.29-.73.61-1.46.94-2.18a.78.78,0,0,1,.89-.43A.78.78,0,0,1,90,28.53Z"/><path class="cls-8" d="M95.17,31.35a1.82,1.82,0,0,1-.17.44c-.42.63-.86,1.26-1.3,1.89a.79.79,0,0,1-.91.3.72.72,0,0,1-.49-.75,1.06,1.06,0,0,1,.16-.45c.41-.62.83-1.23,1.26-1.84a.77.77,0,0,1,.82-.35.73.73,0,0,1,.58.53,1.66,1.66,0,0,1,0,.22Z"/><path class="cls-8" d="M97.88,79.45a.73.73,0,0,1-.44.69.78.78,0,0,1-.86-.15,4.59,4.59,0,0,1-.36-.41c-.39-.45-.78-.89-1.16-1.35a.77.77,0,0,1,1.06-1.12l.09.1c.37.41.73.83,1.08,1.25.13.15.27.3.4.46A.75.75,0,0,1,97.88,79.45Z"/><path class="cls-8" d="M82.36,26.47c0,.38-.11.82-.18,1.27s-.09.66-.14,1a.79.79,0,0,1-.87.69.76.76,0,0,1-.66-.85c0-.51.13-1,.2-1.52,0-.26.07-.52.11-.79a.78.78,0,0,1,1.54.2Z"/><path class="cls-8" d="M103.82,48.26a.77.77,0,0,1-.24-1.51l2.15-.73a.83.83,0,0,1,.31,0,.76.76,0,0,1,.73.63.79.79,0,0,1-.48.84c-.21.09-.44.15-.66.24l-1.49.5Z"/><path class="cls-8" d="M48.37,45.53a1.59,1.59,0,0,1,.3.06l2.08.73a.8.8,0,0,1,.56.9.78.78,0,0,1-.91.61l-.08,0c-.75-.25-1.5-.51-2.23-.79a.76.76,0,0,1-.49-.87A.78.78,0,0,1,48.37,45.53Z"/><path class="cls-8" d="M85.47,69.17a.56.56,0,0,1-1.12,0,.57.57,0,0,1,.56-.57h0A.58.58,0,0,1,85.47,69.17Z"/><path class="cls-8" d="M62,56.93a.56.56,0,1,1,.55-.56A.56.56,0,0,1,62,56.93Z"/><path class="cls-8" d="M70,69.35a.56.56,0,1,1-1.11,0,.57.57,0,0,1,.55-.57h0A.56.56,0,0,1,70,69.35Z"/><path class="cls-8" d="M53,62.89a.55.55,0,0,1-.56.55.56.56,0,1,1,0-1.11A.55.55,0,0,1,53,62.89Z"/><path class="cls-8" d="M88.63,74.42a.56.56,0,1,1-.56-.55h0A.56.56,0,0,1,88.63,74.42Z"/><path class="cls-8" d="M72.16,74.2a.55.55,0,1,1-.55.55A.55.55,0,0,1,72.16,74.2Z"/><path class="cls-8" d="M84.27,80.89a.55.55,0,0,1,0-1.1.55.55,0,1,1,0,1.1Z"/><path class="cls-8" d="M82.07,38a.56.56,0,0,1-.56.55A.56.56,0,0,1,81,38a.54.54,0,0,1,.56-.55A.56.56,0,0,1,82.07,38Z"/><path class="cls-8" d="M63.67,64.43a.55.55,0,0,1-.55-.55.55.55,0,0,1,.55-.55.55.55,0,1,1,0,1.1Z"/><path class="cls-8" d="M53.3,49.9a.56.56,0,0,1-1.11,0,.56.56,0,0,1,1.11,0Z"/><ellipse class="cls-8" cx="90.32" cy="48.53" rx="0.55" ry="0.56" transform="translate(41.6 138.75) rotate(-89.88)"/><ellipse class="cls-8" cx="65.88" cy="38.06" rx="0.55" ry="0.56" transform="translate(27.62 103.83) rotate(-89.82)"/><path class="cls-8" d="M94.46,39.08a.54.54,0,0,1-.53-.56.55.55,0,1,1,.53.56Z"/><ellipse class="cls-8" cx="58.16" cy="61.32" rx="0.56" ry="0.55" transform="translate(-0.11 0.1) rotate(-0.1)"/><path class="cls-8" d="M102.22,62.28a.56.56,0,0,1-1.12,0,.56.56,0,0,1,1.12,0Z"/><path class="cls-8" d="M56.24,56.43a.56.56,0,0,1-.56.54.55.55,0,1,1,0-1.1.56.56,0,0,1,.56.55Z"/><path class="cls-8" d="M58.91,39.12a.56.56,0,0,1-.55-.56.56.56,0,0,1,.56-.55.56.56,0,0,1,0,1.11Z"/><ellipse class="cls-8" cx="98.47" cy="55.84" rx="0.56" ry="0.55"/><path class="cls-8" d="M96,66a.56.56,0,0,1,.54.56.56.56,0,1,1-.55-.56Z"/><path class="cls-8" d="M95.39,50.46a.55.55,0,0,1,0,1.1.55.55,0,0,1-.55-.56A.56.56,0,0,1,95.39,50.46Z"/><path class="cls-8" d="M77.7,71.61a.54.54,0,0,1-.55.54.55.55,0,0,1,0-1.1.55.55,0,0,1,.55.55Z"/><path class="cls-8" d="M63.63,42.76a.55.55,0,1,1-1.1,0,.55.55,0,0,1,.55-.56h0a.55.55,0,0,1,.55.55Z"/><path class="cls-8" d="M90.35,64.14a.55.55,0,0,1-.55-.55.55.55,0,1,1,.55.55Z"/><ellipse class="cls-8" cx="58.37" cy="51.43" rx="0.56" ry="0.55" transform="translate(6.83 109.69) rotate(-89.89)"/><path class="cls-8" d="M95.46,60.17a.54.54,0,0,1,.55.55.55.55,0,0,1-1.1,0,.54.54,0,0,1,.54-.56Z"/><path class="cls-8" d="M63.13,69.29a.55.55,0,1,1,0,1.1.54.54,0,0,1-.54-.54.55.55,0,0,1,.54-.56Z"/><path class="cls-8" d="M70.5,81.24a.56.56,0,1,1,.57-.55.56.56,0,0,1-.56.55Z"/><path class="cls-8" d="M82.1,75a.56.56,0,1,1,0-1.11.56.56,0,0,1,.55.56h0A.56.56,0,0,1,82.1,75Z"/><path class="cls-8" d="M66.36,75.36a.55.55,0,0,1-.55-.55.55.55,0,0,1,1.1,0,.54.54,0,0,1-.54.56Z"/><path class="cls-8" d="M90.36,42.05a.55.55,0,1,1-.55.55.55.55,0,0,1,.55-.55Z"/><path class="cls-8" d="M72.26,38a.55.55,0,0,1-.55.55.54.54,0,0,1-.55-.55h0a.55.55,0,0,1,.55-.55A.55.55,0,0,1,72.26,38Z"/><path class="cls-8" d="M76.47,35.15A.55.55,0,1,1,77,34.6a.55.55,0,0,1-.56.55Z"/><path class="cls-8" d="M83.08,31.67a.55.55,0,1,1,0,1.1.55.55,0,0,1,0-1.1Z"/><path class="cls-8" d="M58.34,66.72a.54.54,0,0,1,.55.54h0a.55.55,0,0,1-.55.55.54.54,0,0,1-.55-.55A.55.55,0,0,1,58.34,66.72Z"/><path class="cls-8" d="M58.93,73.89a.55.55,0,1,1-.55.55h0a.55.55,0,0,1,.55-.55Z"/><path class="cls-8" d="M92.35,55.45a.55.55,0,1,1,0,1.1.55.55,0,0,1,0-1.1Z"/><path class="cls-8" d="M96,73.29a.56.56,0,0,1,.54.57h0a.56.56,0,1,1-.54-.58Z"/><path class="cls-8" d="M63.73,49.37a.55.55,0,0,1-.54-.56.55.55,0,0,1,.55-.55.56.56,0,0,1,0,1.11Z"/><path class="cls-8" d="M88,37.85a.55.55,0,1,1-1.1,0,.55.55,0,0,1,.54-.56.55.55,0,0,1,.56.54Z"/><path class="cls-8" d="M69.75,32.4a.55.55,0,0,1,.57-.54.54.54,0,0,1,.54.56.56.56,0,0,1-.56.54.55.55,0,0,1-.55-.54Z"/><path class="cls-8" d="M77.33,77.86a.55.55,0,1,1,.56-.54.54.54,0,0,1-.54.54Z"/><path class="cls-8" d="M58.47,45.45a.55.55,0,1,1-.55.55.53.53,0,0,1,.53-.55Z"/><path class="cls-8" d="M101.09,49.71a.55.55,0,1,1,0-1.1.55.55,0,0,1,.55.55.55.55,0,0,1-.54.55Z"/><path class="cls-8" d="M90.83,68.67a.55.55,0,0,1,.55.55.55.55,0,0,1-.55.55.55.55,0,0,1-.55-.55.54.54,0,0,1,.54-.55Z"/><path class="cls-8" d="M72.25,59.44V52.55h3a.79.79,0,0,1,.36.11,2.49,2.49,0,0,1,.78.77,1.8,1.8,0,0,1,0,2.08l-.34.42c.44,1,1,2.54,1.46,3.54H76l-.12-.25c-.39-.89-.79-1.78-1.18-2.68a.2.2,0,0,0-.2-.13h-.87v3ZM73.66,55h1.17a.09.09,0,0,0,.08,0,2.15,2.15,0,0,0,.32-.41.47.47,0,0,0-.29-.59l-.11,0H73.66Z"/><path class="cls-8" d="M71.52,56.22c0,.49,0,1,0,1.46A2.42,2.42,0,0,1,69,59.94a2.4,2.4,0,0,1-2.19-1.82,2.48,2.48,0,0,1-.07-.61V55a2.41,2.41,0,0,1,4.76-.56,4.11,4.11,0,0,1,.07.78v1.06Zm-1.41,0h0c0-.46,0-.92,0-1.37A1,1,0,0,0,69,54a1,1,0,0,0-.92.95v2.65a1,1,0,0,0,2,0c0-.44,0-.89,0-1.34Z"/><path class="cls-8" d="M87.42,56.11c0,.47,0,.94,0,1.41a2.41,2.41,0,0,1-4.75.46,2.38,2.38,0,0,1-.07-.59V54.81a2.41,2.41,0,0,1,4.82-.13c0,.48,0,1,0,1.43Zm-1.41,0h0V54.75a1,1,0,0,0-1-1,1,1,0,0,0-1,1v2.7a.91.91,0,0,0,.27.64,1,1,0,0,0,1.09.25,1,1,0,0,0,.64-.91c0-.43,0-.87,0-1.31Z"/><path class="cls-8" d="M77.46,52.44h4.13v1.41H78.86v1.3H81v1.41H78.86v1.61h2.7v1.41h-4.1Z"/><path class="cls-8" d="M77,49.77A2,2,0,0,1,78,50l2.1,1.13c.14.07.3.14.27.32a.34.34,0,0,1-.34.28,4.45,4.45,0,0,1-.73,0c-.4-.05-.81-.14-1.21-.17a14.73,14.73,0,0,0-3.51.13,1,1,0,0,1-.66-.09.4.4,0,0,1-.2-.24c0-.07.1-.18.18-.22.77-.4,1.55-.79,2.33-1.18A1.92,1.92,0,0,1,77,49.77Z"/><path class="cls-8" d="M77.22,62.72a2,2,0,0,1-.93-.2l-2.15-1.06c-.14-.07-.3-.13-.28-.32a.35.35,0,0,1,.34-.29,3,3,0,0,1,.73,0c.5,0,1,.12,1.51.14a14.49,14.49,0,0,0,3.22-.26,1,1,0,0,1,.66.07.45.45,0,0,1,.21.24c0,.07-.1.18-.17.23L78,62.54A1.63,1.63,0,0,1,77.22,62.72Z"/></g><path class="cls-2" d="M119.33,47.38c6.32,6.51-9.11,47.76-38.23,51.35C50.93,102.45,28.45,63,31.87,58.16c.6-.84,2.59-1.5,4.74-2.21a26.24,26.24,0,0,1,7.54-1.26,41.52,41.52,0,0,1,9.34.71c4.6.9,10.3.65,21.72.16C98.52,54.55,114.85,42.78,119.33,47.38Z"/></g><g id="Layer_3" data-name="Layer 3"><path class="cls-5" d="M87,121.42V76.53c.07-10.88,4.93-15.11,17.22-15.11,9.4,0,13.74,4.7,13.74,14.87v90.77c0,7.93-2.39,10.26-10.45,10.28H96c-6.31,0-9-2.64-9-9.09Z"/><path class="cls-5" d="M38.64,121.42V76.53c.07-10.88,4.93-15.11,17.22-15.11,9.4,0,13.74,4.7,13.74,14.87v90.77c0,7.93-2.39,10.26-10.45,10.28H47.64c-6.31,0-9-2.64-9-9.09Z"/></g></svg>