<svg id="Layer_1" data-name="Layer 1" xmlns="http://www.w3.org/2000/svg" viewBox="0 0 451.45 388.38"><defs><style>.cls-1{fill:#01adf3;fill-rule:evenodd;}</style></defs><g id="Layer_2" data-name="Layer 2"><g id="Layer_1-2" data-name="Layer 1-2"><path class="cls-1" d="M440.49,130.79c-.05-.59-.25-1.08-.09-1.37a6.05,6.05,0,0,1,1.52-2.09c.22-.17,1.22.46,1.69.9a21.88,21.88,0,0,1,6.71,11.45,57,57,0,0,1,.92,12.3c0,1.91-2.29,1.45-3.64,1.73s-2.66.36-4.12.55c.89,1.48,3.86,2.44,5.13,1.92,2-.83,2.69-.24,2.64,1.87-.08,3.47.09,6.95.1,10.42v24.41a5.62,5.62,0,0,1-1.52,4.07c-1.7,1.89-1.51,2.69.56,4.15a2.47,2.47,0,0,1,.91,1.7c0,13.2.39,26.41-.09,39.6-.41,11-6.27,19-16.33,23.65a27,27,0,0,1-11.57,2.19c-5.16,0-10.32.05-15.48,0a3,3,0,0,0-3.14,2.1,182,182,0,0,1-11.75,23.34,208.86,208.86,0,0,1-18.57,26.2c-1.24,1.54-2.65,2.95-4,4.37a3.62,3.62,0,0,1-1.33.89c-2.11.77-4.27,1.42-6.36,2.24-.38.15-.85,1-.71,1.33.47,1,1.08,2-.12,2.86-1.36,1-2.62,2.47-4.62,1.57-1.68-.75-3.32-1.6-5-2.36-1.15-.53-1.24-1.13-.38-2,5-5.29,10.09-10.58,15.08-15.91,2.29-2.44,5.28-3.12,8.37-3.61.64-.1,1.45.17,1.93-.13s1.15-1.38,1-1.65c-.94-1.52-2.11-2.89-3.4-4.57.49-.7,1.1-1.54,1.69-2.39a225.67,225.67,0,0,0,15.63-26.32c1.13-2.2,2.5-4.29,3.79-6.4.58-1,.65-1.85-.32-2.52a1.36,1.36,0,0,0-1.91.13,1.39,1.39,0,0,0-.32.77c-.47,2.18-1.92,2.42-3.64,2.13-2.92-.5-4.39.83-5.6,3.43a141.49,141.49,0,0,1-14.23,24C365.5,301.8,361,307.79,355.64,313c-.51.49-.82,1.2-1.32,1.69a8.16,8.16,0,0,1-2.08,1.62c-.43.2-1.11-.11-1.68-.18a4.67,4.67,0,0,1,.63-1.47,156.85,156.85,0,0,0,17.49-21.41c4-6,7.7-12.34,11.47-18.55a40.19,40.19,0,0,0,2.08-4.15c.72-1.53.25-2.25-1.46-2.25q-25.2,0-50.39.06a4.37,4.37,0,0,0-2.84,1.42c-4.41,4.89-8.42,10.15-13.08,14.77a111.74,111.74,0,0,1-27.13,20.13c-1.43.74-2.8,1.6-4.22,2.37a4.1,4.1,0,0,1-4.38-.19l4.37-2.48c2.7-1.53,5.49-2.91,8.08-4.62a144.07,144.07,0,0,0,12.3-8.67c4.44-3.64,8.61-7.63,12.67-11.7,2.78-2.78,5.19-6,7.72-9a6,6,0,0,0,.7-1.58,13.83,13.83,0,0,0-1.77-.53c-4.2-.69-7.23.79-10,4.17a96.12,96.12,0,0,1-17,15.74c-1.36,1-2.6,2.06-4.54,1.28-.54-.22-1.46.29-2.11.63a23.57,23.57,0,0,0-2.36,1.57c.88,2.28.89,2.32-1.64,3.58q-8,4-16.07,7.92a4.35,4.35,0,0,1-2.22.62,3.75,3.75,0,0,0-3.37,1.11c-.46.44-1.57.18-1.89.2a27,27,0,0,1-3.1,1.4,5.67,5.67,0,0,1-2.82.36,13.18,13.18,0,0,1-3-1.62c-.78-.44-1.57-.86-2.54-1.39-.07.7-.09.82-.09.94,0,1,2.54,1,1.28,2.39-2.1,2.37-4.62,2.81-6.54,1.46-.81-.57-1.28-.59-1.83.4a2.8,2.8,0,0,1-1.78,1.3,102.32,102.32,0,0,1-23,.83c-5.36-.49-10.69-1.33-16-2.16-2.53-.39-5-1.13-7.51-1.7-2-.47-2.4-1.06-1.87-3,.23-.86-1.1-2.8-2-2.81a1.15,1.15,0,0,0-.9.42,2.85,2.85,0,0,0,0,1.3c.11.7.29,1.39.44,2.08a5.61,5.61,0,0,1-2,.06c-3.49-1.26-7-2.61-10.39-4a1.54,1.54,0,0,1-.9-1c-.39-3-2.19-4.48-5-5.2-.79-.21-1.4-1-2-1.49-2.53.58-4.86,1.27-7.28-.34a127.4,127.4,0,0,1-18-14.15c-3.1-3-5.93-6.24-8.78-9.47a4.41,4.41,0,0,0-3.63-1.57c-2.13,0-4.34-.54-6.3.94a1.6,1.6,0,0,1-1.44-.2c-1.09-.81-2-1.86-3.14-2.64a6.69,6.69,0,0,0-2.51-.93c-.24,0-1,.82-.87,1.11.42,1.53-.41,1.83-1.6,1.83-2.94,0-5.89.07-8.82-.06a6.11,6.11,0,0,1-2.11-.82,25.71,25.71,0,0,1-4.42.84c-10.08.06-20.15,0-30.23,0-2.76,0-3,.27-1.75,2.64,1.31,2.55,2.66,5.08,4,7.62a1.64,1.64,0,0,1,.09,1.37,30,30,0,0,1-4-3.89,24.35,24.35,0,0,1-2.89-5.57,3.73,3.73,0,0,0-3.19-2.5c-2.32-.4-4.68-.66-6.67-2.14-.18-.13-.62.08-.94.14.15.32.25.9.45.94,1.25.24,1.19,1.09,1.18,2a4.28,4.28,0,0,0,.36,1.93c2.37,4.69,4.54,9.51,7.27,14,4.28,7,8.87,13.88,13.49,20.69a91.12,91.12,0,0,0,6.32,7.82c.82,1,1,1.59-.09,2.51-.44.37-.39,1.33-.56,2,.57,0,1.32.29,1.67,0a7,7,0,0,0,.93-2c.58.58,1.31,1,1.46,1.52.66,2.49,2,4.32,4.52,4.94-.55,2.2-.24,2.66,1.89,2.91.93.1,1.68.15,1.15,1.5s.46,1.73,1.45,1.52c1.42-.3,2.24.45,3.16,1.25,3.52,3.06,7,6.13,10.61,9.13,1.81,1.52,3.76,2.87,5.62,4.33a19.74,19.74,0,0,1,1.83,1.73,5.3,5.3,0,0,0-1.34.51,1.17,1.17,0,0,0-.35.86c0,.13.54.42.69.34,2.82-1.42,4.63,1.08,6.62,2,2.43,1.18,4.33,3.42,6.5,5.15a19,19,0,0,0,2.14,1.25c.74.45,1.47.93,2.2,1.39.2.12.49.39.61.33,2.81-1.36,4.49,1.2,6.6,2,6,2.38,11.93,5.21,18,7.62,4.44,1.77,9,3.35,13.55,4.69s9.13,2.17,13.68,3.3a25.64,25.64,0,0,1,2.48,1.19,6.69,6.69,0,0,0,2.17.38c.57,0,1.17-.43,1.72-.35,2.72.37,5.43.85,8.15,1.3a22.57,22.57,0,0,0,2.3.4c5.92.36,11.84.66,17.76,1.06a2.82,2.82,0,0,1,1.84,1c.61.85.93.94,1.81.28a6,6,0,0,1,3-1.24c6.27-.44,12.57-.61,18.84-1.11,3.2-.26,6.37-1,9.55-1.57,2.64-.46,5.28-1,7.92-1.42a9.45,9.45,0,0,0,1.59-.28c1.35-.5,2.71-1.46,3.87.84.23-2.16,1.44-2.33,2.81-2.57,1.8-.31,3.55-1,5.34-1.41,1.61-.38,3.25-.64,4.86-1a3.47,3.47,0,0,0,1.27-.57c1.94-1.4,3.94-2.21,6.32-1.05a12.1,12.1,0,0,0,2.46.52l-1.41-2.22c.95-.45,1.82-.93,2.73-1.28a190,190,0,0,0,28-14c.77-.46,1.52-1,2.25-1.48,1.38-1,2.71-1.84,4.08.09a1.55,1.55,0,0,0,1.39.09c.46-.84,1.17-1.95.94-2.68-.4-1.27.14-1.77.93-2.38,3.17-2.41,6.32-4.83,9.5-7.23,1.28-1,2.69-.68,3.5,1.09a4.26,4.26,0,0,0,3.55,2.82,10.05,10.05,0,0,1,2.57,1.36c-2,1.6-3.83,3-5.69,4.38-.14.1-1-.41-1.13-.77-.21-.73.06-1.61-.21-2.29s-.93-.87-1.43-1.28c-.33.42-.95.86-.93,1.27.12,2.67-2.38,3.6-3.48,5.43a.87.87,0,0,1-.82.16c-1.74-.83-2.6.11-3.46,1.47-.53.84-1.49,1.4-2.11,2.19a22.4,22.4,0,0,0-1.33,2.34,8,8,0,0,1-1.13,1.74,41.7,41.7,0,0,1-11.3,7.8c-5.43,2.65-10.84,5.31-16.28,7.92a25,25,0,0,1-4.47,1.79,8.61,8.61,0,0,1-2.95-.23c-.55-.07-1.09-.24-1.91-.42.65,2.38-.48,2.75-2.29,3.21-3.53.9-6.93,2.35-10.4,3.5-1.41.47-2.87.8-4.33,1.13-2.24.51-4.48,1-6.75,1.44-6.62,1.23-13.26,2.45-19.9,3.61a6,6,0,0,1-4.66-.69,7.84,7.84,0,0,0-2.7-.55c-.1,2.05-1.24,2.35-2.83,2.08a23.7,23.7,0,0,0-3.76-.36c-.53,0-1.06.63-1.6.65-1.29,0-2.6-.13-3.89-.22-.39,0-.88-.29-1.13-.13a3,3,0,0,1-4.19-.69,1.63,1.63,0,0,1-.11-.17,4,4,0,0,0-4.29-1.43c.17.68.68,1.63.41,2a2.7,2.7,0,0,1-2,.74q-9.3-.7-18.58-1.6c-3.45-.35-6.89-.86-10.29-1.52-3.75-.73-7.45-1.68-11.16-2.58-3-.74-6.08-1.49-9.09-2.34-2.4-.68-4.78-1.45-7.12-2.32-4.07-1.51-8.27-2.79-12.08-4.8-3.55-1.86-7.32-3.09-10.91-4.79a16.89,16.89,0,0,1-2-1.1,6.22,6.22,0,0,1-.92-.93,4.21,4.21,0,0,1,1-.78,21.9,21.9,0,0,1,2.22-.69c-1.7-1.76-3.65-.91-5-.31-1.72.79-2.77,0-3.87-.65q-6.39-3.69-12.6-7.62c-2.06-1.3-4-2.79-5.94-4.23-1.23-.9-2.32-1.9-2.41-3.61,0-.36-.34-.71-.52-1.06-2.08,1.07-2.07,1.07-4-.45q-3.57-2.86-7.16-5.71c-1.63-1.3-1.58-2.15-.1-3.59a18.85,18.85,0,0,0,2-2.84c-.19-.76-.4-1.6-.6-2.44a2.59,2.59,0,0,0-2.48-2.15c-2.37-.36-4.22.88-6.17,1.73-1.26.55-1.85.73-2.36-.86-.37-1.15-1.79-2-.39-3.4-1.63-1.28-1.8.06-2.15,1.23a5.07,5.07,0,0,1-1.27-.7c-4.08-4.7-8.33-9.28-12.14-14.18A161.7,161.7,0,0,1,61,298.14c-4.51-7.51-8.49-15.33-12.62-23.07a45,45,0,0,1-2.33-5.6c-.49-1.3-1.47-1.39-2.61-1.37-4.14.07-8.3.42-12.41.1-4.81-.38-9.74-.78-14.3-2.2-6.83-2.13-12.17-6.33-15-13.41-1.39-4-1.48-8.19-1.49-12.42a1.25,1.25,0,0,1,.82-.93,9.82,9.82,0,0,1,2.54,0,6.71,6.71,0,0,1,1.56.6,5.72,5.72,0,0,0-.38-1.78,7,7,0,0,0-1.54-1.34c0-.24,0-.4.09-.46,1.85-1.49,1.88-1.52,0-3.26-.77-.71-.91-1.36,0-1.85a32.49,32.49,0,0,1,3.28-1.38,28.15,28.15,0,0,1,2.24,2.64A5.57,5.57,0,0,1,9.94,235a47.63,47.63,0,0,1-.31,5.47c0,.18-.14.36-.11.52,1,5.16,1.81,10.46,6.9,13.58A24.47,24.47,0,0,0,28,258.1c3.76.24,7.55.08,11.33.08H67.17A2.49,2.49,0,0,1,69.94,260a8.3,8.3,0,0,0,4.91,4.83,5,5,0,0,1,1.86,1.47c.73.82,1.27.93,1.66-.21a5.27,5.27,0,0,0,.57-2.4,3.61,3.61,0,0,0-1.45-2.16,51.84,51.84,0,0,0-5.06-2.38v-.54a6.35,6.35,0,0,1,1.6-.45c11.16,0,22.32,0,33.48.07a4.88,4.88,0,0,1,2.6,1.2c1.33,1,1.94,1,3-.29a2.46,2.46,0,0,1,1.71-.92c2.56,0,5.11.33,7.67.38,1.16,0,2.33-.4,3.5-.4q21.33,0,42.66-.05c1.74,0,3.17,0,2.89,2.35a.68.68,0,0,0,.13.33c.06.1.15.18.59.7.3-.83.73-1.43.67-2-.12-1,.32-1.34,1.17-1.35,1.14,0,2.28,0,3.42.05.31,0,.82.22.89.45.55,1.63,1.87,1.37,3.12,1.42,1.1.05,2.2.21,3.41.33,0-.76-.09-1.33-.14-2.09.76-.06,1.45-.18,2.14-.18,11.88,0,23.77-.22,35.64.11a28.23,28.23,0,0,1,12,3.13,4.64,4.64,0,0,0,1.7.14,8.33,8.33,0,0,0-1.16-1.61c-.3-.27-.92-.13-1.35-.31a8.93,8.93,0,0,1-1.36-.82,4.82,4.82,0,0,1,1.46-.66c1.19-.08,2.39,0,3.59,0,8.4,0,16.8-.06,25.2,0a8.26,8.26,0,0,1,6.32,2.9c.8.92,1,1.87-.47,2.55-1.27.58-2.34,1.38-1.29,3.07.1.16-.56,1.15-.88,1.15q-15.81.27-31.62.38c-7.64.05-15.3.3-22.92-.13-3.13-.17-6.1-.59-9.29,0s-6.46.17-9.7.12a17.49,17.49,0,0,1-2.6-.47,5.79,5.79,0,0,0-1.55-.15,39.66,39.66,0,0,1-4.72.65q-16.11.06-32.22-.06c-1.6,0-2.44.47-2.83,2-.24.95-.3,1.58.78,2,.49.2,1.19.77,1.19,1.18,0,2.35,1.15,2.95,3.83,1.91a31.28,31.28,0,0,0-1.83,4.35c-.09.37.72,1.2,1.28,1.47a18,18,0,0,0,2.9.79c1,.29,1.21-.27,1.31-1.12.26-2.34.89-2.59,2.79-1.2a28.23,28.23,0,0,1,2.74,2,10.51,10.51,0,0,1,1.51,2.32,14.77,14.77,0,0,0,.78,1.78c.39.54,1,1.22,1.52,1.29s.89-.84,1.58-1.57c1.9,1,4,2.18,6.18,3.21,4.07,1.93,8.13,3.91,12.3,5.59a91.72,91.72,0,0,0,10.85,3.56,70.57,70.57,0,0,0,11.34,2.3c6.43.62,12.91.76,19.36,1.14a2.58,2.58,0,0,1,1.76.62c1.14,1.68,2.73.78,3.41.13,1.7-1.61,3.74-1.4,5.69-1.75,2.68-.49,5.45-.63,8.06-1.35a6,6,0,0,1,4.63.49,3.28,3.28,0,0,0,2.12.09c.22-.06.15-1.1.23-1.84,2.13-1.67,5.52-2.06,8.72-.85-.06.32-.27.73-.15,1a5,5,0,0,0,.9,1.05c.28-.39.56-.79.82-1.19v-.16c-.25-.91-1-2.15-.64-2.65a8.15,8.15,0,0,1,3-2.19c4-2.11,8-4.23,12.12-6.14,1.06-.49,2.48-.18,3.72-.35,1-.18,1.92-.41,2.87-.68l-.06-.62-1.83-.85c.1-.26.1-.49.22-.58q4.67-3.48,9.37-7c.77-.57,1.24-.48,1.6.5a5.54,5.54,0,0,0,1.12,1.43c.51-.43,1.19-.76,1.51-1.31,1.5-2.57,2.9-5.19,4.57-8.22a23.59,23.59,0,0,0-2.9-.57c-2-.14-2.23-.41-1.93-2.44.23-1.54.41-3.09.59-4.63,0-.14-.15-.31-.37-.74a15.31,15.31,0,0,0-1.56,1.34c-.71.8-1.32,1.71-2,2.51-2.61,3-5.71,4.5-9.83,4-3.37-.4-6.79-.36-10.19-.47-.46,0-.92.3-1.38.32a13.45,13.45,0,0,1-2-.22c2.09-1.86,2.07-1.85.86-4.35a33.36,33.36,0,0,1-1.72-4.09c-.11-.33.34-.95.68-1.28.18-.19.68-.05,1-.05h26.1a6.26,6.26,0,0,1,3.11,1c2.17,1.39,3.83,1.3,5.82-.38a3.58,3.58,0,0,1,2.1-.65,91.2,91.2,0,0,1,11.69.06c4.29.46,8.49-.32,12.74-.13a93.83,93.83,0,0,0,12.77,0c3.47-.32,5.42,1.07,7.07,3.83a6.1,6.1,0,0,0,5.18,3.4,2,2,0,0,0,2.41-1.63l0-.18c.12-.58.75-1.46,1.18-1.48a3.21,3.21,0,0,1,1.93,1,17.52,17.52,0,0,1,1.79,2.5,20.37,20.37,0,0,1,1.67-2.27c1.77-1.81,4.05-1.72,5.49.33a1.78,1.78,0,0,0,2.39.77l.18-.1c2.14-.92,4.33-1.68,6.47-2.61,1.34-.58,2-.26,2.27,1.19.24,1.29.44,2.57,2.35,2.58s2.48-1.42,3.11-2.72c.1-.22-.61-1.17-1-1.22-1.38-.19-1.93-.87-1.75-2.18s1.36-1.09,2.25-1.09c3.9,0,7.8-.07,11.7,0a36.38,36.38,0,0,1,4,.7,8,8,0,0,0,2.29,0,38.4,38.4,0,0,1,4.13-.74c3.83-.11,7.68-.08,11.51,0,7.84.1,13.41-3.52,16.73-10.47a15.48,15.48,0,0,0,1.31-6.26c.14-9.77.06-19.56.06-29.33V148.24c0-1.06.29-2.11.38-3.17a2.57,2.57,0,0,0-.23-1.13c-.45-1-1-2,.19-2.91.17-.14.31-.64.21-.77a39.84,39.84,0,0,0-3.46-4c-1-.91-2.32-1.43-3.34-2.3a1.74,1.74,0,0,1-.19-1.68C435.8,130.94,438.57,130.13,440.49,130.79ZM303.11,268.62c2.38.46,5.81-1.82,6.2-3.76a20.42,20.42,0,0,1,.78-2.15c.21-.62.37-1.27.55-1.9-.9,0-2.29-.36-2.6.07C306.27,263.32,304.77,266,303.11,268.62Zm-114.88-2c-.13-.37-.16-.81-.34-.87-2.29-.86-4.59-1.7-6.92-2.49a11.7,11.7,0,0,0-2.34-.47,3.78,3.78,0,0,0-1.15.22c.24.35.41.82.74,1,.49.28,1.21.21,1.64.53a9.9,9.9,0,0,0,8.37,2.11ZM124.38,263a15,15,0,0,0,.6,1.83,4,4,0,0,0,4.23,2.19,4.92,4.92,0,0,0,1.46-.7c-.34-.57-.56-1.44-1.06-1.65A47.18,47.18,0,0,0,124.38,263Zm211.35,81.5c1.54,1,2.57,1,3.56-.2a12.33,12.33,0,0,1,1.65-1.31c.24-.22.62-.65.55-.79a1.34,1.34,0,0,0-.85-.71,3.14,3.14,0,0,0-1.86.25,34.34,34.34,0,0,0-3,2.73Zm109.86-145.4c-2.14,0-2.66.86-1.94,2.31a5.3,5.3,0,0,0,.82,1.37c.27.3.83.68,1.08.57a1.57,1.57,0,0,0,.67-1.09,5.57,5.57,0,0,0-.08-1.91,5.82,5.82,0,0,0-.55-1.28ZM183.66,301.33c-.14-1.11-.2-2-.37-2.9-.07-.36-.32-.87-.59-.95a1.14,1.14,0,0,0-1,.4,26.19,26.19,0,0,0-1.24,2.69c.76.25,1.51.54,2.29.75A3.43,3.43,0,0,0,183.66,301.33Zm-93,24.43c.27,1.13.49,2.27.82,3.38.09.32.45.57.68.86.28-.26.68-.47.79-.78.76-2.1.23-2.79-2.32-3.46Zm137.39-65.62-1-.42c-.18.54-.68,1.38-.49,1.58a6.59,6.59,0,0,0,2.33,1.61c.26.1.87-.65,1.33-1Zm9.5,45.89c-4-1.67-4-1.67-4.92-.15C234.19,306.28,235.61,307.64,237.55,306Zm-55.44,69.16L182,376a3.19,3.19,0,0,0,3.25,1.22,1.22,1.22,0,0,0,.79-.56c.08-.12-.15-.65-.32-.7-1.18-.32-2.38-.53-3.57-.76ZM121.19,353l-2.07-2.27c-.27.29-.82.71-.76.85a11.13,11.13,0,0,0,1.36,2.21c.14.19.65.22.94.13s.27-.49.53-1ZM59.82,263.28c-.08.28-.16.55-.25.83.89.32,1.76.7,2.67.93.27.07.66-.32,1-.5-.22-.31-.4-.84-.68-.9A25.36,25.36,0,0,0,59.82,263.28ZM253.26,381.85c-.32.8-.66,1.28-.55,1.42a25,25,0,0,0,1.85,2c.2-.31.65-.76.56-.9C254.66,383.61,254.05,382.93,253.26,381.85Zm13.64-83.52,2.86-1.62c-.87-1.2-1.95-.66-2.82-.2-.26.13,0,1.18,0,1.82Zm-98.17,79.34.48-.55c.74-.14,1.48-.25,2.2-.44a3.13,3.13,0,0,0,.8-.49c-.27-.26-.53-.74-.8-.74a11.29,11.29,0,0,0-2.46.33,1,1,0,0,0-.6.74,3.62,3.62,0,0,0,.38,1.15Zm-19.13-7.9,1.52-1.73c-.39-.28-.89-.87-1.14-.77a3.65,3.65,0,0,0-1.44,1.2,8.25,8.25,0,0,0,1.06,1.3Zm3.62,2.28c.4-.69.87-1.26.78-1.37a5.78,5.78,0,0,0-1.51-1.23c-.07,0-.81.73-.75.84a13.61,13.61,0,0,0,1.48,1.74Zm167-14.65,1.62-1.7c-.39-.31-1-1-1.12-.88a3.3,3.3,0,0,0-1.23,1.31c-.09.18.36.66.73,1.27Zm-154,17.26c-.48.64-1,1.07-1,1.36a1.48,1.48,0,0,0,1,1c.34.05.75-.5,1.13-.79Zm135.13-7.34.64-.84a20.41,20.41,0,0,0-1.8-1.08,4.73,4.73,0,0,0-.61.68ZM7.05,243.32c0-.33-.07-.66-.1-1-.71.12-1.43.22-2.13.38a3.59,3.59,0,0,0,0,.73C5.64,243.43,6.36,243.37,7.05,243.32Z"/><path class="cls-1" d="M145.05,109c.49,2.11,1.24,2.63,2.84,1.55.54-.36,1.59,0,2.39.07a12.34,12.34,0,0,1,1.87.6c-1.37-2.12-1.37-2.12-6-3.12a28.55,28.55,0,0,1,2.54-2.5c4.44-3.35,8.82-6.78,13.41-9.92a94.55,94.55,0,0,1,18.73-9.78c1.69-.67,1.7-.64,3.36,1a29.48,29.48,0,0,1,3.22-3,10.48,10.48,0,0,1,3.5-1.59c4.74-1.15,9.51-2.24,14.29-3.22a55.91,55.91,0,0,1,9-1.37c7.08-.24,14.16-.29,21.23-.11,1.79,0,3.55,1.25,5.34,1.88.53.2,1.31.59,1.63.37,2-1.33,4.16-.93,6.11-.48,5.17,1.21,10.29,2.66,15.37,4.21,2.41.73,2.41,1.37.6,3.13-1.59,1.55-3.16,3.12-4.69,4.73-.83.87-1.65.8-2.75.53-5.32-1.28-10.63-2.74-16-3.52s-10.85-.91-16.28-1.2c-2.15-.11-4.32.23-6.47.13-5.88-.31-11.44,1.26-17,2.69-2.24.56-4.58.78-6.81,1.39a58.13,58.13,0,0,0-6,2.19c-7.87,3.22-15.55,6.8-22.54,11.69a112.37,112.37,0,0,0-15,12.17,3.4,3.4,0,0,1-1.84.92c-3,.34-4.4,1.4-5.35,4.36a26.59,26.59,0,0,1-1.35,3.88c-.74,1.48-1.83,2.68-3.77,2.5-.34,0-.83-.06-1,.13-1.43,1.46-3.24,1-4.93,1H121.13a5.43,5.43,0,0,1-1.7-.62c.53-.47,1-1.21,1.6-1.37,1-.25,2,0,3-.2a3.43,3.43,0,0,0,1.74-1.25c.13-.16-.46-.91-.74-1.38s-.67-.74-.72-1.15c-.12-.91,0-2-1.31-1.93s-3-.51-3.67,1.39a2.16,2.16,0,0,1-.85,1.12c-2.27,1.18-4.56,2.36-6.91,3.38a1.78,1.78,0,0,1-2.69-.92c-.12-.29-.76-.66-1-.57-1.72.72-3.93.3-5.16,2.16-.85,1.28-2,1.33-3.45,1.26-2.86-.14-5.73.09-8.6.1H26.05c-7.7,0-12.54,4-14.68,11.45-2.43,8.42-2.11,17-1.7,25.53.82,17.26,1.25,34.52.75,51.8-.12,4.1-.31,4.18-3.83,2.32-.68-.36-1.48-.52-2.13-.93a14.73,14.73,0,0,1-2.06-1.71c-.25-.23-.33-.76-.6-.85-1.94-.64-1.75-2.21-1.75-3.71v-6.84c0-1.92-.56-4,2.18-5.29-2.75-.9-2.18-2.85-2.18-4.56,0-16.2-.07-32.39.05-48.59a51.43,51.43,0,0,1,1.14-11.2,19.87,19.87,0,0,1,10.67-13.52,36.58,36.58,0,0,1,18-4.12c4.5.1,9,0,13.5.1,1.6,0,2.31-.54,3-2.11,2.08-4.82,4.49-9.49,6.81-14.2a1.67,1.67,0,0,1,1.06-.85c2.32-.39,3.36-2,4.25-4a20,20,0,0,1,1.73-2.55l.48.17a8.66,8.66,0,0,1-.5-1.07c-.28-.9-1-2-.7-2.68a3.13,3.13,0,0,1,3.1-2,23.42,23.42,0,0,0,4.56-.65c.45-.1.74-.89,1.1-1.37-.59-.15-1.24-.55-1.75-.41-1.47.39-2.89,1-4.8,1.69a11.25,11.25,0,0,1,.77-2.1c2.2-3.21,4.41-6.42,6.72-9.55.43-.58,1.31-.83,2-1.23l1.16,2a8.43,8.43,0,0,0,.81,1.26c.06.08.72-.16.72-.25A2.57,2.57,0,0,0,73.67,79c-.92-1.35-.16-1.63,1-1.83,1.87-.33,2.33-1.68,1.21-3.26-.56-.78-2.09-1.11-1.21-2.59,1-1.72,1.93-2.15,4.14-1.76,0-2.31,1.46-2.41,3.3-2.16a2.82,2.82,0,0,0,3.38-1.75c.12-.28,1.18-.5,1.58-.29a17.85,17.85,0,0,1,2.6,1.9c1,.83.88,1.46-.21,2.21-2.11,1.44-4.17,3-6.14,4.59-.53.43-.67,1.33-1,2a36.52,36.52,0,0,1-2.49,5.25c-3.73,5.5-7.78,10.85-11.39,16.45-2.67,4.09-5,8.44-7.31,12.73-1.28,2.3-2.42,4.67-3.52,7.06-.89,1.9-.35,2.41,1.76,2.66,4,.48,6.5-.59,8.42-4.74,3-6.53,7.06-12.6,10.83-18.78a91.48,91.48,0,0,1,5.59-7.7c.28-.36,1-.35,1.58-.52.07.63.41,1.43.14,1.85-1.13,1.83-2.44,3.55-3.69,5.3a170.6,170.6,0,0,0-13,22c-1.15,2.25-.93,2.58,1.7,2.58,15.06,0,30.12-.19,45.17.12,4.63.09,7.62-1.13,10.47-4.92,8.43-11.2,19-20.26,30.76-27.79A110.16,110.16,0,0,1,177.72,77c3.29-1.23,6.52-2.63,9.86-3.7,3-1,6.09-1.59,9.16-2.31,2.5-.59,5-1.18,7.53-1.61A120.59,120.59,0,0,1,237,68.1c4.08.41,8.12,1.13,12.18,1.71a9,9,0,0,1,2.12.35,6.77,6.77,0,0,1,1.5,1.16c-.55.35-1.07.93-1.65,1a8.66,8.66,0,0,1-3-.19c-8.52-2.19-17.23-2.17-25.91-2a134.29,134.29,0,0,0-17,1.33A114.83,114.83,0,0,0,190.59,75c-4.13,1.18-8.21,2.57-12.21,4.14a120.83,120.83,0,0,0-19.33,9.94c-10.76,6.65-19.78,15.26-28.24,24.52a54,54,0,0,0-3.72,4.62,2,2,0,0,0-.4,1.41c0,.22.77.36,1.21.44a6.63,6.63,0,0,0,1.26,0c4,.73,6.91-.69,9-4.11.36-.57,1.45-.72,2.23-1a7.8,7.8,0,0,1,1.53-.18c-.14-.45-.3-.9-.41-1.36s-.23-.81-.08-1C142.55,111.39,143.7,110.31,145.05,109ZM3.16,214.35c-.16.31-.64.78-.64,1.27,0,1.16.21,2.39,1.72,2.43a1.7,1.7,0,0,0,1.34-.94,2.57,2.57,0,0,0-2.35-2.76Zm98.89-89.43c-1.1-1.13-4.25-2-5.21-1.43a1.18,1.18,0,0,0-.57.94c.09.38.53,1,.8,1C98.73,125.32,100.34,125.1,102.05,124.92Zm143.7-40.28.06.84a20.5,20.5,0,0,0,3.22.38c.38,0,.75-.68,1.13-1-.37-.32-.77-.94-1.1-.91A26.64,26.64,0,0,0,245.75,84.64ZM114.31,126c.13-.27.27-.54.41-.8a14.19,14.19,0,0,0-2-1.54c-.25-.14-.8.26-1.21.41.16.37.22.94.5,1.09A15.41,15.41,0,0,0,114.31,126Zm-31.37-2.35-.53.49a12.54,12.54,0,0,0,1.39,2A1.22,1.22,0,0,0,85,126a1.18,1.18,0,0,0,0-1.18,14.21,14.21,0,0,0-2.07-1.19Zm67.37-10a5,5,0,0,1,.07-.54,6,6,0,0,0-1.56-.71c-.43-.06-.9.28-1.35.45.44.39.83,1,1.34,1.13s1-.2,1.5-.33Z"/><path class="cls-1" d="M317.76,110.2a4,4,0,0,1,4.47,1.83c1.62,2.22,3.47,4.27,5.16,6.45a3.89,3.89,0,0,0,3.51,1.67c3.77-.11,7.56-.08,11.33,0a27.35,27.35,0,0,1,3.1.6,3.83,3.83,0,0,0,1.84-.15c1.51-.66,2.76-.82,3.53,1a2.67,2.67,0,0,0,1,1,1.11,1.11,0,0,0,1,.12.94.94,0,0,0,.15-.91c-1-1.74.12-1.77,1.36-1.77h26.1c2.54,0,2.94-.73,1.67-3q-3.41-6.06-6.79-12.15a8.1,8.1,0,0,1-.47-1.36c2-.52,3,.68,3.63,1.88,2.12,3.73,4.19,7.5,6.06,11.36,1.09,2.25,2.29,3.83,5.1,3.31a19.41,19.41,0,0,1,3.05,0c1.73-.06,2.08-.58,1.37-2.1-1-2.16-2.06-4.32-3.12-6.46-.5-1-.66-1.82.31-2.73.76-.71,1.1-2-.22-2.29-3.49-.75-4.63-3.61-6.28-6.16-3.56-5.53-7.08-11.1-11-16.39C370,79,365.87,74.4,362,69.64c-.22-.27-.61-.69-.53-.88,1.13-2.85-1.68-2.46-2.8-3.44-.21-.19-.63-.13-.83-.32-3.3-3.28-6.57-6.58-9.87-9.86a12.4,12.4,0,0,0-1.72-1.34c-.5-.35-1-.64-1.61-1,1.87-1.82,1.8-1.9-.5-2.87-3.41-1.42-7-2.49-9.89-5-1.81-1.56-2-3.1-.14-4.58s1.89-1.47.42-3.5a12.54,12.54,0,0,1-.73-1.41c1.75-.28,3.22-1.16,4.81.15,6.78,5.52,13.63,11,20.34,16.57a65,65,0,0,1,7,6.88C371.05,65,376.05,71,381,77a2.55,2.55,0,0,1,.12,2.31c-.67,1.18-.37,1.64.79,1.9.52.12,1.06.16,1.58.28.33.08.82.16.94.39,1.74,3.42,4.92,5.86,6.48,9.39a6.75,6.75,0,0,1,.25,1.84c.07.55.15,1.1.2,1.65a12.23,12.23,0,0,1,.08,1.48c0,.58-.31,1.46,0,1.7.66.57,1.74,1.35,2.36,1.15,1.61-.52,2.18.46,2.65,1.44,2.82,5.85,5.56,11.75,8.32,17.63a2.92,2.92,0,0,0,3,2c5-.1,10,0,14.94,0,2.12,0,2.12,0,1.33,2-.13.33,0,1.09.25,1.19,1.33.54,1.58,1.67,1.87,2.85a10.29,10.29,0,0,0,.66,1.86c1,2.15.83,2.34-1.44,2.33-7.56,0-15.12-.08-22.68,0a6.42,6.42,0,0,1-5.14-2c-1.23-1.27-2.07-1.06-2.54.63-.37,1.34-1.27,1.24-2.22,1.24H353a14.56,14.56,0,0,1-2.92-.6,2.56,2.56,0,0,0-.82-.13,38.35,38.35,0,0,1-5,.72q-54.45.07-108.89,0a20.43,20.43,0,0,1-2.21-.23c-.06-.15-.11-.31-.16-.46a6.7,6.7,0,0,1,1.51-1.25,14.94,14.94,0,0,0,6.82-6.4,3.36,3.36,0,0,1,3.17-1.85c18.36.06,36.72,0,55.08,0a3.32,3.32,0,0,0,.89,0,13,13,0,0,0,1.45-.48c-.21-.47-.29-1.08-.64-1.37-4.44-3.75-8.73-7.69-13.42-11.09a129.83,129.83,0,0,0-13.38-8.2,108.69,108.69,0,0,0-10.05-4.63c-1.19-.51-1.62-1.2-.85-2.16a47.51,47.51,0,0,1,4.87-5.45,3.34,3.34,0,0,1,2.89-.46,103.59,103.59,0,0,1,20.94,11.33,111.44,111.44,0,0,1,18.18,15.69c1.71,1.85,3.49,3.63,5.14,5.54a3.56,3.56,0,0,0,3.13,1.32c2-.1,4,0,6,0,.1-.21.2-.41.31-.61-1.1-1.45-2.16-2.93-3.31-4.33s-2.33-2.58-3.45-3.9a4.62,4.62,0,0,1-.48-1.12Zm57.51-34-3.22,3.89c.48.34,1.4,1.21,1.55,1.09a10.76,10.76,0,0,0,2.6-2.74c.2-.36-.54-1.31-.93-2.22Z"/><path class="cls-1" d="M193.23,202.58c.06-.86.16-1.71.16-2.57V181.47c0-2.19.2-2.38,2.34-2.39h7.38c2.19,0,2.39.2,2.39,2.34v56.52c0,2.36,0,2.37-2.44,2.37h-7.92c-1.15,0-1.7-.31-1.92-1.55-.56-3.28-1.25-6.54-2-9.8-.86-3.94-1.82-7.86-2.66-11.8a32.2,32.2,0,0,1-.42-3.67h-.55c-.09,1.19-.25,2.38-.26,3.56v20.88c0,2.38,0,2.38-2.41,2.38H177c-1.3,0-1.82-.42-1.82-1.76V181c0-1.36.45-1.95,1.88-1.91,2.94.07,5.88,0,8.82,0,1.64,0,2.27.78,2.5,2.38.43,2.88,1.15,5.72,1.7,8.58.46,2.46.84,4.93,1.3,7.39.33,1.74.73,3.46,1.1,5.19Z"/><path class="cls-1" d="M300.42,214.81a24.31,24.31,0,0,0-.38,2.81c0,6.84,0,13.68.13,20.52,0,1.69-.62,2.24-2.21,2.19-2.4-.07-4.8,0-7.2,0s-2.54,0-2.54-2.47V180.81c0-1.17.45-1.75,1.71-1.73,3,0,6-.06,9,.07a2.42,2.42,0,0,1,1.81,1.25,50.07,50.07,0,0,1,1.48,6.27c.82,4.45,1.52,8.92,2.33,13.37a13.06,13.06,0,0,0,.89,2.35l.63-.09a23.27,23.27,0,0,0,.26-2.5V181.45c0-2.18.17-2.34,2.37-2.35h7.2c2.4,0,2.57.23,2.57,2.58v45.71c0,3.66-.05,7.32,0,11,0,1.47-.45,2-2,2-2.88-.1-5.76-.06-8.64,0a1.9,1.9,0,0,1-2.2-1.54.85.85,0,0,1,0-.23q-1.12-6.17-2.33-12.31c-.71-3.57-1.47-7.12-2.23-10.68C301.05,215.42,300.88,215.31,300.42,214.81Z"/><path class="cls-1" d="M65.75,179.08H74.2c1.48,0,2.07.47,2.21,2.06.48,5.53,1.14,11,1.73,16.57.08.72.15,1.43.22,2.15q.89,8.89,1.78,17.81l.21,2.36c.55,6.24,1.07,12.48,1.69,18.71.11,1.13-.2,1.6-1.28,1.61-3,0-6.11.06-9.17,0A1.94,1.94,0,0,1,70.31,239c-.41-2.18-.69-4.38-.9-6.58-.14-1.37-.63-2-2.13-2-5.49.11-4.8-.65-5.58,4.74a27,27,0,0,0-.24,3.59c0,1.13-.47,1.62-1.62,1.61h-9c-1.33,0-1.62-.6-1.5-1.8.68-6.78,1.3-13.56,2-20.34s1.34-13.43,2-20.15c.37-3.85.64-7.72,1-11.57a44.83,44.83,0,0,1,1-6.19,2.26,2.26,0,0,1,1.79-1.13C60,179,62.87,179.08,65.75,179.08Zm0,14.29h-.7a25.32,25.32,0,0,0-.5,2.87c-.22,3.64-.35,7.29-.54,10.93-.21,4-.46,8-.68,12-.07,1.19.49,1.72,1.7,1.8,3.21.19,3.41,0,3.29-3.16a7.55,7.55,0,0,0-.07-1.25q-1-10.71-2-21.41a13.64,13.64,0,0,0-.45-1.78Z"/><path class="cls-1" d="M256.23,2c-.39,1.14-.59,1.73-.93,2.71a8.45,8.45,0,0,0,2-.8c1.5-1.26,3.18-1.22,4.92-.83,3.71.84,7.43,1.65,11.12,2.6,4,1,8,2,11.86,3.35,5.79,2,11.5,4.16,17.22,6.33,1.71.64,1.77,1.22.62,2.6s-2.23,2.66-3.26,4.06a3.44,3.44,0,0,1-4.1,1.41c-2.34-.73-4.63-1.59-6.95-2.37-2.7-.92-5.42-1.81-8.12-2.73a8.53,8.53,0,0,1-1.05-.52,4.61,4.61,0,0,1,.16-.64c.2-.63.42-1.25.63-1.87-.79,0-2-.26-2.3.13-2,2.6-4.25.77-6.35.4-2.26-.4-4.47-1.1-6.71-1.64-.58-.15-1.28-.06-1.74-.36-2.57-1.67-5.43-1.49-8.31-1.67-4-.26-7.93-1-11.91-1.41-2.91-.3-5.85-.48-8.78-.54-6.36-.13-12.71-.13-19.07-.2-2,0-4-.11-6-.12-.31,0-.61.31-.92.45a6,6,0,0,1-1.62.7c-3.55.43-7.13.71-10.67,1.21-2.65.37-5.26,1-7.88,1.53-2.21.45-4.42.9-6.62,1.41-1.51.35-3,.73-4.47,1.21-5.72,1.84-11.42,3.74-17.13,5.59-.65.21-1.34.29-2.35.5.62-1.54,1.1-2.71,1.57-3.89l-.59-.38c-.47.44-1,.86-1.42,1.33a23.72,23.72,0,0,1-1.63,1.9,1.36,1.36,0,0,1-2.36-.43c-.29-1.39-.53-2.49-2.07-2.9-.13,0-.2-.78-.1-1.14.57-2,1.6-3.57,3.86-4a7.19,7.19,0,0,0,2.14-.89c2.7-1.5,5.48-1.06,8.38-.78a17.59,17.59,0,0,0,8.54-1.63c1.09-.47,2.24-.82,3.32-1.31s2-.93,1.78-2.36a1.27,1.27,0,0,1,.72-.83,31.71,31.71,0,0,1,4.7-1.09,3.44,3.44,0,0,1,2.13.78c.9.68,1.32.5,1.75-.46.22-.47.62-1.15,1-1.2,7-1,14.06-1.93,21.1-2.83.42-.06.87.37,1.32.41a7.37,7.37,0,0,0,2.2,0,16.75,16.75,0,0,1,3-.82c4.42,0,8.84.1,13.25.25,5.26.18,10.51.36,15.76.69C249.26,1.18,252.59,1.67,256.23,2Zm-54.6,6.3c1.86-.78,3.23-.74,4.39.59.25.29,1.16.14,1.7,0,.24-.08.51-1,.42-1-.82-.62-1.76-1.67-2.57-1.59-1.25.09-3.13-.64-3.94,2Zm50.76-1.14a27.69,27.69,0,0,0-3.11.77c-.22.08-.33.7-.32,1.07,0,.18.46.51.64.47,1-.21,2.27-.19,2.79-2.28ZM283.17,12c-.13-.34-.27-.69-.41-1-.76.32-1.54.62-2.27,1a4.3,4.3,0,0,0,.29,1Z"/><path class="cls-1" d="M333.35,224.63v-5.22c0-1.1.44-1.65,1.62-1.64h8.09c1.6,0,2.24.75,2.19,2.35a56.8,56.8,0,0,0,.08,6.12c.16,2.28,1.23,3.35,3,3.31,1.56,0,2.64-1.26,2.73-3.4a14,14,0,0,0-4.46-11c-3.24-3.2-6.51-6.39-9.5-9.82-2.34-2.66-4-5.75-3.73-9.55.11-1.43,0-2.88,0-4.32.22-5.44,2.39-9.71,7.6-11.91,5.41-2.29,16.48-2,20.07,6.34a19.06,19.06,0,0,1,1.51,9.22,2.05,2.05,0,0,1-1.45,1.35c-3.06.12-6.12.06-9.18.05a1.46,1.46,0,0,1-1.65-1.24,1.55,1.55,0,0,1,0-.43v-2.15c-.1-1.91-1.15-2.79-3.08-2.64-1.63.12-3,1.49-2.38,3.06a19.31,19.31,0,0,0,3.4,5.77c2.09,2.37,4.68,4.28,6.87,6.56a50.41,50.41,0,0,1,5.41,6.44c2.08,3,2.68,6.65,2.71,10.23,0,4.41-.32,8.85-2.55,12.82-1.58,2.8-3.67,5-7.14,5.38-2.23.24-4.51,1-6.67.75-3.88-.45-7.95-1.13-10.43-4.66-1.7-2.42-3.18-5.06-3-8.24.06-1.2,0-2.4,0-3.6Z"/><path class="cls-1" d="M377.46,209.81V181.92c0-2.65.21-2.84,2.88-2.84h19.44c2.41,0,2.72.29,2.74,2.66s0,4.8,0,7.2a2,2,0,0,1-2.31,2.29h-7.92c-1.29,0-1.84.4-1.81,1.76.08,2.76.06,5.52,0,8.28,0,1.4.57,1.93,1.94,1.89,2.46-.06,4.92,0,7.38,0,1.33,0,2,.4,2,1.85-.06,2.52,0,5,0,7.56,0,1.47-.66,2-2.11,2-2.27-.07-4.56,0-6.83-.06-1.68-.06-2.41.52-2.37,2.28q.13,4.86,0,9.72c0,1.59.64,2.16,2.13,2.14h8.1c2,0,2.55.52,2.58,2.55,0,2.46-.09,4.92,0,7.38.08,1.51-.57,1.89-1.88,1.88h-9c-4.32,0-8.64-.06-13,0-1.6,0-2.06-.55-2.05-2.09C377.49,228.77,377.46,219.29,377.46,209.81Z"/><path class="cls-1" d="M135.29,209.64V181.38c0-2.24.09-2.3,2.34-2.3h19.79c2.19,0,2.59.43,2.58,2.66s0,4.67,0,7c0,1.95-.51,2.47-2.42,2.48h-7.92c-1.46,0-2,.54-2,2,.08,2.52,0,5,0,7.56,0,1.63.65,2.41,2.39,2.34,2.45-.09,4.92,0,7.37,0,1.43,0,2.1.39,2,1.94-.09,2.46-.07,4.92,0,7.38,0,1.45-.57,2.08-2,2h-7.2c-1.94,0-2.55.62-2.56,2.59v9.17c0,1.87.5,2.35,2.35,2.34h8.1c1.65,0,2.43.55,2.38,2.3-.08,2.63-.05,5.28,0,7.91,0,1.14-.43,1.63-1.59,1.63-7.32,0-14.64,0-22,0-1.61,0-1.67-.89-1.67-2.08Q135.31,223.95,135.29,209.64Z"/><path class="cls-1" d="M248.2,209.82V181.58c0-2.4.13-2.5,2.57-2.5h19.6c1.77,0,2.35.61,2.3,2.29-.08,2.64,0,5.28,0,7.91,0,1.41-.51,2.06-2,2-2.75-.1-5.51,0-8.27-.06-1.39,0-1.93.47-1.88,1.9.08,2.63.06,5.27,0,7.91,0,1.56.66,2.15,2.17,2.12,2.64-.06,5.28,0,7.91,0,1.42,0,1.92.5,1.88,1.89-.08,2.46-.09,4.92,0,7.38.06,1.55-.49,2.17-2.06,2.12-2.52-.08-5,0-7.56,0-1.68,0-2.38.67-2.34,2.37.07,3.06,0,6.12,0,9.17,0,2.23.32,2.56,2.63,2.56h8.09c1.64-.06,2.27.59,2.23,2.21-.08,2.58-.09,5.16,0,7.74.06,1.55-.58,1.92-2,1.91q-10.62-.09-21.23,0c-1.59,0-2.06-.53-2-2.09C248.23,228.77,248.2,219.3,248.2,209.82Z"/><path class="cls-1" d="M101.48,215.83c0-7.49,0-15,0-22.49,0-1.79-.68-2.31-2.34-2.27-5.51.16-4.85.13-4.88-5v-5.4c0-1.15.49-1.61,1.62-1.61h23.58c1.24,0,1.9.57,1.9,1.85V189a1.87,1.87,0,0,1-1.67,2.06,1.82,1.82,0,0,1-.33,0c-1.13.05-2.28,0-3.41,0-1.64-.06-2.35.53-2.34,2.31.07,11.58,0,23.15,0,34.73,0,3.36-.06,6.72,0,10.08,0,1.53-.42,2.19-2,2.13-2.75-.09-5.52-.06-8.28,0-1.44,0-2-.46-2-2,.06-7.5,0-15,0-22.5Z"/><path class="cls-1" d="M232.47,209.68v28.4c0,1.71-.47,2.35-2.24,2.26-2.69-.13-5.39-.08-8.09,0-1.32,0-1.79-.45-1.79-1.78v-57c0-2,.46-2.45,2.43-2.47H230c2.4,0,2.43,0,2.43,2.37Q232.47,195.58,232.47,209.68Z"/><path class="cls-1" d="M205.54,135H344.48c.68,0,1.95.63,1.93.86-.14,1.4-1.38,1.22-2.36,1.22H69.4c-1.38,0-2.76,0-4.14-.06-.42,0-.8-.52-1.21-.81.37-.4.67-1,1.13-1.14a6.11,6.11,0,0,1,2-.1Z"/><path class="cls-1" d="M294,251.18H425.36c3.92,0,6.5-2,8.25-5.31a4,4,0,0,1,.46-.77c.53-.57,1.11-1.1,1.68-1.65a8.73,8.73,0,0,1-.06,2.5,11.05,11.05,0,0,1-9.76,7.33c-1.63.05-3.27-.46-4.91-.48-1.15,0-2.32.52-3.48.52H162.65a8,8,0,0,1-2.42-.42,1.19,1.19,0,0,1-.54-1c0-.27.54-.59.89-.66a8.91,8.91,0,0,1,1.79-.06Z"/><path class="cls-1" d="M158.79,129.28c.7-.38,1.39-1.07,2.08-1.08,1.91,0,2.53-1,2.52-2.67a1.72,1.72,0,0,1,.22-.66c-1.68-1.13-1.64-1.51-.42-3.06a4.49,4.49,0,0,1,4-1.73c17.21.06,34.41,0,51.61,0,2.13,0,2.74.82,1.65,2.62-1,1.64-2.53,3-3.53,4.58-1.58,2.59-4.15,2.81-6.64,2.88a64.81,64.81,0,0,1-7.62-.58c-.53,0-1.14-.31-1.58-.13-3.31,1.33-6.76.7-10.14.74s-6.89-.28-10.33-.33c-1.52,0-3.06.47-4.55.33-5-.49-10,.31-14.94,0a18.32,18.32,0,0,1-2.2-.26C158.89,129.76,158.84,129.52,158.79,129.28Zm27.93-5.17c-.6-.46-1.09-1-1.21-.9a6.48,6.48,0,0,0-1.17,1.17c.34.25.7.72,1,.69s.71-.49,1.38-1Z"/><path class="cls-1" d="M187.45,22c2,1.85,3.47-.47,5.27-.83a179.61,179.61,0,0,1,45.41-2.79A53.08,53.08,0,0,1,245,19.67a1.31,1.31,0,0,0,.52.11c5-1,9.63,1,14.44,1.56,2.89.31,5.66,1.66,8.49,2.53a3.39,3.39,0,0,0,1.05.17c3.71-.18,6.9,1.69,10.33,2.57A25.25,25.25,0,0,1,283.67,28c.39.17.59.74.88,1.13a4.51,4.51,0,0,1-1.23.85,2.49,2.49,0,0,1-1.4-.19,126.3,126.3,0,0,0-23.16-6.21,174.84,174.84,0,0,0-19.34-2.37c-7.52-.51-15.09-.78-22.62-.58-6.15.17-12.29,1.08-18.41,1.84-3.61.45-7.16,1.6-10.77,1.79-2.92.16-5.2,1.76-7.88,2.41-4.69,1.14-9.25,2.82-13.88,4.26a109,109,0,0,0-18.3,8c-6.29,3.3-12.41,6.92-18.48,10.6-3,1.81-5.68,4.1-8.54,6.12a24.85,24.85,0,0,1-3.49,2c-.39.19-1-.17-1.58-.29.19-.48.24-1.13.59-1.41a156.09,156.09,0,0,1,32.42-20.13c6.68-3,13.42-6,20.3-8.5,4.9-1.8,10.07-2.85,15.12-4.26C185.05,22.81,186.13,22.42,187.45,22Z"/><path class="cls-1" d="M374.45,99.67a10.56,10.56,0,0,1-5.79-4.57A162.79,162.79,0,0,0,347.52,70a151.45,151.45,0,0,0-21.66-17.8c-4.65-3.15-9.57-5.9-14.1-9.2a16.76,16.76,0,0,0-4.85-2.75,45.17,45.17,0,0,1-8-4c-.39-.21-.42-1.07-.62-1.63.53-.08,1.18-.4,1.58-.21,3.24,1.53,6.54,3,9.63,4.78,5.87,3.45,11.77,6.92,17.37,10.77,5.07,3.49,9.89,7.37,14.61,11.33C350.8,69,358.79,78,366.24,87.52c2.59,3.29,4.88,6.81,7.29,10.23A16.91,16.91,0,0,1,374.45,99.67Z"/><path class="cls-1" d="M325.42,38.62c-3.37-1.85-6.68-3.73-10.06-5.5-4-2.1-8.05-4.09-12.09-6.12-1.24-.63-1.59-1.39-.51-2.49.76-.77,1.4-1.67,2.22-2.35a7,7,0,0,1,1.93-.77c.12.88.66,2.14.27,2.57-.92,1-.8,1.68.19,2.29s1.41-.41,1.81-1.07,1.07-1.52.41-2.62a2,2,0,0,1,.58-1.8c.57-.44,1.68-.88,2.2-.61,3.11,1.58,6.13,3.36,9.17,5.08.15.08.25.36.38.36,2.29,0,2.5,2.14,3.34,3.51.3.49,0,1.49-.31,2.18-.34.94-2.08,1.5-.85,2.82.71.77,3.33,0,4-1.06a4.08,4.08,0,0,0,.39-1.36c.12-.56.18-1.15.34-2.26,1,.71,2,1.06,2.37,1.75.26.52-.38,1.45-.5,2.22-.39,2.51-1.78,3.66-4.35,3.56C326.05,36.93,325.72,38,325.42,38.62Z"/><path class="cls-1" d="M434.45,191V146.42a29.69,29.69,0,0,0-.89-4.66,9.2,9.2,0,0,1,0-1.66c.53.28,1.41.45,1.54.86a21.08,21.08,0,0,1,1.31,5.7c.11,9.35,0,18.7,0,28.05q0,30.85.06,61.7a6.65,6.65,0,0,1-.32,2.08,1.17,1.17,0,0,1-1,.54c-.26,0-.57-.54-.65-.88a7.32,7.32,0,0,1-.05-1.62Z"/><path class="cls-1" d="M190.54,315.52a16.59,16.59,0,0,1-2.61-.46,161.39,161.39,0,0,1-22.24-9.39,118.2,118.2,0,0,1-24-16.63c-4.43-4-8.3-8.59-12.43-12.9-.33-.35-.85-.59-1-1a8.14,8.14,0,0,1-.37-1.83c.72.06,1.71-.15,2.09.24,2.13,2.17,4.08,4.53,6.16,6.76,1.53,1.64,3.14,3.22,4.78,4.75a131.6,131.6,0,0,0,25.94,18.77c3.06,1.7,6.1,3.49,9.28,4.92a63.1,63.1,0,0,0,7.12,2.22c2.1.66,4.2,1.34,6.27,2.09a4.94,4.94,0,0,1,1.6,1.07,1,1,0,0,1,.17,1C191.2,315.34,190.75,315.42,190.54,315.52Z"/><path class="cls-1" d="M106.35,84.62a15.9,15.9,0,0,1,1.65.54c4,1.79,7.91,3.62,11.88,5.4a5.91,5.91,0,0,0,1.45.21,5,5,0,0,0-.1-1.55c-1.11-2.57-2.29-5.1-3.43-7.66-.78-1.73-1.56-3.47-2.29-5.23a2.05,2.05,0,0,1,.06-1,3.52,3.52,0,0,1,1.29.2c2.23,1.39,4.42,2.85,6.63,4.28l8.42,5.43c.25.16.59.3.7.54a14,14,0,0,1,.51,1.67c-.62,0-1.41.38-1.83.11-3.23-2-6.38-4.19-9.56-6.29a6.4,6.4,0,0,0-1.11-.4,5.26,5.26,0,0,0,0,1.77c1.5,3.55,3.09,7,4.59,10.6a5.34,5.34,0,0,1,.16,1.69,5.82,5.82,0,0,1-1.61-.25c-3.64-1.6-7.27-3.25-10.92-4.85a3.07,3.07,0,0,0-1.13-.06,3.67,3.67,0,0,0,.2,1.27c1.94,3.22,4,6.4,5.87,9.64.24.41,0,1.1,0,1.66-.57-.21-1.39-.24-1.66-.64-2.06-3.08-4-6.23-6-9.36-1.15-1.82-2.3-3.63-3.41-5.47a13.89,13.89,0,0,1-.8-1.86Z"/><path class="cls-1" d="M292.05,149.14c.46,2,1,4,1.37,6,.84,4,1.68,8.06,2.43,12.1a5.71,5.71,0,0,1-.45,2c-.43-.51-1.1-1-1.24-1.56-.7-2.76-1.21-5.56-1.86-8.33a23,23,0,0,0-1.06-2.8l-.66-.12-5.23,13.1-.79.06c-1.83-4.54-3.66-9.07-5.6-13.86a3.91,3.91,0,0,0-.6,1c-.67,3.19-1.29,6.39-2,9.58a7.43,7.43,0,0,1-1,2.29c-.22.37-.79.53-1.21.79-.26-.48-.8-1-.73-1.44.29-1.92.75-3.83,1.17-5.73.57-2.66,1.16-5.31,1.75-8,.35-1.55.68-3.1,1.11-4.63.08-.28.76-.69.85-.63a2.93,2.93,0,0,1,1,1.15c1.71,4.4,3.38,8.82,5.07,13.24a5.69,5.69,0,0,0,.63.75c2.59-5,3.8-10.5,6.34-15.32Z"/><path class="cls-1" d="M16.65,204.94v36.87c0,4,2,7.68,6,8.6,1.83.43,3.76.48,5.63.79.85.14,2.38.54,2.37.74-.11,1.6-1.43,1.44-2.57,1.39A27.22,27.22,0,0,1,22.9,253a10.39,10.39,0,0,1-7.71-9.52c-.15-9.66-.14-19.31-.16-29V170.06a32.55,32.55,0,0,1,.09-3.42c.05-.44.5-.83.76-1.25a6.31,6.31,0,0,1,.76,1.21,4.36,4.36,0,0,1,0,1.25v37.09Z"/><path class="cls-1" d="M143.15,160h4c1,0,1.48.57,1.14,1.53-1.45,4-4.07,7.41-9.37,8a10,10,0,0,1-10.6-5.81c-2.93-6.38,0-13.06,6.74-14.82,4.88-1.27,9.21.4,11.78,4.64a6,6,0,0,1,.21,2.46c-.64-.38-1.51-.6-1.89-1.15A10.16,10.16,0,0,0,138,150.6c-2.38-.39-6.44,2.13-7.68,4.52a8.6,8.6,0,0,0,3.44,11.6c3,1.8,9.52.06,11.26-2.91.61-1.05.19-1.86-1.11-1.93s-2.4,0-3.6,0a4.53,4.53,0,0,1-1.6-.13c-.42-.18-.7-.67-1.05-1,.38-.23.76-.62,1.15-.64,1.44-.08,2.88,0,4.32,0Z"/><path class="cls-1" d="M272.29,61.22c-5.59.5-11.09-5.45-11-10.61s4.26-11,10.86-11a10.78,10.78,0,0,1,.17,21.56h0Zm-8.82-10.8c-.06,4.42,4.17,8.83,8.73,8.58,4.3-.23,8.33-2.83,8.47-8.51a8.86,8.86,0,0,0-8.36-8.87c-4.26,0-8.92,3.71-8.84,8.8Z"/><path class="cls-1" d="M206.11,159.32a10.24,10.24,0,0,1,9.74-10.72h.62c6.58.06,10.56,4.5,10.81,10.37a10.61,10.61,0,0,1-10.44,10.76h0C211.36,169.91,205.87,165.3,206.11,159.32Zm10.4,7.9c4.85,0,8.56-3.5,8.6-8.09,0-4.27-4.28-8.52-8.58-8.43a8.84,8.84,0,0,0-8.41,8.45c0,3.73,3.47,8.81,8.39,8.07Z"/><path class="cls-1" d="M81.27,159c-.47-6.27,5.17-10.64,10.5-10.48,6.1.19,10.31,3.78,10.56,10.56a10.48,10.48,0,0,1-10.42,10.54h-.24C86.33,169.72,80.81,165.28,81.27,159Zm10.39,8.15c5.52.63,8.53-4.07,8.49-8-.07-5.36-3.53-8.18-8.34-8.42a8.09,8.09,0,0,0-8.42,7.75v0c-.12,5.42,3,8.64,8.27,8.69Z"/><path class="cls-1" d="M151.05,51.47c.29-.35.57-1,1.06-1.23,2-.92,4.14-1.56,6.08-2.58,2.09-1.08,6.22,1.07,7.25,3.26A5.67,5.67,0,0,1,164,58.3c-.91.82-.82,1.47.34,2,1.84.87,3.66,1.78,5.42,2.79.51.3.79,1,1.18,1.5-.75.18-1.64.69-2.23.46-1.55-.6-2.94-1.57-4.45-2.29a13.6,13.6,0,0,0-3.89-1.53c-1.91-.27-2.41.77-1.5,2.53.74,1.42,1.46,2.86,2.08,4.34.15.36-.14.91-.23,1.38-.5-.15-1.23-.13-1.47-.47a18.16,18.16,0,0,1-1.75-3.1q-3-6.46-6-13A12,12,0,0,1,151.05,51.47Zm13.11,2.69c-.4-3.45-3-5.26-6-4.13-1,.38-2,.82-3,1.22s-1.43,1.06-1,2.11a48.43,48.43,0,0,0,2.35,5,2.12,2.12,0,0,0,2,.63,9.9,9.9,0,0,0,3.43-1.8A16,16,0,0,0,164.16,54.16Z"/><path class="cls-1" d="M116.24,161.77c1.58,2,3,3.74,4.33,5.57a5.52,5.52,0,0,1,.47,2c-.7-.19-1.65-.15-2-.6-1.57-1.8-2.89-3.81-4.46-5.61a11.69,11.69,0,0,0-2.5-1.69,19.82,19.82,0,0,0-.83,2.92c-.14,1.06.1,2.18-.09,3.22-.11.64-.72,1.2-1.11,1.79-.42-.61-1.18-1.21-1.2-1.83-.09-4.8,0-9.59,0-14.39,0-3.93-.6-4.27,4.07-4.1a18.68,18.68,0,0,1,5.47.55c2.52.89,3.38,3.13,3.37,5.76,0,2.82-1.57,4.52-3.88,5.73C117.43,161.26,117.05,161.41,116.24,161.77Zm-5-6.82a13.33,13.33,0,0,0,0,2.68c.1.54.6,1.38,1,1.42a16.32,16.32,0,0,0,4.63,0,3.11,3.11,0,0,0,2.58-2.66c.47-2.95-.4-5.31-4.16-5.2-4.75.09-4.09-.25-4.1,3.76Z"/><path class="cls-1" d="M229.75,320.54h-7.37a2.78,2.78,0,0,1-1.4-.19,5.1,5.1,0,0,1-1-1.27c.41-.28.81-.78,1.23-.8,2.16-.09,4.32-.07,6.47,0a106.91,106.91,0,0,0,29.12-3.9c4.13-1.14,8.18-2.58,12.3-3.75,1.31-.38,2.82,0,3.88-1.24a2.25,2.25,0,0,1,1.1.82c.09.27-.38,1-.74,1.11-2.37,1-4.73,2-7.17,2.77-4.85,1.49-9.67,3.2-14.63,4.09-7.17,1.28-14.45,1.91-21.69,2.81Z"/><path class="cls-1" d="M328,337.77c-1.74,1.2-3.43,2.5-5.25,3.57-6.14,3.59-12.19,7.38-18.54,10.55-5.75,2.88-11.84,5.1-17.81,7.54a62.47,62.47,0,0,1-6.12,2c-.46.13-1.08-.25-1.63-.39.34-.57.53-1.39,1-1.67a22.57,22.57,0,0,1,3.18-1.2c3.58-1.33,7.26-2.44,10.7-4.05q10-4.67,19.67-9.83c3.63-1.93,7-4.41,10.53-6.45,1.13-.64,2.62-.65,4-1C327.78,337.21,327.88,337.49,328,337.77Z"/><path class="cls-1" d="M323.61,155.54c-.05.55-.12,1.09-.12,1.64,0,3.48.05,7,0,10.43,0,.61-.56,1.7-.94,1.74-1.22.12-1.09-1-1.09-1.8V150.29a12.26,12.26,0,0,1,.21-1.48l.5-.16,10.4,14.43.64-.25c0-.55.16-1.09.16-1.64,0-3.41-.05-6.83,0-10.24,0-.63.57-1.25.88-1.87.4.61,1.15,1.22,1.16,1.84.09,5.64.08,11.27,0,16.9,0,.54-.48,1.08-.74,1.62a7.77,7.77,0,0,1-1.26-1.1c-2.09-2.9-4.13-5.84-6.19-8.77-.59-.82-1.14-1.67-1.75-2.48-.44-.59-.94-1.14-1.41-1.7Z"/><path class="cls-1" d="M82.82,252.3A10.13,10.13,0,0,1,86,251.23c11-.09,21.94-.19,32.9.06,1.78,0,3.5.06,5.29,0,4.66-.24,9.34-.08,14-.08a1.57,1.57,0,0,1,.53,0c.5.33,1,.7,1.45,1-.52.36-1,1-1.56,1-3.59.09-7.19.11-10.79,0-2.55-.06-5.1-.41-7.66-.46-1.28,0-2.57.45-3.86.46q-15.83.06-31.64,0A13.35,13.35,0,0,1,83,253C82.93,252.87,82.87,252.58,82.82,252.3Z"/><path class="cls-1" d="M289.05,62.61c0-4.35,4-9.66,8.37-10.65,5-1.13,9.49.62,11.82,5.24a15.45,15.45,0,0,1,1.17,4c.08.41-.45.95-.7,1.42a6,6,0,0,1-1.37-1.23,11.73,11.73,0,0,1-.75-2c-1.62-4.31-4.31-5.85-8.86-5.3-4.94.59-6.86,4.53-7.16,7.91-.48,5.34,5.7,10.82,10.76,8.27a2,2,0,0,1,1-.27c.74.08,1.47.27,2.21.41-.52.58-.94,1.37-1.58,1.7a10,10,0,0,1-13.35-4.67,8.58,8.58,0,0,1-.48-1.18C289.84,65,289.45,63.84,289.05,62.61Z"/><path class="cls-1" d="M175.16,49.52A10.2,10.2,0,0,1,184.1,38.2a9.83,9.83,0,0,1,1.88-.05A10.38,10.38,0,0,1,192.41,41c.32.29.26,1,.38,1.53a4.37,4.37,0,0,1-1.69,0c-1.53-.63-2.93-1.7-4.51-2.07-2.63-.62-5,.52-6.87,2.25-3.37,3.08-3.12,9.23,0,12.25a8.48,8.48,0,0,0,12-.32,8.34,8.34,0,0,0,1.61-2.41,3,3,0,0,1,.66-1.21,4.54,4.54,0,0,1,1.44-.44,3.77,3.77,0,0,1,.23,1.45c-1.53,6-8.8,9.68-14.65,6.46C177.3,56.49,175.17,53.77,175.16,49.52Z"/><path class="cls-1" d="M359.94,136.16c1.26-1.32,52.67-1.43,54.29-.68a1.91,1.91,0,0,1-2.13,1.66H394.62a1.7,1.7,0,0,1-.53,0c-2.25-1.62-4.51-.07-6.77-.05-.36,0-.71.08-1.07.08H363.39A14.14,14.14,0,0,1,359.94,136.16Z"/><path class="cls-1" d="M245.76,164.23c-.06-2.32-2.18-3-4.8-3.95a33.1,33.1,0,0,1-5.13-1.87,4.92,4.92,0,0,1-2.23-6.58,5,5,0,0,1,2.09-2.15c2.75-1.65,7.61-1.57,10,.95.17.17.43.34.47.53.09.59.1,1.2.14,1.8-.62-.15-1.46-.09-1.83-.48-1.3-1.39-2.84-2.46-4.69-2.09a8.07,8.07,0,0,0-3.94,2.08c-1.34,1.33,0,3.88,2.33,4.64,2,.66,3.94,1.28,5.91,1.92a5.09,5.09,0,0,1,3.84,4.47,5.23,5.23,0,0,1-3.08,5.42c-3.92,2.06-8.88,1.26-11.25-1.89a5,5,0,0,1-.42-1.86c.73.15,1.73,0,2.15.49,2.42,2.56,6.34,3.19,9,1.1C245.05,166.23,245.32,165.09,245.76,164.23Z"/><path class="cls-1" d="M133.78,60.38c3.11,2.07,6.23,4.13,9.34,6.22,2.77,1.86,5.56,3.72,8.28,5.67.46.33.61,1.09.9,1.66a18.59,18.59,0,0,1-2.11.06,1.65,1.65,0,0,1-.9-.56c-2-2-3.93-2-6-.16-1,.85-2.18,1.46-3.25,2.22a2,2,0,0,0-.88,2.47,15.13,15.13,0,0,1,.37,3.91c0,.44-.57.88-.88,1.32-.4-.37-1.06-.69-1.14-1.12-.46-2.26-.74-4.56-1.16-6.83-.25-1.33-.66-2.64-1-4-.6-2.65-1.21-5.3-1.76-8-.15-.9-.25-1.81-.31-2.72Zm5,13.53,4-2.73c.95-.64,1.21-1.25.08-2-1.7-1.18-3.34-2.47-5-3.69-.83-.61-1.56-.34-1.39.63.42,2.43,1.07,4.81,1.66,7.21,0,.19.37.35.62.58Z"/><path class="cls-1" d="M329.12,68.56c-.75,2.54-1.51,5.07-2.24,7.62-.82,2.89-1.62,5.8-2.42,8.7-.39,1.42-.7,2.87-1.2,4.26-.16.43-.84.67-1.27,1-.27-.43-.78-.88-.74-1.28a13.17,13.17,0,0,1,.77-3.45c.52-1.31.48-2.21-.79-3.06a54.9,54.9,0,0,1-4.53-3.52,2.34,2.34,0,0,0-3.25-.09A9,9,0,0,1,311,80.16c-.54.18-1.26-.22-1.9-.36.29-.53.44-1.3.89-1.56,2.92-1.73,5.9-3.36,8.87-5,2.8-1.56,5.61-3.12,8.43-4.65a9.3,9.3,0,0,1,1.37-.49ZM323.05,81a27.67,27.67,0,0,0,1.17-2.75,46.39,46.39,0,0,0,1.26-4.62c.21-1-.23-1.57-1.31-.95-1.76,1-3.5,2-5.25,3.08-.93.55-1.15,1.24-.23,2C320.05,78.79,321.48,79.83,323.05,81Z"/><path class="cls-1" d="M221.57,53.38a3.07,3.07,0,0,1-1.09.45,1.68,1.68,0,0,1-1.26-.38,25,25,0,0,1-1.86-3.21c-.67-1.39-1.43-2.2-3.2-1.61a15,15,0,0,1-4,.59c-2.45.11-3.05.59-3.64,3.05a7.23,7.23,0,0,1-1,2.44c-.24.36-1,.36-1.52.52a4.33,4.33,0,0,1-.06-1.39c.79-2.93,1.61-5.85,2.48-8.75.76-2.57,1.6-5.12,2.38-7.68.28-.91.44-1.86.79-2.74a2.11,2.11,0,0,1,1-1c.15-.07.72.49.92.86,2.67,5,5.31,10,8,15C220.05,50.61,220.67,51.75,221.57,53.38Zm-11-15c-.82,2.75-1.51,4.89-2.08,7.06-.28,1.07.13,1.76,1.39,1.65s2.27-.16,3.4-.3,2-.58,1.2-2S213,41.57,212.14,40c-.24-.54-.79-.89-1.55-1.65Z"/><path class="cls-1" d="M104.75,320.17c-.86.08-1.58.37-1.87.14-1.18-1-3-2-3.19-3.24-.48-2.49-2.62-2.91-4-4.28-.86-.88-2-1.54-2.76-2.49-4-4.92-8.07-9.79-11.82-14.89-2.74-3.74-5-7.81-7.51-11.76-.21-.34-.11-.87-.16-1.31a3.8,3.8,0,0,1,1.41.22,6.43,6.43,0,0,1,1.72,1.73c6.41,9.9,13.21,19.5,21.4,28,2,2.06,3.78,4.27,5.66,6.42A13.16,13.16,0,0,1,104.75,320.17Z"/><path class="cls-1" d="M358.39,159.21v-8.46c0-1.22.48-1.76,1.7-1.75,3,0,6-.06,9,0,.53,0,1,.66,1.55,1-.55.34-1.08,1-1.64,1-2,.11-4.08.05-6.12,0-1.61,0-2.57.47-2.28,2.3a11.37,11.37,0,0,1,0,1.43c0,3.43-.64,3.48,3.54,3.44,1.62,0,3.24-.08,4.85,0,.51,0,1,.59,1.46.9-.48.38-.95,1.06-1.45,1.08-2.16.12-4.32.08-6.48,0-1.36,0-2,.53-1.94,1.93.14,5.6-.89,5,4.91,5a26.88,26.88,0,0,1,3.59,0c.56.07,1,.68,1.55,1-.47.41-.93,1.16-1.42,1.18-3.06.1-6.12,0-9.18,0-1.25,0-1.66-.65-1.64-1.82C358.41,164.85,358.39,162,358.39,159.21Z"/><path class="cls-1" d="M261.17,148.41c.73,1.6,1.49,3.17,2.17,4.78q3,7,5.82,14.13c.22.57-.16,1.38-.26,2.07a15.14,15.14,0,0,1-1.63-1,1.61,1.61,0,0,1-.54-.92c-.49-3.23-2.66-3.72-5.38-3.35h-.3c-4.5,0-4.53,0-6.33,4-.38.84-.75,1.72-1.73,1.19-.33-.17-.34-1.45-.11-2.07,1.43-3.73,3-7.42,4.47-11.11,1-2.56,2.14-5.12,3.21-7.67Zm.12,5.26-.81-.08c-1,2.48-2,5-2.83,7.47-.07.19.69.88,1.14,1a14.89,14.89,0,0,0,2.67.06c2.83,0,2.83,0,2-2.68,0-.17,0-.37-.1-.53C262.68,157.14,262,155.41,261.29,153.67Z"/><path class="cls-1" d="M169.47,157.49c0,2.1.07,4.19,0,6.29a6.21,6.21,0,0,1-4.57,5.55,9.39,9.39,0,0,1-7.3-.7,6.13,6.13,0,0,1-3.24-5.44c-.14-4.13-.09-8.26,0-12.39,0-.58.67-1.15,1-1.73.38.57,1.07,1.13,1.08,1.7.1,3.89,0,7.79.06,11.68,0,3.14,1.57,4.74,4.7,4.76,2,0,4.34.58,5.48-1.93a6.21,6.21,0,0,0,.62-2.35c.06-3.72,0-7.43,0-11.14a3.29,3.29,0,0,1,0-1.25,10.16,10.16,0,0,1,1.13-1.48c.35.48,1,.94,1,1.43.11,2.33,0,4.67,0,7Z"/><path class="cls-1" d="M134.36,344.91c1-1.61,1.92-1.58,3.23-.88,5.42,2.9,10.81,5.88,16.39,8.45,4.75,2.2,9.74,3.88,14.63,5.76,1.95.76,3.94,1.39,5.86,2.21.49.21.76.92,1.13,1.41-.56.18-1.2.64-1.68.51a69.08,69.08,0,0,1-7.17-2.22c-4.68-1.79-9.38-3.57-13.93-5.65-4.88-2.24-9.62-4.79-14.4-7.25C137.05,346.56,135.77,345.73,134.36,344.91Z"/><path class="cls-1" d="M220.72,370.42c-5.13-.41-10.27-.76-15.39-1.27a21.62,21.62,0,0,1-4.09-1.22c-.33-.1-.71-.34-1-.26-3.29.94-6.3-.45-9.4-1.05a20.79,20.79,0,0,1-2.83-.43c-.62-.23-1.07-.91-1.59-1.38.62-.27,1.29-.83,1.87-.74,6.48.91,12.93,2.2,19.45,2.84s12.92.64,19.39.95a2.8,2.8,0,0,1,1.57.56c.17.14,0,1-.28,1.29a1.73,1.73,0,0,1-1.22.47h-6.47C220.73,370.27,220.72,370.35,220.72,370.42Z"/><path class="cls-1" d="M301.87,159.12V151c0-1.45.64-2.05,2.07-2,2.76,0,5.51-.06,8.26,0,.55,0,1.08.61,1.62.94-.55.37-1.07,1-1.64,1-2.09.12-4.19.05-6.28,0-1.41,0-2.12.56-2,2.07a15,15,0,0,1,0,3c-.17,1.65.61,2.12,2.1,2.06a54.47,54.47,0,0,1,5.57,0c.68,0,1.86.58,1.88.94.09,1.37-1.13,1.06-2,1.07h-5.39c-1.41,0-2.15.52-2.16,2,0,5.77-.37,5,4.62,5a29.48,29.48,0,0,1,3.76,0c.53.08,1,.79,1.44,1.21-.47.36-.93,1-1.41,1-2.87.09-5.75,0-8.63,0-1.43,0-1.84-.89-1.84-2.12v-8.26Z"/><path class="cls-1" d="M144.4,315.47c.57,3.95-4.18,9-9.13,8.83s-9-4.33-8.88-8.91a9,9,0,0,1,18,.08Zm-2-.18c.59-4.07-3.6-7-7-7a7.19,7.19,0,0,0-7.08,7.06c-.15,3.24,3.34,7.13,7.16,6.88,4.16-.2,6.83-2.7,6.83-6.94Z"/><path class="cls-1" d="M33.73,137.22c-3,0-6-.11-9,0-3.84.18-6.24,2.47-7.39,6.2-1.32,4.27-.61,8.57-.65,12.86a11.27,11.27,0,0,1-.1,2.32c-.07.35-.58.62-.89.92-.21-.33-.59-.66-.59-1,0-5.1-.45-10.28.35-15.25.76-4.7,4-8.16,9.88-8.27,6.12-.11,12.24-.06,18.36,0a5.32,5.32,0,0,1,1.78.73c-.62.44-1.22,1.25-1.86,1.27-3.29.13-6.6.06-9.9.06Z"/><path class="cls-1" d="M226.41,346.51c.78,4.08-4.38,9.14-8.86,8.91a9,9,0,0,1-9-8.94c-.27-4.61,4.6-9.4,9.16-9S226.61,340.7,226.41,346.51Zm-2,.06a6.77,6.77,0,0,0-6.45-7.09h-.37a7.05,7.05,0,0,0-7,7.07,6.54,6.54,0,0,0,7.09,6.79c4.23-.13,6.71-2.49,6.72-6.76Z"/><path class="cls-1" d="M330.39,294.51a8.65,8.65,0,0,1,8.42-8.88h.34a8.8,8.8,0,0,1,9,8.6v.31a9.08,9.08,0,0,1-9,9C334.77,303.62,329.9,298.82,330.39,294.51Zm2.07-.13c-.56,4.47,3.44,7.29,6.82,7.36,3.85.08,6.87-3.28,7.09-7.13s-3.73-7.21-7.14-7.27A7,7,0,0,0,332.46,294.38Z"/><path class="cls-1" d="M150.48,334.21c-3,.49-5.11-1.46-7.36-2.79a2.35,2.35,0,0,1-.42-2.25c2.19-4,4.52-7.85,6.85-11.74.76-1.26,1.75-1.72,3.1-.6.77.65,1.74,1,2.58,1.62,5,3.4,4.62,11.26.44,14.12C154.05,333.68,152.45,334.59,150.48,334.21Zm-.24-1.54.18-.43c4.15.74,7.19-3.7,6.84-7.08-.32-3-2.11-4.62-4.48-6-1.13-.68-1.69-.46-2.28.55-1.77,3-3.5,6.11-5.38,9.08-.65,1-.32,1.63.48,2,1.5.71,3.09,1.24,4.64,1.88Z"/><path class="cls-1" d="M124.63,306.53a6.84,6.84,0,0,1-1.08-.15c-2.39-.44-2.49-.39-2.87,2-.16,1-.12,2-.33,3a4.74,4.74,0,0,1-.85,1.35c-.39-.46-1.08-.89-1.11-1.36a16,16,0,0,1,.38-3c.2-1.42.45-2.84.51-4.26a1.61,1.61,0,0,0-.81-1.25,1.71,1.71,0,0,0-1.37.42c-1,.81-1.76,1.82-2.75,2.58-.4.32-1.14.21-1.73.3.16-.51.17-1.16.5-1.5q4.6-4.68,9.3-9.25c1.86-1.82,2-1.85,3.88.08,1.34,1.39,3,2.53,3.45,4.67a5.19,5.19,0,0,1-3.87,6.23A4.8,4.8,0,0,1,124.63,306.53Zm3.63-5.24c0-1.41-3-5.29-3.77-4.77a19.53,19.53,0,0,0-4.52,4.37c-.55.73,3.22,3.87,4.64,3.9A3.87,3.87,0,0,0,128.26,301.29Z"/><path class="cls-1" d="M274.76,343c0,3.51-3,7.69-7,6.31a8.72,8.72,0,0,1-4.15-3.62,18.94,18.94,0,0,1-2-6.07,6.49,6.49,0,0,1,2.17-6.47,5.07,5.07,0,0,1,6,0,9.52,9.52,0,0,1,3.68,6.1A20.8,20.8,0,0,0,274.76,343Zm-11.27-4.42-.49.19a67.83,67.83,0,0,0,2.93,7.12c1.08,2,4.27,2.44,5.19.93a6.4,6.4,0,0,0,.93-5.82,10.37,10.37,0,0,0-.67-2.18c-1.08-1.57-2-3.59-3.57-4.39-2.38-1.24-4.34.85-4.32,4.1Z"/><path class="cls-1" d="M258.7,346.2c0,2.09,0,4.2-1.81,5.77-2.73,2.41-6.35,1.58-8.39-2.05s-1.9-7.29-1-11c.48-2.07,2.57-3.25,4.44-3.47a5,5,0,0,1,4.49,2.45A12.76,12.76,0,0,1,258.7,346.2ZM248.55,343l-.41.19c.84,2.2,1.59,4.43,2.55,6.57a2.55,2.55,0,0,0,3.2,1.35,3.87,3.87,0,0,0,2.26-1.7c1.08-3.63.84-7.25-1.63-10.31A4.58,4.58,0,0,0,251.4,338a2.57,2.57,0,0,0-2.55,2.35A23.79,23.79,0,0,0,248.55,343Z"/><path class="cls-1" d="M316.44,308.79c-.74-4,4.72-9.07,9.09-8.6a2.62,2.62,0,0,1,1,.16,17.1,17.1,0,0,1,1.71,1.34,6.11,6.11,0,0,1-2,.61c-3.21-.24-5.76.71-7.35,3.68-1.44,2.71-.4,6.34,2.51,8.7a6.75,6.75,0,0,0,8.15-.22,7.26,7.26,0,0,0,2.72-5.6c0-.58.53-1.14.82-1.71.36.61,1.07,1.23,1.05,1.83-.18,4.85-3.23,8.78-8.82,8.84C320.05,317.88,316.05,312.84,316.44,308.79Z"/><path class="cls-1" d="M185.34,332c3.57.09,7.34,2.48,8,5.28a6.41,6.41,0,0,1-.13,2c-.57-.41-1.47-.71-1.65-1.26-1.51-4.52-7.87-4.95-10.69-2.49a7.9,7.9,0,0,0-2.28,7.47c.73,2.32,3.78,5,6.08,4.93,1.53-.07,3-.92,4.54-1.34a12.2,12.2,0,0,1,2-.19,5.66,5.66,0,0,1-.91,1.65c-3.09,2.72-10.24,2.4-12.91-3.17-2.54-5.29.76-10.45,5-12.4A11.37,11.37,0,0,1,185.34,332Z"/><path class="cls-1" d="M108,324.19c1,.3,2.23.34,3,.94,2.6,2,5,4.28,7.57,6.3,2.2,1.72,4.54,3.25,6.86,4.82,2.71,1.83,5.46,3.61,8.19,5.41.76.5,1.35,1.06.63,2s-1.38.53-2.13,0c-5.4-3.83-10.88-7.56-16.22-11.47-2.6-1.9-5-4.11-7.41-6.22a5.46,5.46,0,0,1-.79-1.28A3.48,3.48,0,0,0,108,324.19Z"/><path class="cls-1" d="M166.73,343.31a6.85,6.85,0,0,1-6.9-5.35,8,8,0,0,1,.65-4.15c1.14-2.94,2.48-5.81,3.86-8.65.21-.43,1.07-.55,1.63-.81a4.63,4.63,0,0,1,0,1.74c-1.36,3.23-2.89,6.39-4.22,9.63-1,2.37,1,5.13,3.67,5.48,3.32.44,4.41-.35,5.87-4,1-2.43,2-4.84,3.1-7.2.26-.53,1.09-.78,1.66-1.16a5.42,5.42,0,0,1,.08,2.16c-1.19,2.84-2.57,5.6-3.79,8.42A6.17,6.17,0,0,1,166.73,343.31Z"/><path class="cls-1" d="M120.38,290.52a5.49,5.49,0,0,1-3,4.87,5.19,5.19,0,0,1-5.93-1c-1-1.05-2-2.79-3.16-2.85s-2.4,1.51-3.63,2.34a3.28,3.28,0,0,1-1.26.61,1.09,1.09,0,0,1-.85-.44c-.11-.14,0-.55.16-.79a1.87,1.87,0,0,1,.51-.5c3.75-3.06,7.48-6.14,11.27-9.15.35-.28,1.4-.34,1.57-.1,1.51,2.12,2.91,4.32,4.32,6.51A1.06,1.06,0,0,1,120.38,290.52Zm-1.77,0a19.73,19.73,0,0,0-1.43-2.78c-1.84-2.5-1.88-2.46-4.23-.51-3.48,2.91-3.53,3.08,0,5.93a3.79,3.79,0,0,0,3,.7,3.56,3.56,0,0,0,2.66-3.37Z"/><path class="cls-1" d="M244.46,369.29a5.57,5.57,0,0,1-1,0c-.72-.23-1.44-.49-2.15-.74.71-.51,1.38-1.33,2.16-1.47,6.24-1.07,12.52-2,18.77-3,2-.33,4-.93,5.93-1.41a3.32,3.32,0,0,1,1.21-.26,3.75,3.75,0,0,1,1.13.61c-.27.28-.48.72-.8.83a83,83,0,0,1-8.44,2.58c-5,1.06-10.08,1.84-15.13,2.72C245.48,369.26,244.75,369.26,244.46,369.29Z"/><path class="cls-1" d="M191.79,159v-7.72c0-1-.13-2.2,1.25-2.06.45,0,1.11,1.28,1.13,2,.09,4.49,0,9,0,13.47,0,2.35.14,2.53,2.52,2.52a12.44,12.44,0,0,1,2.86.06c.62.15,1.12.82,1.67,1.26-.55.33-1.08.91-1.65.95-1.91.12-3.83,0-5.74.07-1.47,0-2.06-.71-2.06-2.09V159Z"/><path class="cls-1" d="M303.89,95.35c-2.79.6-4.47-1.48-6.52-2.7-5.74-3.42-11.5-6.8-17.23-10.24-.45-.27-.71-.84-1.06-1.27.71-.25,1.63-.91,2.1-.68,3.68,1.85,7.36,3.72,10.86,5.88,3.7,2.29,7.21,4.91,10.82,7.35a11.59,11.59,0,0,0,1.79.82Z"/><path class="cls-1" d="M250.33,56.22c-2.34-.38-4.48-.64-6.56-1.15-.43-.1-1-1.18-.89-1.75.41-3.73,1-7.44,1.48-11.16.33-2.3.66-4.6,1.09-6.88.07-.38.68-.67,1-1,.33.42.92.83.94,1.27a15.88,15.88,0,0,1-.28,3c-.56,4-1.19,8-1.68,12.07-.29,2.37-.09,2.37,2.19,2.58a21.11,21.11,0,0,1,4.12,1,1,1,0,0,1,.55.8,1.41,1.41,0,0,1-.66.93A4.81,4.81,0,0,1,250.33,56.22Z"/><path class="cls-1" d="M335.77,101.37c-.26.36-.42.82-.66.87a1.67,1.67,0,0,1-1.31-.18c-1.73-1.65-3.43-3.33-5.05-5.09-.82-.89-.16-1.65.53-2.31L340.4,84.22a9.38,9.38,0,0,1,1.7-1.57,5.36,5.36,0,0,1,1.91-.27c-.15.6-.11,1.41-.49,1.78-3.63,3.56-7.29,7.09-11,10.53-1.21,1.12-1.17,1.89,0,2.9a27.29,27.29,0,0,1,2.39,2.42A10.06,10.06,0,0,1,335.77,101.37Z"/><path class="cls-1" d="M176.37,159.11c0-2.75-.06-5.51,0-8.26,0-.61.56-1.65,1-1.71,1.22-.17,1.14.92,1.14,1.75,0,4.67.06,9.34,0,14,0,1.72.59,2.41,2.3,2.3a19.22,19.22,0,0,1,3.94.05c.56.08,1,.76,1.56,1.17-.51.36-1,1-1.54,1-2.15.12-4.31,0-6.47.05-1.34,0-2-.56-1.93-2C176.41,164.74,176.38,161.93,176.37,159.11Z"/><path class="cls-1" d="M345.87,160c0-2.28-.08-4.56,0-6.83.07-1.66-.63-2.29-2.21-2.28-.93,0-2.25.47-2.31-1.07,0-.25,1.52-.77,2.36-.81,2.45-.11,4.91-.09,7.36,0,.55,0,1.09.5,1.63.76-.5.4-1,.78-1.56,1.13-.22.13-.59,0-.88,0-2.07.06-2.41.4-2.41,2.41v12.94a4.9,4.9,0,0,1,0,1.43,9,9,0,0,1-.86,1.58c-.37-.52-1-1-1.07-1.56-.11-2.57-.05-5.15-.05-7.72Z"/><path class="cls-1" d="M114.36,60.21a12,12,0,0,1-1,1.14c-3.06,2.75-6,5.61-9.25,8.19A38.22,38.22,0,0,0,98.66,75c-.32.38-1.14.34-1.73.49.09-.67-.06-1.58.32-2,4.06-4.12,8.24-8.13,12.29-12.25,1.34-1.35,2.94-1.28,4.49-1.61Z"/><path class="cls-1" d="M207.1,338.25h-2.68c-1.21-.07-1.78.32-2,1.66-.55,3.78-1.27,7.53-2,11.27-.11.53-.86.93-1.32,1.38-.24-.6-.75-1.24-.66-1.79.63-3.81,1.34-7.62,2.15-11.4.3-1.39,0-2.07-1.45-2.14a2.35,2.35,0,0,1-1.19-.31,1.29,1.29,0,0,1-.57-1c0-.28.53-.51.84-.73a.53.53,0,0,1,.35,0c2.5.43,5,.83,7.48,1.35.46.1.83.69,1.24,1C207.21,337.81,207.16,338,207.1,338.25Z"/><path class="cls-1" d="M64.82,251.18a22.74,22.74,0,0,1,2.86,0c2.21.27,4.41.68,6.62,1a6,6,0,0,0,1.84-.2,23.46,23.46,0,0,1,3-.74c.38,0,.83.59,1.24.92-.41.4-.79,1.12-1.23,1.15-2,.14-3.93.09-5.9.08h-14c-.3,0-.66.11-.88,0A13.52,13.52,0,0,1,57,252.28c.46-.34.91-1,1.38-1,2.15-.11,4.3,0,6.46,0Z"/><path class="cls-1" d="M306.46,314.81c-.36.26-.72.54-1.09.79-1.73,1.12-1.87,1.54-.78,3.29,2,3.29,4.18,6.52,6.21,9.81.26.43.12,1.09.16,1.65-.58-.28-1.39-.4-1.69-.85-2-3-4-6.11-5.94-9.18-1.33-2.12-1.3-2.09-3.49-1a3.34,3.34,0,0,1-1.59-.06c.19-.45.26-1.08.6-1.31,1.92-1.33,3.87-2.61,5.88-3.79.4-.24,1.1,0,1.66,0C306.42,314.38,306.44,314.6,306.46,314.81Z"/><path class="cls-1" d="M214.23,320.45c-3.79-.64-7.08-1.2-10.38-1.74-1-.16-1.9-.26-2.85-.38-.47-.07-1.07,0-1.39-.22a19.08,19.08,0,0,1-1.92-2,14.24,14.24,0,0,1,2.61-.15c2.06.27,4.09.75,6.14,1,2.49.34,5,.56,7.48.86,1,.12,2.36,0,2.14,1.47C216,319.85,214.68,320.19,214.23,320.45Z"/><path class="cls-1" d="M273.81,78a15.75,15.75,0,0,1-4,0c-4.07-1.16-8.08-2.54-12.11-3.84a1.47,1.47,0,0,1-.64-.31c-.51-.62-1-1.29-1.45-1.94a7.92,7.92,0,0,1,2.38-.09c2.63.69,5.26,1.47,7.84,2.35s4.8,1.79,7.18,2.73a3.94,3.94,0,0,1,.89.74A2.31,2.31,0,0,0,273.81,78Z"/><path class="cls-1" d="M139.13,30.61a7.87,7.87,0,0,1-8,2.66c-1-.33-1.15-1.52-.15-2.45s2.45-1.39,1.21-3.1c-.07-.1.22-.5.37-.75,1-1.61,1.95-3.24,3-4.79a3.17,3.17,0,0,1,1.67-1c.21,2.13-1,3.62-1.79,5.29a8.67,8.67,0,0,0-.89,2.76c-.15,1.48.72,2,2.16,1.76A24.11,24.11,0,0,1,139.13,30.61Z"/><path class="cls-1" d="M237.53,338.49a16.12,16.12,0,0,1,2.81-1.19c.42-.1,1.06.36,1.46.73a1.89,1.89,0,0,1,.41,1.16c.45,4.57.89,9.14,1.26,13.72,0,.46-.45,1-.69,1.43a5.89,5.89,0,0,1-1.28-1.21c-.22-.37-.08-.93-.12-1.41-.34-3.62-.65-7.25-1.08-10.86-.06-.47-.71-.95-1.19-1.27a6.21,6.21,0,0,0-1.52-.52Z"/><path class="cls-1" d="M349.33,319.63a11.17,11.17,0,0,1-1,1.27c-2.93,2.65-5.85,5.3-8.85,7.87-.39.33-1.22.14-1.85.2.09-.65-.07-1.55.3-1.89,2.73-2.6,5.54-5.11,8.4-7.56a3.7,3.7,0,0,1,2-.52C348.61,319,348.93,319.37,349.33,319.63Z"/><path class="cls-1" d="M310.16,310.51a10.85,10.85,0,0,0,.78,1.25c2.76,3.6,5.57,7.16,8.27,10.8.36.49.14,1.4.19,2.11-.62-.31-1.45-.45-1.83-.94-2.72-3.56-5.36-7.17-8-10.81a3.47,3.47,0,0,1-.41-1.64C309.16,311.14,309.58,311,310.16,310.51Z"/><path class="cls-1" d="M284.05,334.82c0-2.57-.06-5.14,0-7.71,0-.58.57-1.13.87-1.7a5.91,5.91,0,0,1,.67,1.67c.21,4.78.36,9.57.52,14.35a3.4,3.4,0,0,1-.05,1.42,5.61,5.61,0,0,1-1,1.27c-.25-.46-.71-.92-.72-1.4-.07-2.63,0-5.26,0-7.9Z"/><path class="cls-1" d="M281.53,332.2a2.94,2.94,0,0,1-2.55,3.28,2.72,2.72,0,0,1-.57,0,4.54,4.54,0,0,1-3.9-3.8,4.29,4.29,0,0,1,3.51-3.51C279.81,328.18,281.52,330.13,281.53,332.2Zm-5.76-.58,2.61,2.56c.55-.61,1.56-1.23,1.55-1.84,0-1.08-.56-2.38-2-2.27-.61,0-1.16.8-2.16,1.55Z"/><path class="cls-1" d="M288.18,337.52a3.13,3.13,0,0,1,2.92-3.33h.08a4.08,4.08,0,0,1,3.59,4,3.07,3.07,0,0,1-2.83,3.28h-.39C289.36,341.48,288.16,340,288.18,337.52Zm3.09-2.28c-.81,1-1.71,1.71-1.59,2a13.89,13.89,0,0,0,1.76,2.78c.58-.57,1.72-1.25,1.64-1.71C292.92,337.4,292.1,336.56,291.27,335.24Z"/><path class="cls-1" d="M425.15,134.47c2.08.78,4.18,1.48,6.2,2.39.46.21.6,1.12.89,1.71a4.26,4.26,0,0,1-1.74-.17c-2.35-1.35-4.9-1.32-7.47-1.39-.56,0-1.11-.55-1.67-.85a6.84,6.84,0,0,1,1.69-1.13,6.1,6.1,0,0,1,2,0A1,1,0,0,1,425.15,134.47Z"/><path class="cls-1" d="M48.62,253.35h-4c-.39,0-.77-.39-1.15-.6.23-.39.43-.8.69-1.17a.68.68,0,0,1,.46-.25h9c.22,0,.64.65.62.69-.41.46-.84,1.16-1.34,1.22a38.56,38.56,0,0,1-4.3.06Z"/><path class="cls-1" d="M142.5,129.47a26.08,26.08,0,0,1,4.37-3.39c.6-.3,2,.75,2.84,1.36a3.5,3.5,0,0,1-.85,1.86c-1.84,1.64-4,.79-6.05.88C142.71,129.94,142.61,129.71,142.5,129.47Z"/><path class="cls-1" d="M156.12,251.62c-1,1.77-7.6,2.5-10.8,1.12.85-.6,1.49-1.43,2.17-1.47,2.63-.15,5.27-.05,7.9,0C155.6,251.25,155.8,251.45,156.12,251.62Z"/><path class="cls-1" d="M93.84,79.51a8.64,8.64,0,0,1-.79,1.91,52,52,0,0,1-3.56,4.27c-.35.37-1.18.28-1.8.4,0-.61-.25-1.41,0-1.81C89.05,82.45,90.51,80.73,92,79a1.49,1.49,0,0,1,1.15-.58C93.43,78.5,93.6,79.12,93.84,79.51Z"/><path class="cls-1" d="M352.86,137.11c-1,0-2,.06-3.05,0-.4,0-.77-.4-1.15-.62.29-.41.49-1,.89-1.18a3.34,3.34,0,0,1,1.56-.26c1.67,0,3.35-.09,5,0,.47,0,.9.67,1.35,1-.46.35-.9.92-1.4,1a21.63,21.63,0,0,1-3.22,0Z"/><path class="cls-1" d="M292.53,31.69a1.39,1.39,0,0,1-1.32,1.46,1.41,1.41,0,0,1-.75-.18c-1.2-.5-2.41-1-3.58-1.57a6.57,6.57,0,0,1-1.23-1c.59-.43,1.31-1.32,1.75-1.2a33.19,33.19,0,0,1,4.72,1.89C292.34,31.19,292.44,31.55,292.53,31.69Z"/><path class="cls-1" d="M349.63,336.18c1.82-.09,4.41,3.24,3.87,4.41a2.6,2.6,0,0,1-1.31,1c-.15.06-.65-.5-.86-.85a26.27,26.27,0,0,1-1.72-3.12A3.49,3.49,0,0,1,349.63,336.18Z"/><path class="cls-1" d="M315.55,104.6c-2.1,1.14-4.62.2-5.1-1.63-.08-.31.15-1,.37-1a2.26,2.26,0,0,1,1.62,0A38.94,38.94,0,0,1,315.55,104.6Z"/><path class="cls-1" d="M156.55,120.14a7.49,7.49,0,0,1,1.77,0,4.63,4.63,0,0,1,1.23.77c-.3.41-.63,1.18-.89,1.15-1.61-.14-3.2-.46-4.79-.73.12-.4.18-1.09.38-1.14a12.54,12.54,0,0,1,2.29-.16Z"/><path class="cls-1" d="M276.1,360.58c.34.28.91.57,1.13,1,.1.2-.46.81-.82,1.11a3.74,3.74,0,0,1-1.14.5c-.91.3-1.8.21-1.92-.87,0-.39.69-.95,1.17-1.28A5.74,5.74,0,0,1,276.1,360.58Z"/><path class="cls-1" d="M50.05,136.94c.61-1.39,3.49-2.2,4.06-1.35.15.23-.29,1.26-.54,1.29A25.85,25.85,0,0,1,50.05,136.94Z"/><path class="cls-1" d="M328.55,337a15.15,15.15,0,0,1-1-1.38,11.21,11.21,0,0,1,2.13-1.56c.12-.06.67.71,1,1.09Z"/><path class="cls-1" d="M317.8,110.16l-3.08-2.81c3.16-.63,3.75,0,3,2.85Z"/><path class="cls-1" d="M58.24,134.58,59.73,136c-.42.39-.87,1.11-1.26,1.08-.56,0-1.08-.64-1.61-1Z"/><path class="cls-1" d="M308,97.71c-.91.46-1.47.94-1.71.82a9.92,9.92,0,0,1-1.75-1.41c.35-.29.8-.88,1-.81A15.75,15.75,0,0,1,308,97.71Z"/><path class="cls-1" d="M352.2,332.52c-.67.46-1.19.94-1.28.87a19.37,19.37,0,0,1-1.7-1.69c.36-.33.94-1,1-.93A18.22,18.22,0,0,1,352.2,332.52Z"/><path class="cls-1" d="M356.16,333.7a12.77,12.77,0,0,1,2,1.43c.25.26.16.86.23,1.31-.48-.06-1.18.06-1.42-.21a11.34,11.34,0,0,1-1.2-2.12Z"/><path class="cls-1" d="M71.94,74.82l1.71-1.56c.2.3.64.81.57.89a16.54,16.54,0,0,1-1.53,1.49Z"/><path class="cls-1" d="M153.9,129.17c.8-.25,1.59-.51,2.4-.71a3.57,3.57,0,0,1,.34.71l-2.47.8Z"/><path class="cls-1" d="M92.47,336.18l-2.1-2.28.66-.62,2.16,2.23Z"/><path class="cls-1" d="M144.69,28.3l-2.9,1.56-.3-.46,2.69-1.89Z"/></g></g></svg>