<svg xmlns="http://www.w3.org/2000/svg" viewBox="0 0 53.7 90.25"><defs><style>.cls-1{fill:#00aeef;stroke:#00aeef;stroke-miterlimit:10;stroke-width:2px;}.cls-2{fill:#fff;}.cls-3{fill:#fff200;}</style></defs><g id="Layer_2" data-name="Layer 2"><g id="Layer_1-2" data-name="Layer 1"><path class="cls-1" d="M52.7,25.87A24.82,24.82,0,0,0,32.1,1.16c-.05,0,0,0-.09,0l-.15,0L31.27,1a4.52,4.52,0,0,0-4.82,3.36c0,.17-.07.34-.1.51a5.32,5.32,0,0,1-4.94,3.44h-.14a4.49,4.49,0,0,0-4,2.21,5.34,5.34,0,0,1-4.58,2.63A5,5,0,0,1,11.24,13l-.11,0-.11,0a4.51,4.51,0,0,0-5.48,2.37,4,4,0,0,1-.57.86,4.37,4.37,0,0,0-1.13,1.8c-.17.5-.71,1-.92,1.52C2.21,21.19,1,23.36,1,25.87V61a8.29,8.29,0,0,0,.62,2.1C3.28,67.49,8,71.4,12,71.4h6.2c-.13,0-1.2-.13-1.2.32v7.15s.49.09.49.13A10.47,10.47,0,0,0,28,89.25a10.16,10.16,0,0,0,10.12-10c0-.11-.11-.22-.11-.33V71.72c0-.46.4-.32.27-.32h5.64c4.9,0,8.09-5.08,8.09-10.29V54Z"/><path class="cls-2" d="M33.17,71.72H21.67V79h0v0a5.75,5.75,0,1,0,11.5,0v0h0Z"/><path class="cls-3" d="M48,25.87A20.67,20.67,0,0,0,30.86,5.59l-.77-.09c0,.07,0,.14,0,.21a9.82,9.82,0,0,1-9.7,7.12A9.84,9.84,0,0,1,9.17,17.29l-.37-.12a19.05,19.05,0,0,1-1.18,2.18C6.93,21.4,6,23.59,6,25.87V61c0,2.63,3.19,4.38,5.19,4.38h31.9c2.57,0,4.91-1.77,4.91-4.29V53.9Zm-8,31.7a3.34,3.34,0,0,1-2.3,1,3.47,3.47,0,0,1-2.48-1L22,45.08v10.3a3.16,3.16,0,0,1-.91,2.27,3.42,3.42,0,0,1-2.35.93,3.77,3.77,0,0,1-2.5-.93A3.55,3.55,0,0,1,15,55.38V29.59a3.66,3.66,0,0,1,1.3-2.29,3.87,3.87,0,0,1,2.55-.9,3,3,0,0,1,2.24.9A3.15,3.15,0,0,1,22,29.59v9.52L35.19,27.3a3.08,3.08,0,0,1,2.22-.9,3.74,3.74,0,0,1,2.39,1,3.09,3.09,0,0,1,1,2.33A2.93,2.93,0,0,1,39.87,32L28.57,42.09,40.09,53A3,3,0,0,1,41,55.27,3.31,3.31,0,0,1,40.08,57.57Z"/></g></g></svg>