<svg id="Layer_1" data-name="Layer 1" xmlns="http://www.w3.org/2000/svg" viewBox="0 0 124.82 239.05"><defs><style>.cls-1{fill:#fdf001;}.cls-2{fill:#f7fcfe;}.cls-3{fill:#fc4500;}.cls-4{fill:#fbe700;}</style></defs><path class="cls-1" d="M118.85,204.05c-14-3.25-25.27.35-33.92,11.68-.82,1.07-2.77,1.62-4.26,1.78-11.4,1.25-19.83,6.93-24.3,17.4-1.89,4.42-4.23,4.63-8,3.69C19.37,231.37.3,207.72.1,177.8c-.24-35.32,0-70.64.18-106A14.07,14.07,0,0,1,14.1,57.48h.38q48-.15,96,0c8.49,0,14.34,6,14.34,14.61q0,54.73-.26,109.46A49.35,49.35,0,0,1,118.85,204.05ZM43.67,127.44C44.26,141,53,150.91,60.82,161c.35.45,2.75.14,3.3-.54,7.29-9.11,14.6-18.34,16.53-30.28,1.79-11-6.65-21.49-17.25-22.13A18.86,18.86,0,0,0,43.67,127.44Z"/><path class="cls-2" d="M62.5,45.86c-4.66,0-9.32-.07-14,0-2.58.06-4-.54-4-3.57.15-8.15-.19-16.32.12-24.46C45,7.19,52.9-.27,62.89,0s17.18,7.85,17.39,18.3c.15,7.81-.11,15.64.1,23.45.09,3.42-1.28,4.31-4.4,4.18C71.49,45.76,67,45.86,62.5,45.86Z"/><g id="Layer_3" data-name="Layer 3"><polygon class="cls-1" points="23.59 102.56 86.57 102.56 102.91 157.37 68.86 168.26 43.65 161.23 23.59 102.56"/></g><path class="cls-3" d="M49.12,114a17.27,17.27,0,0,1,.16-2,5.21,5.21,0,0,1,5.27-4.2c2.41,0,4.82,0,7.23,0,3.64,0,7.3.12,10.94,0s6.48,2.23,6.15,6.29H90.75a7.3,7.3,0,0,1,7.72,7.67q0,13,0,26a7.29,7.29,0,0,1-7.69,7.7q-26.29,0-52.57,0c-4.64,0-7.73-3.12-7.74-7.76V121.67A7.33,7.33,0,0,1,38.16,114h11Zm27.7,21.21a12.23,12.23,0,1,0-12.54,12.13,12.28,12.28,0,0,0,12.54-12.13Z"/><path class="cls-4" d="M76.82,135.18a12.23,12.23,0,1,1-12-12.35A12.28,12.28,0,0,1,76.82,135.18Zm-12.26-7a6.74,6.74,0,1,0,6.76,6.71h0A6.73,6.73,0,0,0,64.56,128.21Z"/><path class="cls-3" d="M64.56,128.21A6.74,6.74,0,1,1,57.83,135h0A6.74,6.74,0,0,1,64.56,128.21Z"/></svg>