<svg xmlns="http://www.w3.org/2000/svg" viewBox="0 0 124.82 239.05"><defs><style>.cls-1{fill:#fdf001;}.cls-2{fill:#f7fcfe;}.cls-3{fill:#fc4500;}</style></defs><g id="Layer_1" data-name="Layer 1"><path class="cls-1" d="M118.85,204.05c-14-3.25-25.27.35-33.92,11.68-.82,1.07-2.77,1.62-4.26,1.78-11.4,1.25-19.83,6.93-24.3,17.4-1.89,4.42-4.23,4.63-8,3.69C19.37,231.37.3,207.72.1,177.8c-.24-35.32,0-70.64.18-106A14.07,14.07,0,0,1,14.1,57.48h.38q48-.15,96,0c8.49,0,14.34,6,14.34,14.61q0,54.73-.26,109.46A49.35,49.35,0,0,1,118.85,204.05ZM43.67,127.44C44.26,141,53,150.91,60.82,161c.35.45,2.75.14,3.3-.54,7.29-9.11,14.6-18.34,16.53-30.28,1.79-11-6.65-21.49-17.25-22.13A18.86,18.86,0,0,0,43.67,127.44Z"/><path class="cls-2" d="M62.5,45.86c-4.66,0-9.32-.07-14,0-2.58.06-4-.54-4-3.57.15-8.15-.19-16.32.12-24.46C45,7.19,52.9-.27,62.89,0s17.18,7.85,17.39,18.3c.15,7.81-.11,15.64.1,23.45.09,3.42-1.28,4.31-4.4,4.18C71.49,45.76,67,45.86,62.5,45.86Z"/><g id="Layer_3" data-name="Layer 3"><polygon class="cls-1" points="23.59 102.56 86.57 102.56 102.91 157.37 68.86 168.26 43.65 161.23 23.59 102.56"/></g></g><g id="Layer_4" data-name="Layer 4"><path class="cls-3" d="M41.82,128.46v28.78c0,3.18,1.48,4.76,4.47,4.76H86.23c3,0,4.47-1.64,4.47-4.78,0-15-.07-29.92.06-44.87a6.61,6.61,0,0,0-2.17-5Q83.67,102.21,78.8,97a5.65,5.65,0,0,0-4.49-2.17c-9.33.15-18.66.07-28,.07-3.12,0-4.53,1.49-4.53,4.8Zm4.48,28.8V99.68a6.5,6.5,0,0,1,.87-.12q13.1,0,26.2,0c.9,0,1,.42,1,1.23,0,3.38,0,6.76,0,10.14,0,.87.26,1.18,1.1,1.17,3.15,0,6.3,0,9.45,0,.42,0,.85,0,1.3.05v45.14Z"/><path class="cls-3" d="M66.2,119.79c-4.14,0-8.29,0-12.43,0-.9,0-1.15.3-1.16,1.23,0,3.46-.08,3.46,3.13,3.46,7.59,0,15.21,0,22.82,0,1.08,0,1.35-.36,1.35-1.44,0-3.25,0-3.25-3.08-3.25Z"/><path class="cls-3" d="M66.24,149.61c4.15,0,8.3,0,12.44,0,1,0,1.2-.36,1.22-1.31,0-3.35.06-3.35-3.11-3.35H54.16c-1.55,0-1.55,0-1.56,1.7,0,3,0,3,2.74,3Z"/><path class="cls-3" d="M66.28,132.43c-4.14,0-8.28,0-12.42,0-.93,0-1.24.28-1.25,1.28,0,3.41-.08,3.41,3.19,3.41,7.53,0,15,0,22.57,0,1.24,0,1.56-.42,1.54-1.68,0-3,0-3-2.88-3Z"/><path class="cls-3" d="M59.44,107.14c-1.87,0-3.75,0-5.62,0-.84,0-1.2.21-1.2,1.2,0,3.47-.09,3.47,3.2,3.47s6.39,0,9.59,0c.91,0,1.14-.31,1.15-1.23,0-3.44.06-3.44-3.15-3.44Z"/></g></svg>