<svg id="Layer_1" data-name="Layer 1" xmlns="http://www.w3.org/2000/svg" viewBox="0 0 124.82 239.05"><defs><style>.cls-1{fill:#fdf001;}.cls-2{fill:#f7fcfe;}.cls-3{fill:#fc4500;}.cls-4{fill:#fbe700;}</style></defs><path class="cls-1" d="M118.85,204.05c-14-3.25-25.27.35-33.92,11.68-.82,1.07-2.77,1.62-4.26,1.78-11.4,1.25-19.83,6.93-24.3,17.4-1.89,4.42-4.23,4.63-8,3.69C19.37,231.37.3,207.72.1,177.8c-.24-35.32,0-70.64.18-106A14.07,14.07,0,0,1,14.1,57.48h.38q48-.15,96,0c8.49,0,14.34,6,14.34,14.61q0,54.73-.26,109.46A49.35,49.35,0,0,1,118.85,204.05ZM43.67,127.44C44.26,141,53,150.91,60.82,161c.35.45,2.75.14,3.3-.54,7.29-9.11,14.6-18.34,16.53-30.28,1.79-11-6.65-21.49-17.25-22.13A18.86,18.86,0,0,0,43.67,127.44Z"/><path class="cls-2" d="M62.5,45.86c-4.66,0-9.32-.07-14,0-2.58.06-4-.54-4-3.57.15-8.15-.19-16.32.12-24.46C45,7.19,52.9-.27,62.89,0s17.18,7.85,17.39,18.3c.15,7.81-.11,15.64.1,23.45.09,3.42-1.28,4.31-4.4,4.18C71.49,45.76,67,45.86,62.5,45.86Z"/><path class="cls-3" d="M43.67,127.44c-.48-11,9.23-20,19.73-19.37s19,11.12,17.25,22.13c-1.93,11.94-9.24,21.17-16.53,30.28-.55.68-3,1-3.3.54C53,150.91,44.26,141,43.67,127.44Zm10.62.54c.09,5.24,3.47,9.07,8,9s8.27-4.56,8.1-9.58-3.8-8.79-8.4-8.62S54.19,122.62,54.29,128Z"/><path class="cls-4" d="M54.29,128c-.1-5.36,3-9,7.68-9.19s8.24,3.56,8.4,8.62-3.64,9.53-8.1,9.58S54.38,133.22,54.29,128Z"/></svg>